<svg width="52" height="52" viewBox="0 0 52 52" fill="none" xmlns="http://www.w3.org/2000/svg">
<path d="M2.09543 18.2329L26 0.865247L49.9046 18.2329L40.7738 46.3344H11.2262L2.09543 18.2329Z" stroke="black" stroke-width="1.4"/>
<path fill-rule="evenodd" clip-rule="evenodd" d="M19.332 22.6665C18.8718 22.6665 18.4987 23.0396 18.4987 23.4998V31.8332C18.4987 32.2934 18.8718 32.6665 19.332 32.6665H32.6654C33.1256 32.6665 33.4987 32.2934 33.4987 31.8332V23.4998C33.4987 23.0396 33.1256 22.6665 32.6654 22.6665H19.332ZM16.832 23.4998C16.832 22.1191 17.9513 20.9998 19.332 20.9998H32.6654C34.0461 20.9998 35.1654 22.1191 35.1654 23.4998V31.8332C35.1654 33.2139 34.0461 34.3332 32.6654 34.3332H19.332C17.9513 34.3332 16.832 33.2139 16.832 31.8332V23.4998Z" fill="black"/>
<path fill-rule="evenodd" clip-rule="evenodd" d="M22.5643 18.3987C23.0331 17.9299 23.669 17.6665 24.332 17.6665H27.6654C28.3284 17.6665 28.9643 17.9299 29.4331 18.3987C29.902 18.8676 30.1654 19.5035 30.1654 20.1665V33.4998C30.1654 33.9601 29.7923 34.3332 29.332 34.3332C28.8718 34.3332 28.4987 33.9601 28.4987 33.4998V20.1665C28.4987 19.9455 28.4109 19.7335 28.2546 19.5772C28.0983 19.421 27.8864 19.3332 27.6654 19.3332H24.332C24.111 19.3332 23.8991 19.421 23.7428 19.5772C23.5865 19.7335 23.4987 19.9455 23.4987 20.1665V33.4998C23.4987 33.9601 23.1256 34.3332 22.6654 34.3332C22.2051 34.3332 21.832 33.9601 21.832 33.4998V20.1665C21.832 19.5035 22.0954 18.8676 22.5643 18.3987Z" fill="black"/>
</svg>
