<svg width="25" height="25" viewBox="0 0 25 25" fill="none" xmlns="http://www.w3.org/2000/svg">
<path d="M22.2567 7.48757C22.2567 6.70084 21.6146 6.06069 20.8254 6.06069C20.457 6.06069 20.1054 6.20624 19.845 6.45257L14.1132 2.97124C14.1514 2.84312 14.1715 2.7094 14.1715 2.57336C14.1715 1.78663 13.5294 1.14648 12.7402 1.14648C11.951 1.14648 11.3088 1.78663 11.3088 2.57336C11.3088 2.7099 11.3292 2.84404 11.3669 2.9714L5.63474 6.45291C5.37345 6.20576 5.02255 6.06069 4.65497 6.06069C3.86578 6.06069 3.22363 6.70084 3.22363 7.48757C3.22363 8.1426 3.67327 8.69013 4.27997 8.85528V15.8674C3.67327 16.0326 3.22363 16.5801 3.22363 17.2351C3.22363 18.0218 3.86578 18.662 4.65497 18.662C5.00667 18.662 5.33903 18.5333 5.59322 18.3104L11.3507 21.8103C11.3238 21.9195 11.3088 22.0331 11.3088 22.1493C11.3088 22.9362 11.951 23.5764 12.7402 23.5764C13.5294 23.5764 14.1715 22.9362 14.1715 22.1493C14.1715 22.0325 14.1566 21.9184 14.1301 21.81L19.888 18.3099C20.1436 18.534 20.4748 18.662 20.8254 18.662C21.6146 18.662 22.2567 18.0218 22.2567 17.2351C22.2567 16.5801 21.8071 16.0325 21.2004 15.8674V8.8553C21.8071 8.69016 22.2567 8.1426 22.2567 7.48757ZM20.8254 6.80836C21.2011 6.80836 21.5067 7.11301 21.5067 7.48757C21.5067 7.86031 21.2011 8.1635 20.8254 8.1635C20.5895 8.1635 20.3691 8.04029 20.2471 7.83785C20.1808 7.73107 20.1473 7.61315 20.1473 7.48757C20.1473 7.36199 20.1808 7.24425 20.2499 7.13309C20.3702 6.93285 20.5908 6.80836 20.8254 6.80836ZM20.4504 9.36884L16.2529 11.9192C16.076 12.0267 16.0201 12.2567 16.1278 12.433C16.1985 12.5485 16.3219 12.6122 16.4484 12.6122C16.5149 12.6122 16.5823 12.5947 16.6432 12.5577L20.4504 10.2445V11.3579L16.2529 13.9082C16.076 14.0158 16.0201 14.2457 16.1278 14.4221C16.1985 14.5376 16.3219 14.6013 16.4484 14.6013C16.5149 14.6013 16.5823 14.5838 16.6432 14.5467L20.4504 12.2336V13.3468L16.2529 15.8971C16.076 16.0047 16.0201 16.2346 16.1278 16.411C16.1985 16.5265 16.3219 16.5902 16.4484 16.5902C16.5149 16.5902 16.5823 16.5727 16.6432 16.5356L20.4504 14.2225V15.3359L16.2529 17.8862C16.076 17.9937 16.0201 18.2237 16.1278 18.4001C16.1985 18.5156 16.3219 18.5793 16.4484 18.5793C16.5149 18.5793 16.5823 18.5618 16.6432 18.5247L19.4706 16.8069C19.4272 16.9429 19.3973 17.0849 19.3973 17.2351C19.3973 17.3914 19.4243 17.5433 19.4724 17.6867L13.7646 21.1565C13.5867 20.9725 13.3626 20.8401 13.1152 20.7729V13.7694C13.7219 13.6039 14.1715 13.055 14.1715 12.3985C14.1715 12.2635 14.1515 12.1302 14.114 12.0022L19.8462 8.52188C20.0161 8.68174 20.224 8.79838 20.4504 8.86016V9.36884ZM11.714 21.1554L6.00771 17.6866C6.05623 17.5425 6.08301 17.391 6.08301 17.2351C6.08301 16.5804 5.63479 16.0331 5.02997 15.8677V8.86023C5.25695 8.7984 5.46528 8.68171 5.63479 8.52225L11.3664 12.0022C11.3288 12.1304 11.3088 12.2636 11.3088 12.3985C11.3088 13.055 11.7585 13.6038 12.3652 13.7694V20.7728C12.1159 20.8401 11.8905 20.9727 11.714 21.1554ZM13.3217 12.0484C13.388 12.1552 13.4215 12.2729 13.4215 12.3985C13.4215 12.7731 13.1159 13.0777 12.7402 13.0777C12.3644 13.0777 12.0588 12.7731 12.0588 12.3985C12.0588 12.2729 12.0923 12.1552 12.1597 12.0467C12.2841 11.8438 12.501 11.7226 12.7402 11.7226C12.9793 11.7226 13.1963 11.8438 13.3217 12.0484ZM12.7402 1.89415C13.1159 1.89415 13.4215 2.1988 13.4215 2.57336C13.4215 2.69895 13.3878 2.81504 13.3159 2.92766C13.1952 3.12808 12.9745 3.25257 12.7402 3.25257C12.5058 3.25257 12.2852 3.12808 12.159 2.9189C12.0925 2.81504 12.0588 2.69895 12.0588 2.57336C12.0588 2.1988 12.3644 1.89415 12.7402 1.89415ZM11.7598 3.60833C11.7644 3.61265 11.77 3.61564 11.7746 3.6199C11.8282 3.66926 11.8858 3.71343 11.946 3.75395C11.9627 3.76522 11.9793 3.77622 11.9965 3.78676C12.0641 3.82827 12.134 3.86591 12.2077 3.89576C12.2122 3.89758 12.2171 3.89863 12.2216 3.90044C12.2916 3.92793 12.3641 3.9484 12.4379 3.96464C12.4581 3.96909 12.4781 3.97313 12.4986 3.97671C12.578 3.99059 12.6584 4.00024 12.7402 4.00024C12.8222 4.00024 12.9027 3.99054 12.9823 3.97664C13.0022 3.97315 13.0218 3.96923 13.0416 3.96489C13.119 3.94799 13.1951 3.92679 13.2681 3.89765C13.2689 3.89731 13.2698 3.89713 13.2706 3.89681C13.3475 3.86594 13.4202 3.82678 13.4903 3.78345C13.5026 3.77581 13.5145 3.76798 13.5266 3.75998C13.5953 3.71457 13.6612 3.66517 13.721 3.60863L19.4543 7.09074C19.4537 7.09259 19.4536 7.09453 19.4531 7.09637C19.4411 7.13792 19.4337 7.18057 19.4255 7.22308C19.4213 7.24525 19.4147 7.26688 19.4116 7.28927C19.4023 7.35471 19.3973 7.42094 19.3973 7.48757C19.3973 7.55435 19.4023 7.62071 19.4116 7.68621C19.414 7.70314 19.4191 7.71948 19.4221 7.7363C19.4308 7.78471 19.4397 7.83304 19.4533 7.88009C19.4538 7.8815 19.4539 7.88299 19.4543 7.8844L13.7236 11.3637C13.7196 11.3599 13.7147 11.3573 13.7106 11.3535C13.6565 11.3034 13.5983 11.259 13.5376 11.2182C13.5206 11.2068 13.5037 11.1957 13.4863 11.1851C13.4189 11.144 13.3493 11.1067 13.2757 11.0773C13.2723 11.0759 13.2686 11.0751 13.2651 11.0738C13.1942 11.0461 13.1204 11.0258 13.045 11.0096C13.0249 11.0053 13.0049 11.0014 12.9845 10.9979C12.9045 10.9843 12.8233 10.9749 12.7402 10.9749C12.6569 10.9749 12.5757 10.9844 12.4957 10.998C12.4755 11.0014 12.4556 11.0052 12.4356 11.0095C12.3595 11.0258 12.2848 11.0463 12.2133 11.0744C12.2106 11.0754 12.2077 11.076 12.205 11.0771C12.1309 11.1066 12.0607 11.1443 11.9929 11.1857C11.9763 11.1958 11.9603 11.2064 11.9442 11.2171C11.8813 11.2592 11.8209 11.3051 11.7652 11.3571C11.7626 11.3595 11.7593 11.3612 11.7567 11.3637L6.02606 7.8844C6.02657 7.88269 6.0267 7.88089 6.02721 7.87918C6.0395 7.83671 6.0471 7.79311 6.05534 7.74964C6.05939 7.72831 6.06573 7.70755 6.06879 7.68599C6.07809 7.62052 6.08301 7.55424 6.08301 7.48757C6.08301 7.42083 6.07806 7.3545 6.06879 7.28902C6.06635 7.27179 6.06113 7.25516 6.05806 7.23804C6.04941 7.18997 6.04055 7.14198 6.02705 7.09528C6.02661 7.0938 6.0265 7.09222 6.02606 7.09074L11.7598 3.60833ZM3.97363 7.48757C3.97363 7.11301 4.27924 6.80836 4.65497 6.80836C4.88953 6.80836 5.11017 6.93285 5.23322 7.13747C5.2995 7.24425 5.33301 7.36199 5.33301 7.48757C5.33301 7.61315 5.2995 7.73107 5.23065 7.84224C5.11127 8.04029 4.89081 8.1635 4.65497 8.1635C4.27924 8.1635 3.97363 7.86031 3.97363 7.48757ZM4.65497 17.9143C4.27924 17.9143 3.97363 17.6097 3.97363 17.2351C3.97363 16.8624 4.27924 16.5592 4.65497 16.5592C5.02887 16.5592 5.33301 16.8624 5.33301 17.2351C5.33301 17.3731 5.29199 17.5044 5.21033 17.621C5.08673 17.8046 4.87909 17.9143 4.65497 17.9143ZM12.7402 22.8287C12.3644 22.8287 12.0588 22.5239 12.0588 22.1493C12.0588 22.0349 12.0858 21.9285 12.1438 21.8284C12.2614 21.6074 12.4899 21.4701 12.7402 21.4701C12.9905 21.4701 13.219 21.6074 13.3437 21.8414C13.3946 21.9285 13.4215 22.0349 13.4215 22.1493C13.4215 22.5239 13.1159 22.8287 12.7402 22.8287ZM21.5067 17.2351C21.5067 17.6097 21.2011 17.9143 20.8254 17.9143C20.6013 17.9143 20.3936 17.8046 20.2658 17.6146C20.1884 17.5044 20.1473 17.3731 20.1473 17.2351C20.1473 16.8624 20.4515 16.5592 20.8254 16.5592C21.2011 16.5592 21.5067 16.8624 21.5067 17.2351Z" fill="black"/>
</svg>
