<svg width="52" height="53" viewBox="0 0 52 53" fill="none" xmlns="http://www.w3.org/2000/svg">
<path d="M2.09543 19.0652L26 1.69752L49.9046 19.0652L40.7738 47.1667H11.2262L2.09543 19.0652Z" fill="black" stroke="black" stroke-width="1.4"/>
<path fill-rule="evenodd" clip-rule="evenodd" d="M19.3334 23.499C18.8731 23.499 18.5 23.8721 18.5 24.3324V32.6657C18.5 33.1259 18.8731 33.499 19.3334 33.499H32.6667C33.1269 33.499 33.5 33.1259 33.5 32.6657V24.3324C33.5 23.8721 33.1269 23.499 32.6667 23.499H19.3334ZM16.8334 24.3324C16.8334 22.9516 17.9527 21.8324 19.3334 21.8324H32.6667C34.0474 21.8324 35.1667 22.9516 35.1667 24.3324V32.6657C35.1667 34.0464 34.0474 35.1657 32.6667 35.1657H19.3334C17.9527 35.1657 16.8334 34.0464 16.8334 32.6657V24.3324Z" fill="white"/>
<path fill-rule="evenodd" clip-rule="evenodd" d="M22.5656 19.2313C23.0344 18.7624 23.6703 18.499 24.3334 18.499H27.6667C28.3297 18.499 28.9656 18.7624 29.4345 19.2313C29.9033 19.7001 30.1667 20.336 30.1667 20.999V34.3324C30.1667 34.7926 29.7936 35.1657 29.3334 35.1657C28.8731 35.1657 28.5 34.7926 28.5 34.3324V20.999C28.5 20.778 28.4122 20.566 28.256 20.4098C28.0997 20.2535 27.8877 20.1657 27.6667 20.1657H24.3334C24.1124 20.1657 23.9004 20.2535 23.7441 20.4098C23.5878 20.566 23.5 20.778 23.5 20.999V34.3324C23.5 34.7926 23.1269 35.1657 22.6667 35.1657C22.2065 35.1657 21.8334 34.7926 21.8334 34.3324V20.999C21.8334 20.336 22.0968 19.7001 22.5656 19.2313Z" fill="white"/>
</svg>
