<svg width="52" height="53" viewBox="0 0 52 53" fill="none" xmlns="http://www.w3.org/2000/svg">
<path d="M2.09578 18.3345L26 0.996936L49.9042 18.3345L40.7741 46.3859H11.2259L2.09578 18.3345Z" stroke="black" stroke-width="1.4"/>
<path fill-rule="evenodd" clip-rule="evenodd" d="M19.3334 22.76C18.8731 22.76 18.5 23.1324 18.5 23.5919V31.9109C18.5 32.3703 18.8731 32.7428 19.3334 32.7428H32.6667C33.1269 32.7428 33.5 32.3703 33.5 31.9109V23.5919C33.5 23.1324 33.1269 22.76 32.6667 22.76H19.3334ZM16.8334 23.5919C16.8334 22.2135 17.9527 21.0962 19.3334 21.0962H32.6667C34.0474 21.0962 35.1667 22.2135 35.1667 23.5919V31.9109C35.1667 33.2892 34.0474 34.4066 32.6667 34.4066H19.3334C17.9527 34.4066 16.8334 33.2892 16.8334 31.9109V23.5919Z" fill="black"/>
<path fill-rule="evenodd" clip-rule="evenodd" d="M22.5656 18.4995C23.0344 18.0315 23.6703 17.7686 24.3334 17.7686H27.6667C28.3297 17.7686 28.9656 18.0315 29.4345 18.4995C29.9033 18.9676 30.1667 19.6024 30.1667 20.2643V33.5747C30.1667 34.0341 29.7936 34.4066 29.3334 34.4066C28.8731 34.4066 28.5 34.0341 28.5 33.5747V20.2643C28.5 20.0436 28.4122 19.832 28.256 19.676C28.0997 19.52 27.8877 19.4324 27.6667 19.4324H24.3334C24.1124 19.4324 23.9004 19.52 23.7441 19.676C23.5878 19.832 23.5 20.0436 23.5 20.2643V33.5747C23.5 34.0341 23.1269 34.4066 22.6667 34.4066C22.2065 34.4066 21.8334 34.0341 21.8334 33.5747V20.2643C21.8334 19.6024 22.0968 18.9676 22.5656 18.4995Z" fill="black"/>
</svg>
