<svg width="52" height="53" viewBox="0 0 52 53" fill="none" xmlns="http://www.w3.org/2000/svg">
<path d="M1.86057 18.459L26 0.950797L50.1394 18.459L40.9193 46.7868H11.0807L1.86057 18.459Z" stroke="black"/>
<path fill-rule="evenodd" clip-rule="evenodd" d="M19.7204 29.1706C20.5018 28.3905 21.5616 27.9523 22.6667 27.9523H29.3333C30.4384 27.9523 31.4982 28.3905 32.2796 29.1706C33.061 29.9506 33.5 31.0086 33.5 32.1118V33.7756C33.5 34.235 33.1269 34.6075 32.6667 34.6075C32.2064 34.6075 31.8333 34.235 31.8333 33.7756V32.1118C31.8333 31.4499 31.5699 30.8151 31.1011 30.3471C30.6323 29.879 29.9964 29.6161 29.3333 29.6161H22.6667C22.0036 29.6161 21.3677 29.879 20.8989 30.3471C20.4301 30.8151 20.1667 31.4499 20.1667 32.1118V33.7756C20.1667 34.235 19.7936 34.6075 19.3333 34.6075C18.8731 34.6075 18.5 34.235 18.5 33.7756V32.1118C18.5 31.0086 18.939 29.9506 19.7204 29.1706Z" fill="black"/>
<path fill-rule="evenodd" clip-rule="evenodd" d="M26 19.6333C24.6193 19.6333 23.5 20.7507 23.5 22.129C23.5 23.5073 24.6193 24.6247 26 24.6247C27.3808 24.6247 28.5 23.5073 28.5 22.129C28.5 20.7507 27.3808 19.6333 26 19.6333ZM21.8334 22.129C21.8334 19.8318 23.6989 17.9695 26 17.9695C28.3012 17.9695 30.1667 19.8318 30.1667 22.129C30.1667 24.4262 28.3012 26.2885 26 26.2885C23.6989 26.2885 21.8334 24.4262 21.8334 22.129Z" fill="black"/>
</svg>
