<svg width="58" height="57" viewBox="0 0 58 57" fill="none" xmlns="http://www.w3.org/2000/svg">
<g filter="url(#filter0_d_1249_11511)">
<path d="M29.1299 0.989258L53.8574 18.9548L44.4123 48.0237H13.8475L4.40241 18.9548L29.1299 0.989258Z" fill="black"/>
<path d="M4.9902 19.1458L29.1299 1.60729L53.2696 19.1458L44.049 47.5237H14.2107L4.9902 19.1458Z" stroke="black"/>
</g>
<path fill-rule="evenodd" clip-rule="evenodd" d="M22.8503 29.8764C23.6317 29.095 24.6915 28.656 25.7965 28.656H32.4632C33.5683 28.656 34.6281 29.095 35.4095 29.8764C36.1909 30.6578 36.6299 31.7176 36.6299 32.8227V34.4893C36.6299 34.9496 36.2568 35.3227 35.7965 35.3227C35.3363 35.3227 34.9632 34.9496 34.9632 34.4893V32.8227C34.9632 32.1596 34.6998 31.5237 34.231 31.0549C33.7621 30.5861 33.1263 30.3227 32.4632 30.3227H25.7965C25.1335 30.3227 24.4976 30.5861 24.0288 31.0549C23.5599 31.5237 23.2965 32.1596 23.2965 32.8227V34.4893C23.2965 34.9496 22.9235 35.3227 22.4632 35.3227C22.003 35.3227 21.6299 34.9496 21.6299 34.4893V32.8227C21.6299 31.7176 22.0689 30.6578 22.8503 29.8764Z" fill="white"/>
<path fill-rule="evenodd" clip-rule="evenodd" d="M29.1299 20.3227C27.7492 20.3227 26.6299 21.442 26.6299 22.8227C26.6299 24.2034 27.7492 25.3227 29.1299 25.3227C30.5106 25.3227 31.6299 24.2034 31.6299 22.8227C31.6299 21.442 30.5106 20.3227 29.1299 20.3227ZM24.9633 22.8227C24.9633 20.5215 26.8287 18.656 29.1299 18.656C31.4311 18.656 33.2966 20.5215 33.2966 22.8227C33.2966 25.1239 31.4311 26.9893 29.1299 26.9893C26.8287 26.9893 24.9633 25.1239 24.9633 22.8227Z" fill="white"/>
<defs>
<filter id="filter0_d_1249_11511" x="0.402466" y="0.989258" width="57.4548" height="55.0344" filterUnits="userSpaceOnUse" color-interpolation-filters="sRGB">
<feFlood flood-opacity="0" result="BackgroundImageFix"/>
<feColorMatrix in="SourceAlpha" type="matrix" values="0 0 0 0 0 0 0 0 0 0 0 0 0 0 0 0 0 0 127 0" result="hardAlpha"/>
<feOffset dy="4"/>
<feGaussianBlur stdDeviation="2"/>
<feComposite in2="hardAlpha" operator="out"/>
<feColorMatrix type="matrix" values="0 0 0 0 0 0 0 0 0 0 0 0 0 0 0 0 0 0 0.25 0"/>
<feBlend mode="normal" in2="BackgroundImageFix" result="effect1_dropShadow_1249_11511"/>
<feBlend mode="normal" in="SourceGraphic" in2="effect1_dropShadow_1249_11511" result="shape"/>
</filter>
</defs>
</svg>
