<svg width="61" height="35" viewBox="0 0 61 35" fill="none" xmlns="http://www.w3.org/2000/svg">
<path fill-rule="evenodd" clip-rule="evenodd" d="M36.1919 5.70075H45.9764C46.786 5.70075 47.4483 6.38945 47.4483 7.18345V27.8006C47.4483 28.5941 46.7642 29.2833 45.9764 29.2833H36.1919V5.70075ZM53.444 7.72344H59.3439C59.8036 7.72344 60.2167 7.91308 60.5135 8.21201C60.8133 8.51345 60.9995 8.93415 60.9995 9.3883V25.6117C60.9995 26.0688 60.8094 26.4881 60.5125 26.7865C60.2157 27.0849 59.7987 27.2761 59.3439 27.2761H53.444V32.1394C53.444 32.9249 53.1228 33.6411 52.607 34.1586C52.0923 34.6766 51.3799 35 50.5985 35H2.84498C2.06361 35 1.35076 34.6776 0.834977 34.1596C0.320687 33.6426 0 32.9274 0 32.1394V2.86011C0 2.07209 0.319694 1.35644 0.834481 0.838918C1.34927 0.321394 2.06113 0 2.84498 0H50.5985C51.3824 0 52.0937 0.322392 52.608 0.839916C53.1233 1.35844 53.444 2.07509 53.444 2.86061V7.72344ZM58.1903 10.5481H53.444V24.4514H58.1903V10.5481ZM50.6343 25.8637V9.13527V2.86011C50.6343 2.85312 50.6293 2.84464 50.6219 2.83665C50.6144 2.82916 50.606 2.82467 50.599 2.82467H2.84498C2.83654 2.82467 2.8276 2.82916 2.82065 2.83615C2.8137 2.84314 2.80973 2.85212 2.80973 2.86011V32.1394C2.80973 32.1464 2.8142 32.1549 2.82165 32.1623C2.82959 32.1703 2.83803 32.1748 2.84498 32.1748H50.5985C50.6045 32.1748 50.6124 32.1698 50.6209 32.1618C50.6288 32.1534 50.6338 32.1454 50.6338 32.1394L50.6343 25.8637ZM7.41998 5.70075H16.92V29.2828H7.41998C6.62819 29.2828 5.94512 28.6155 5.94512 27.8001V7.18345C5.94512 6.36749 6.60883 5.70075 7.41998 5.70075ZM20.928 5.70075H32.1839V29.2828H20.928V5.70075Z" fill="#A74848"/>
</svg>
