<svg width="24" height="24" viewBox="0 0 24 24" fill="none" xmlns="http://www.w3.org/2000/svg">
<g clip-path="url(#clip0_4_1619)">
<path d="M6.31348 12.9237C6.34395 12.924 6.37417 12.9183 6.40239 12.9068C6.4306 12.8953 6.45623 12.8782 6.47778 12.8567C6.49933 12.8351 6.51635 12.8095 6.52786 12.7813C6.53937 12.7531 6.54513 12.7229 6.5448 12.6924V10.8143C6.54514 10.7839 6.53938 10.7536 6.52787 10.7254C6.51636 10.6972 6.49934 10.6716 6.47779 10.65C6.45624 10.6285 6.43061 10.6115 6.40239 10.6C6.37418 10.5884 6.34395 10.5827 6.31348 10.583H4.43544C4.40497 10.5827 4.37474 10.5884 4.34652 10.6C4.31831 10.6115 4.29268 10.6285 4.27113 10.65C4.24958 10.6716 4.23256 10.6972 4.22105 10.7254C4.20954 10.7536 4.20378 10.7839 4.20412 10.8143V12.6924C4.20577 12.7542 4.2314 12.8128 4.27559 12.856C4.31977 12.8992 4.37903 12.9235 4.44082 12.9237L6.31348 12.9237Z" fill="black"/>
<path d="M10.7304 12.9183C10.7609 12.9187 10.7911 12.9129 10.8194 12.9014C10.8476 12.8899 10.8732 12.8729 10.8948 12.8513C10.9163 12.8298 10.9333 12.8042 10.9448 12.7759C10.9563 12.7477 10.9621 12.7175 10.9618 12.687V10.809C10.9621 10.7785 10.9563 10.7483 10.9448 10.7201C10.9333 10.6918 10.9163 10.6662 10.8948 10.6447C10.8732 10.6231 10.8476 10.6061 10.8194 10.5946C10.7911 10.5831 10.7609 10.5773 10.7304 10.5777H8.85243C8.82196 10.5773 8.79173 10.5831 8.76352 10.5946C8.7353 10.6061 8.70967 10.6231 8.68812 10.6447C8.66657 10.6662 8.64955 10.6918 8.63804 10.7201C8.62653 10.7483 8.62078 10.7785 8.62111 10.809V12.687C8.62243 12.748 8.64723 12.806 8.69032 12.8491C8.73342 12.8922 8.7915 12.917 8.85243 12.9183L10.7304 12.9183Z" fill="black"/>
<path d="M15.1474 12.9183C15.1779 12.9187 15.2081 12.9129 15.2364 12.9014C15.2646 12.8899 15.2902 12.8729 15.3117 12.8513C15.3333 12.8298 15.3503 12.8042 15.3618 12.7759C15.3733 12.7477 15.3791 12.7175 15.3788 12.687V10.809C15.3791 10.7785 15.3733 10.7483 15.3618 10.7201C15.3503 10.6918 15.3333 10.6662 15.3117 10.6447C15.2902 10.6231 15.2646 10.6061 15.2364 10.5946C15.2081 10.5831 15.1779 10.5773 15.1474 10.5777H13.2694C13.239 10.5773 13.2087 10.5831 13.1805 10.5946C13.1523 10.6061 13.1267 10.6231 13.1051 10.6447C13.0836 10.6662 13.0665 10.6918 13.055 10.7201C13.0435 10.7483 13.0378 10.7785 13.0381 10.809V12.687C13.0394 12.748 13.0642 12.806 13.1073 12.8491C13.1504 12.8922 13.2085 12.917 13.2694 12.9183H15.1474Z" fill="black"/>
<path d="M10.7304 16.746C10.7609 16.7463 10.7911 16.7406 10.8194 16.729C10.8476 16.7175 10.8732 16.7005 10.8948 16.679C10.9163 16.6574 10.9333 16.6318 10.9448 16.6036C10.9563 16.5754 10.9621 16.5451 10.9618 16.5147V14.6366C10.9621 14.6061 10.9563 14.5759 10.9448 14.5477C10.9333 14.5195 10.9163 14.4938 10.8948 14.4723C10.8732 14.4508 10.8476 14.4337 10.8194 14.4222C10.7911 14.4107 10.7609 14.405 10.7304 14.4053H8.85243C8.82196 14.405 8.79173 14.4107 8.76352 14.4222C8.7353 14.4337 8.70967 14.4508 8.68812 14.4723C8.66657 14.4938 8.64955 14.5195 8.63804 14.5477C8.62653 14.5759 8.62078 14.6061 8.62111 14.6366V16.5147C8.62243 16.5756 8.64723 16.6337 8.69032 16.6768C8.73342 16.7199 8.7915 16.7447 8.85243 16.746H10.7304Z" fill="black"/>
<path d="M15.1474 16.746C15.1779 16.7463 15.2081 16.7406 15.2364 16.729C15.2646 16.7175 15.2902 16.7005 15.3118 16.679C15.3333 16.6574 15.3503 16.6318 15.3618 16.6036C15.3733 16.5754 15.3791 16.5451 15.3788 16.5147V14.6366C15.3791 14.6061 15.3733 14.5759 15.3618 14.5477C15.3503 14.5195 15.3333 14.4938 15.3118 14.4723C15.2902 14.4508 15.2646 14.4337 15.2364 14.4222C15.2081 14.4107 15.1779 14.405 15.1474 14.4053H13.2694C13.239 14.405 13.2087 14.4107 13.1805 14.4222C13.1523 14.4337 13.1267 14.4508 13.1051 14.4723C13.0836 14.4938 13.0665 14.5195 13.055 14.5477C13.0435 14.5759 13.0378 14.6061 13.0381 14.6366V16.5147C13.0394 16.5756 13.0642 16.6337 13.1073 16.6768C13.1504 16.7199 13.2085 16.7447 13.2694 16.746H15.1474Z" fill="black"/>
<path d="M17.6863 14.4053H19.5644C19.6258 14.4053 19.6846 14.4296 19.728 14.473C19.7714 14.5164 19.7957 14.5752 19.7957 14.6366V16.5146C19.7957 16.576 19.7714 16.6348 19.728 16.6782C19.6846 16.7216 19.6258 16.746 19.5644 16.746H17.6864C17.6251 16.746 17.5662 16.7216 17.5228 16.6782C17.4794 16.6348 17.4551 16.576 17.4551 16.5146V14.6365C17.4551 14.5752 17.4794 14.5164 17.5228 14.473C17.5662 14.4296 17.625 14.4053 17.6863 14.4053Z" fill="black"/>
<path d="M6.31347 14.4053H4.43543C4.30767 14.4053 4.2041 14.5088 4.2041 14.6366V16.5146C4.2041 16.6424 4.30767 16.746 4.43543 16.746H6.31347C6.44123 16.746 6.54479 16.6424 6.54479 16.5146V14.6366C6.54479 14.5088 6.44123 14.4053 6.31347 14.4053Z" fill="black"/>
<path d="M10.7305 20.5682C10.7609 20.5685 10.7912 20.5628 10.8194 20.5513C10.8476 20.5398 10.8732 20.5227 10.8948 20.5012C10.9163 20.4797 10.9333 20.454 10.9448 20.4258C10.9564 20.3976 10.9621 20.3674 10.9618 20.3369V18.4588C10.9621 18.4284 10.9563 18.3982 10.9448 18.3699C10.9333 18.3417 10.9163 18.3161 10.8948 18.2946C10.8732 18.273 10.8476 18.256 10.8194 18.2445C10.7911 18.233 10.7609 18.2272 10.7305 18.2276H8.85243C8.82196 18.2272 8.79174 18.233 8.76352 18.2445C8.73531 18.256 8.70968 18.273 8.68813 18.2946C8.66658 18.3161 8.64956 18.3417 8.63805 18.3699C8.62654 18.3982 8.62078 18.4284 8.62111 18.4588V20.3369C8.62243 20.3978 8.64723 20.4559 8.69032 20.499C8.73342 20.5421 8.7915 20.5669 8.85243 20.5682H10.7305Z" fill="black"/>
<path d="M6.31346 20.5682C6.34393 20.5685 6.37416 20.5628 6.40237 20.5513C6.43059 20.5398 6.45622 20.5227 6.47777 20.5012C6.49931 20.4797 6.51634 20.454 6.52785 20.4258C6.53935 20.3976 6.54511 20.3674 6.54478 20.3369V18.4588C6.54511 18.4284 6.53935 18.3982 6.52784 18.3699C6.51633 18.3417 6.4993 18.3161 6.47776 18.2946C6.45621 18.273 6.43058 18.256 6.40236 18.2445C6.37415 18.233 6.34392 18.2272 6.31346 18.2276H4.43544C4.40497 18.2272 4.37474 18.233 4.34653 18.2445C4.31832 18.256 4.29268 18.273 4.27114 18.2946C4.24959 18.3161 4.23256 18.3417 4.22105 18.3699C4.20955 18.3982 4.20379 18.4284 4.20411 18.4588V20.3369C4.20544 20.3978 4.23023 20.4559 4.27333 20.499C4.31643 20.5421 4.3745 20.5669 4.43544 20.5682H6.31346Z" fill="black"/>
<path d="M17.6863 10.5776H19.5644C19.6258 10.5776 19.6846 10.602 19.728 10.6454C19.7714 10.6888 19.7957 10.7476 19.7957 10.809V12.687C19.7957 12.7484 19.7714 12.8072 19.728 12.8506C19.6846 12.894 19.6258 12.9183 19.5644 12.9183H17.6864C17.6251 12.9183 17.5662 12.894 17.5228 12.8506C17.4794 12.8072 17.4551 12.7484 17.4551 12.687V10.8089C17.4551 10.7476 17.4794 10.6887 17.5228 10.6454C17.5662 10.602 17.625 10.5776 17.6863 10.5776Z" fill="black"/>
<path d="M13.2694 18.2275H15.1474C15.1778 18.2275 15.2079 18.2335 15.236 18.2451C15.264 18.2568 15.2895 18.2738 15.311 18.2953C15.3325 18.3168 15.3495 18.3423 15.3611 18.3703C15.3728 18.3984 15.3788 18.4285 15.3788 18.4589V20.3369C15.3788 20.3982 15.3544 20.4571 15.311 20.5005C15.2676 20.5438 15.2088 20.5682 15.1474 20.5682H13.2694C13.239 20.5682 13.2089 20.5622 13.1809 20.5506C13.1528 20.539 13.1273 20.5219 13.1058 20.5005C13.0844 20.479 13.0673 20.4535 13.0557 20.4254C13.0441 20.3974 13.0381 20.3673 13.0381 20.3369V18.4588C13.0381 18.3975 13.0625 18.3386 13.1058 18.2953C13.1492 18.2519 13.208 18.2275 13.2694 18.2275Z" fill="black"/>
<path d="M22.2465 3.46061H18.7051V1.8114C18.7051 1.522 18.5902 1.24445 18.3855 1.03982C18.1809 0.835179 17.9034 0.720215 17.614 0.720215C17.3246 0.720215 17.047 0.835179 16.8424 1.03982C16.6377 1.24445 16.5228 1.522 16.5228 1.8114V3.46061H7.47749V1.8114C7.47749 1.522 7.36252 1.24445 7.15788 1.03982C6.95325 0.835179 6.6757 0.720215 6.3863 0.720215C6.0969 0.720215 5.81935 0.835179 5.61471 1.03982C5.41007 1.24445 5.29511 1.522 5.29511 1.8114V3.46061H1.75375C1.47953 3.46068 1.21657 3.56964 1.02266 3.76354C0.828762 3.95745 0.719797 4.22041 0.719727 4.49463V6.89121H23.2805V4.49463C23.2804 4.22041 23.1715 3.95745 22.9776 3.76354C22.7837 3.56964 22.5207 3.46068 22.2465 3.46061Z" fill="black"/>
<path d="M0.719727 22.2456C0.719796 22.5199 0.82876 22.7828 1.02266 22.9767C1.21656 23.1706 1.47953 23.2796 1.75375 23.2797H22.2465C22.5207 23.2796 22.7837 23.1706 22.9776 22.9767C23.1715 22.7828 23.2804 22.5199 23.2805 22.2457V7.86621H0.719727V22.2456ZM2.06612 9.2126H21.9341V21.9333H2.06612L2.06612 9.2126Z" fill="black"/>
</g>
<defs>
<clipPath id="clip0_4_1619">
<rect width="24" height="24" fill="white"/>
</clipPath>
</defs>
</svg>
