<svg width="20" height="21" viewBox="0 0 20 21" fill="none" xmlns="http://www.w3.org/2000/svg">
<path d="M5.26074 11.2699C5.28613 11.2702 5.31132 11.2654 5.33484 11.2558C5.35835 11.2462 5.37971 11.232 5.39766 11.2141C5.41562 11.1961 5.42981 11.1748 5.4394 11.1512C5.44899 11.1277 5.45379 11.1025 5.45351 11.0772V9.51212C5.45379 9.48673 5.44899 9.46153 5.4394 9.43802C5.42981 9.41451 5.41562 9.39315 5.39767 9.37519C5.37971 9.35724 5.35835 9.34305 5.33484 9.33346C5.31133 9.32387 5.28614 9.31907 5.26074 9.31935H3.69571C3.67032 9.31907 3.64513 9.32387 3.62162 9.33346C3.5981 9.34305 3.57674 9.35724 3.55879 9.37519C3.54083 9.39315 3.52664 9.41451 3.51705 9.43802C3.50746 9.46153 3.50266 9.48673 3.50294 9.51212V11.0772C3.50432 11.1286 3.52568 11.1775 3.5625 11.2135C3.59932 11.2495 3.64871 11.2697 3.70019 11.2699L5.26074 11.2699Z" fill="black"/>
<path d="M8.94237 11.265C8.96776 11.2653 8.99295 11.2605 9.01646 11.2509C9.03997 11.2413 9.06133 11.2272 9.07929 11.2092C9.09724 11.1912 9.11143 11.1699 9.12102 11.1464C9.13061 11.1229 9.13541 11.0977 9.13514 11.0723V9.50723C9.13541 9.48184 9.13061 9.45665 9.12103 9.43314C9.11144 9.40963 9.09725 9.38826 9.07929 9.37031C9.06133 9.35235 9.03997 9.33816 9.01646 9.32857C8.99295 9.31898 8.96776 9.31419 8.94237 9.31446H7.37735C7.35196 9.31419 7.32677 9.31899 7.30326 9.32858C7.27974 9.33816 7.25838 9.35235 7.24043 9.37031C7.22247 9.38826 7.20828 9.40963 7.19869 9.43314C7.1891 9.45665 7.18431 9.48184 7.18458 9.50723V11.0723C7.18568 11.1231 7.20635 11.1715 7.24226 11.2074C7.27818 11.2433 7.32657 11.2639 7.37735 11.265L8.94237 11.265Z" fill="black"/>
<path d="M12.623 11.265C12.6484 11.2653 12.6736 11.2605 12.6971 11.2509C12.7206 11.2413 12.742 11.2272 12.76 11.2092C12.7779 11.1912 12.7921 11.1699 12.8017 11.1464C12.8113 11.1229 12.8161 11.0977 12.8158 11.0723V9.50723C12.8161 9.48184 12.8113 9.45665 12.8017 9.43314C12.7921 9.40963 12.7779 9.38826 12.76 9.37031C12.742 9.35235 12.7206 9.33816 12.6971 9.32858C12.6736 9.31899 12.6484 9.31419 12.623 9.31446H11.058C11.0326 9.31419 11.0074 9.31899 10.9839 9.32858C10.9604 9.33816 10.939 9.35235 10.9211 9.37031C10.9031 9.38826 10.8889 9.40963 10.8794 9.43314C10.8698 9.45665 10.865 9.48184 10.8652 9.50723V11.0723C10.8663 11.1231 10.887 11.1714 10.9229 11.2074C10.9588 11.2433 11.0072 11.2639 11.058 11.265H12.623Z" fill="black"/>
<path d="M8.94237 14.455C8.96776 14.4553 8.99295 14.4505 9.01646 14.4409C9.03997 14.4313 9.06134 14.4171 9.07929 14.3991C9.09725 14.3812 9.11144 14.3598 9.12103 14.3363C9.13062 14.3128 9.13541 14.2876 9.13514 14.2622V12.6972C9.13541 12.6718 9.13062 12.6466 9.12103 12.6231C9.11144 12.5996 9.09725 12.5782 9.07929 12.5603C9.06134 12.5423 9.03997 12.5281 9.01646 12.5185C8.99295 12.5089 8.96776 12.5041 8.94237 12.5044H7.37735C7.35196 12.5041 7.32677 12.5089 7.30326 12.5185C7.27974 12.5281 7.25838 12.5423 7.24043 12.5603C7.22247 12.5782 7.20828 12.5996 7.19869 12.6231C7.1891 12.6466 7.18431 12.6718 7.18458 12.6972V14.2622C7.18568 14.313 7.20635 14.3614 7.24226 14.3973C7.27818 14.4332 7.32657 14.4539 7.37735 14.455H8.94237Z" fill="black"/>
<path d="M12.623 14.455C12.6484 14.4553 12.6736 14.4505 12.6971 14.4409C12.7206 14.4313 12.742 14.4171 12.76 14.3991C12.7779 14.3812 12.7921 14.3598 12.8017 14.3363C12.8113 14.3128 12.8161 14.2876 12.8158 14.2622V12.6972C12.8161 12.6718 12.8113 12.6466 12.8017 12.6231C12.7921 12.5996 12.7779 12.5782 12.76 12.5603C12.742 12.5423 12.7206 12.5281 12.6971 12.5185C12.6736 12.5089 12.6484 12.5041 12.623 12.5044H11.058C11.0326 12.5041 11.0074 12.5089 10.9839 12.5185C10.9604 12.5281 10.939 12.5423 10.9211 12.5603C10.9031 12.5782 10.8889 12.5996 10.8794 12.6231C10.8698 12.6466 10.865 12.6718 10.8652 12.6972V14.2622C10.8663 14.313 10.887 14.3614 10.9229 14.3973C10.9588 14.4332 11.0072 14.4539 11.058 14.455H12.623Z" fill="black"/>
<path d="M14.7386 12.5044H16.3037C16.3548 12.5044 16.4038 12.5247 16.44 12.5609C16.4761 12.597 16.4964 12.646 16.4964 12.6972V14.2622C16.4964 14.3133 16.4761 14.3624 16.44 14.3985C16.4038 14.4347 16.3548 14.455 16.3037 14.455H14.7387C14.6875 14.455 14.6385 14.4347 14.6024 14.3985C14.5662 14.3624 14.5459 14.3133 14.5459 14.2622V12.6971C14.5459 12.646 14.5662 12.597 14.6023 12.5608C14.6385 12.5247 14.6875 12.5044 14.7386 12.5044Z" fill="black"/>
<path d="M5.26074 12.5044H3.6957C3.58924 12.5044 3.50293 12.5907 3.50293 12.6972V14.2622C3.50293 14.3687 3.58924 14.455 3.6957 14.455H5.26074C5.3672 14.455 5.45351 14.3687 5.45351 14.2622V12.6972C5.45351 12.5907 5.3672 12.5044 5.26074 12.5044Z" fill="black"/>
<path d="M8.94237 17.64C8.96776 17.6403 8.99295 17.6355 9.01646 17.6259C9.03998 17.6163 9.06134 17.6021 9.07929 17.5842C9.09725 17.5662 9.11144 17.5449 9.12103 17.5213C9.13062 17.4978 9.13542 17.4726 9.13514 17.4472V15.8822C9.13541 15.8568 9.13061 15.8316 9.12102 15.8081C9.11143 15.7846 9.09724 15.7633 9.07929 15.7453C9.06133 15.7273 9.03997 15.7132 9.01646 15.7036C8.99295 15.694 8.96776 15.6892 8.94237 15.6895H7.37735C7.35196 15.6892 7.32677 15.694 7.30326 15.7036C7.27975 15.7132 7.25839 15.7273 7.24043 15.7453C7.22248 15.7633 7.20829 15.7846 7.1987 15.8081C7.18911 15.8316 7.18431 15.8568 7.18458 15.8822V17.4472C7.18568 17.498 7.20635 17.5464 7.24226 17.5823C7.27818 17.6183 7.32657 17.6389 7.37735 17.64H8.94237Z" fill="black"/>
<path d="M5.26072 17.64C5.28612 17.6403 5.31131 17.6355 5.33482 17.6259C5.35833 17.6163 5.37969 17.6021 5.39765 17.5842C5.4156 17.5662 5.42979 17.5449 5.43938 17.5213C5.44897 17.4978 5.45377 17.4726 5.4535 17.4472V15.8822C5.45377 15.8568 5.44897 15.8316 5.43938 15.8081C5.42979 15.7846 5.4156 15.7633 5.39764 15.7453C5.37969 15.7273 5.35833 15.7132 5.33482 15.7036C5.3113 15.694 5.28611 15.6892 5.26072 15.6895H3.69571C3.67032 15.6892 3.64513 15.694 3.62162 15.7036C3.59811 15.7132 3.57675 15.7273 3.55879 15.7453C3.54084 15.7633 3.52665 15.7846 3.51706 15.8081C3.50747 15.8316 3.50267 15.8568 3.50294 15.8822V17.4472C3.50404 17.498 3.52471 17.5464 3.56062 17.5823C3.59654 17.6183 3.64493 17.6389 3.69571 17.64H5.26072Z" fill="black"/>
<path d="M14.7386 9.31445H16.3037C16.3548 9.31445 16.4038 9.33476 16.44 9.37091C16.4761 9.40707 16.4964 9.4561 16.4964 9.50722V11.0723C16.4964 11.1234 16.4761 11.1724 16.44 11.2086C16.4038 11.2447 16.3548 11.265 16.3037 11.265H14.7387C14.6875 11.265 14.6385 11.2447 14.6024 11.2086C14.5662 11.1724 14.5459 11.1234 14.5459 11.0723V9.50718C14.5459 9.45606 14.5662 9.40704 14.6023 9.3709C14.6385 9.33476 14.6875 9.31445 14.7386 9.31445Z" fill="black"/>
<path d="M11.058 15.6895H12.623C12.6483 15.6895 12.6734 15.6944 12.6968 15.7041C12.7202 15.7138 12.7414 15.728 12.7593 15.7459C12.7772 15.7638 12.7914 15.7851 12.8011 15.8085C12.8108 15.8318 12.8158 15.8569 12.8158 15.8822V17.4472C12.8158 17.4984 12.7955 17.5474 12.7593 17.5835C12.7232 17.6197 12.6741 17.64 12.623 17.64H11.058C11.0327 17.64 11.0076 17.635 10.9842 17.6253C10.9608 17.6157 10.9396 17.6015 10.9217 17.5836C10.9038 17.5657 10.8896 17.5444 10.8799 17.521C10.8702 17.4976 10.8652 17.4726 10.8652 17.4473V15.8822C10.8652 15.8311 10.8855 15.782 10.9217 15.7459C10.9578 15.7098 11.0068 15.6895 11.058 15.6895Z" fill="black"/>
<path d="M18.5386 3.38376H15.5875V2.00942C15.5875 1.76825 15.4917 1.53696 15.3211 1.36643C15.1506 1.1959 14.9193 1.1001 14.6781 1.1001C14.437 1.1001 14.2057 1.1959 14.0351 1.36643C13.8646 1.53696 13.7688 1.76825 13.7688 2.00942V3.38376H6.23108V2.00942C6.23108 1.76825 6.13527 1.53696 5.96474 1.36643C5.79421 1.1959 5.56292 1.1001 5.32175 1.1001C5.08059 1.1001 4.8493 1.1959 4.67876 1.36643C4.50823 1.53696 4.41243 1.76825 4.41243 2.00942V3.38376H1.4613C1.23278 3.38382 1.01364 3.47462 0.852057 3.63621C0.690472 3.79779 0.599668 4.01693 0.599609 4.24545V6.24259H19.4003V4.24545C19.4002 4.01693 19.3094 3.79779 19.1478 3.63621C18.9862 3.47462 18.7671 3.38382 18.5386 3.38376Z" fill="black"/>
<path d="M0.599609 19.038C0.599667 19.2666 0.690471 19.4857 0.852056 19.6473C1.01364 19.8089 1.23278 19.8997 1.4613 19.8997H18.5386C18.7671 19.8997 18.9862 19.8089 19.1478 19.6473C19.3094 19.4857 19.4002 19.2666 19.4003 19.038V7.05518H0.599609V19.038ZM1.7216 8.17717H18.2783V18.7777H1.7216L1.7216 8.17717Z" fill="black"/>
</svg>
