<svg width="545" height="544" viewBox="0 0 545 544" fill="none" xmlns="http://www.w3.org/2000/svg">
<g clip-path="url(#clip0_1188_9847)">
<path opacity="0.2" d="M309.761 1.08992C172.759 18.072 63.6256 183.475 48.7862 230.195C32.4229 281.6 6.11572 316.081 63.7017 406.384C85.8369 441.075 114.144 469.493 177.997 485.71C237.05 500.665 331.763 460.543 378.548 422.027C404.279 400.622 422.713 371.686 431.277 339.259C437.944 313.862 433.353 285.712 441.563 260.965C450.116 235.244 452.383 237.443 469.585 218.625C489.453 196.862 511.931 155.152 497.606 109.465C478.024 46.9874 384.282 -8.22344 309.761 1.08992Z" fill="#E5E5E5"/>
<path d="M71.3234 53.762L197.393 78.8682L181.732 158.123L55.6633 133.016L71.3234 53.762Z" fill="#FED136"/>
<path d="M121.173 105.985L197.408 78.9247L71.321 53.8149L121.173 105.985Z" fill="#EFEFEF"/>
<path d="M184.862 1.06749L232.26 12.2544L225.284 42.0406L177.887 30.8537L184.862 1.06749Z" fill="#FED136"/>
<path d="M203.026 21.438L232.248 12.2202L184.853 1.03271L203.026 21.438Z" fill="#EFEFEF"/>
<path d="M358.679 86.7846C337.725 32.1857 257.565 35.1499 234.592 86.4977C227.601 102.103 226.21 120.71 214.838 133.447C199.598 150.506 172.529 150.066 150.965 142.531C129.402 134.996 109.819 121.858 87.4552 117.326C48.347 109.37 15.9251 143.353 4.9718 178.254C-7.0864 216.636 3.58112 260.354 28.688 291.717C53.795 323.08 91.9317 342.567 131.554 349.089C175.787 356.394 223.886 347.387 258.346 318.605C277.382 302.554 290.992 280.974 297.302 256.835C302.198 237.864 298.845 216.885 304.922 198.373C311.208 179.249 330.943 171.446 343.611 157.39C358.241 141.135 366.108 118.702 361.727 96.9203C360.991 93.4632 359.971 90.073 358.679 86.7846Z" fill="black"/>
<path d="M359.936 215.298L334.067 201.146H286.882L236.153 218.434L308.064 336.104L359.936 217.746" fill="#FED136"/>
<path d="M307.932 230.119C307.928 230.642 308.08 231.155 308.367 231.592C308.654 232.029 309.065 232.37 309.546 232.572C310.027 232.774 310.557 232.828 311.069 232.727C311.581 232.626 312.051 232.374 312.42 232.004C312.788 231.634 313.039 231.162 313.14 230.648C313.241 230.134 313.187 229.602 312.986 229.119C312.784 228.636 312.444 228.224 312.009 227.935C311.574 227.647 311.063 227.495 310.542 227.499C309.85 227.499 309.186 227.775 308.696 228.266C308.207 228.757 307.932 229.424 307.932 230.119Z" fill="black"/>
<path d="M307.932 251.958C307.928 252.482 308.08 252.994 308.367 253.431C308.654 253.868 309.065 254.209 309.546 254.412C310.027 254.614 310.557 254.668 311.069 254.566C311.581 254.465 312.051 254.213 312.42 253.843C312.788 253.473 313.039 253.001 313.14 252.487C313.241 251.973 313.187 251.441 312.986 250.958C312.784 250.475 312.444 250.063 312.009 249.775C311.574 249.486 311.063 249.334 310.542 249.338C309.85 249.338 309.186 249.614 308.696 250.105C308.207 250.597 307.932 251.263 307.932 251.958Z" fill="black"/>
<path d="M307.932 273.817C307.932 274.34 308.087 274.851 308.376 275.285C308.666 275.719 309.078 276.058 309.559 276.257C310.041 276.456 310.57 276.507 311.081 276.404C311.591 276.3 312.059 276.047 312.426 275.676C312.793 275.305 313.042 274.833 313.141 274.32C313.241 273.807 313.186 273.275 312.984 272.794C312.782 272.312 312.442 271.901 312.007 271.613C311.572 271.326 311.062 271.174 310.542 271.178C310.197 271.178 309.856 271.246 309.539 271.379C309.221 271.512 308.932 271.707 308.689 271.952C308.447 272.197 308.255 272.488 308.125 272.808C307.995 273.128 307.929 273.471 307.932 273.817Z" fill="black"/>
<path d="M332.372 148.861L333.648 203.804C318.504 204.76 328.029 203.077 310.789 204.205C299.017 204.99 295.264 203.135 283.396 203.211L279.929 132.051L332.372 148.861Z" fill="white"/>
<mask id="mask0_1188_9847" style="mask-type:luminance" maskUnits="userSpaceOnUse" x="279" y="132" width="55" height="73">
<path d="M332.372 148.861L333.648 203.804C318.504 204.76 328.029 203.077 310.789 204.205C299.017 204.99 295.264 203.135 283.396 203.211L279.929 132.051L332.372 148.861Z" fill="white"/>
</mask>
<g mask="url(#mask0_1188_9847)">
<g style="mix-blend-mode:multiply">
<path d="M284.215 135.149C284.215 168.444 308.37 195.427 338.144 195.427C367.918 195.427 392.072 168.444 392.072 135.149C392.072 101.854 367.937 74.8892 338.144 74.8892C308.351 74.8892 284.215 101.873 284.215 135.149Z" fill="#FFD2D7"/>
</g>
</g>
<path d="M344.906 130.1C347.535 158.327 333.038 177.91 314.427 176.552C300.807 175.558 273.719 163.166 269.014 127.863C265.204 99.7697 275.224 81.602 305.055 79.1541C340.62 76.2473 341.744 96.7099 344.906 130.1Z" fill="white"/>
<g style="mix-blend-mode:multiply">
<path d="M321.172 136.411L309.742 115.336L307.761 139.127L321.172 136.411Z" fill="#FFA0AA"/>
</g>
<path d="M293.321 123.847C293.462 124.374 293.756 124.848 294.166 125.207C294.576 125.566 295.083 125.794 295.622 125.863C296.162 125.933 296.71 125.839 297.196 125.595C297.683 125.351 298.086 124.967 298.355 124.492C298.623 124.017 298.746 123.473 298.705 122.929C298.665 122.384 298.465 121.864 298.129 121.434C297.794 121.004 297.339 120.684 296.822 120.514C296.305 120.345 295.749 120.333 295.226 120.481C294.88 120.576 294.557 120.739 294.274 120.96C293.992 121.18 293.755 121.455 293.578 121.767C293.401 122.08 293.287 122.425 293.243 122.782C293.199 123.138 293.225 123.5 293.321 123.847Z" fill="#1A3758"/>
<path d="M322.696 118.416C322.902 119.106 323.369 119.689 323.996 120.04C324.623 120.391 325.362 120.484 326.056 120.297C326.75 120.11 327.344 119.66 327.712 119.041C328.081 118.422 328.195 117.683 328.03 116.981C327.823 116.291 327.357 115.708 326.729 115.357C326.102 115.005 325.363 114.913 324.669 115.1C323.976 115.286 323.381 115.737 323.013 116.356C322.645 116.975 322.531 117.714 322.696 118.416Z" fill="#1A3758"/>
<g style="mix-blend-mode:multiply">
<path d="M314.179 147.293C318.699 146.693 323.02 145.057 326.809 142.512C326.999 142.937 327.128 143.388 327.19 143.85C328.276 151.5 318.351 160.01 309.169 156.606C305.558 154.835 302.598 151.964 300.711 148.402C300.485 147.749 300.363 147.065 300.349 146.375C304.837 147.689 309.558 148.003 314.179 147.293Z" fill="#FFD2D7"/>
</g>
<path d="M318.333 110.957L316.009 109.752C322.657 102.523 332.372 107.132 332.791 107.343L331.096 109.255C329.049 108.197 326.73 107.794 324.448 108.098C322.167 108.402 320.033 109.4 318.333 110.957Z" fill="#1A3758"/>
<path d="M285.72 115.126L283.224 113.807C290.387 106.042 300.826 110.995 301.283 111.225L299.378 113.137C297.17 112.037 294.68 111.637 292.24 111.993C289.8 112.348 287.526 113.441 285.72 115.126Z" fill="#1A3758"/>
<g style="mix-blend-mode:multiply" opacity="0.7">
<path d="M284.196 141.67C284.27 142.996 284.733 144.269 285.528 145.331C286.323 146.392 287.413 147.192 288.661 147.631C289.909 148.07 291.259 148.128 292.539 147.797C293.82 147.466 294.974 146.761 295.856 145.772C296.737 144.783 297.307 143.553 297.492 142.239C297.678 140.924 297.471 139.584 296.898 138.388C296.325 137.191 295.411 136.192 294.273 135.517C293.134 134.842 291.822 134.521 290.502 134.594C288.734 134.703 287.081 135.507 285.901 136.831C284.72 138.156 284.108 139.895 284.196 141.67Z" fill="#FFA0AA"/>
</g>
<g style="mix-blend-mode:multiply" opacity="0.7">
<path d="M327.4 134.958C327.473 136.284 327.938 137.559 328.733 138.62C329.529 139.681 330.62 140.482 331.869 140.92C333.118 141.358 334.469 141.414 335.75 141.082C337.031 140.749 338.185 140.042 339.065 139.051C339.946 138.06 340.514 136.828 340.697 135.513C340.881 134.197 340.671 132.857 340.095 131.661C339.519 130.465 338.603 129.468 337.462 128.795C336.321 128.122 335.007 127.805 333.686 127.882C332.81 127.931 331.952 128.153 331.162 128.535C330.371 128.917 329.664 129.453 329.08 130.11C328.496 130.767 328.047 131.534 327.758 132.366C327.47 133.198 327.348 134.079 327.4 134.958Z" fill="#FFA0AA"/>
</g>
<path d="M342.545 202.81L333.211 228.837L310.847 204.11L333.973 195.772L342.545 202.81Z" fill="#EDF7FF"/>
<path d="M275.662 202.504L285.491 233.025L310.846 204.11L283.072 195.772L275.662 202.504Z" fill="#EDF7FF"/>
<path d="M258.557 121.456L265.567 116.867C264.633 93.3442 263.09 74.335 278.311 65.7293C292.807 57.5442 301.989 57.0661 323.4 63.8169L329.115 66.1309C320.965 60.9134 311.545 58.0421 301.881 57.8296C292.217 57.6172 282.68 60.0718 274.31 64.9261C258.271 74.1056 257.585 97.0352 258.557 121.456Z" fill="#EDF7FF"/>
<path d="M304.16 161.368C297.983 163.551 291.196 163.19 285.284 160.362C279.373 157.534 274.817 152.471 272.615 146.279L274.519 145.61C276.545 151.294 280.73 155.942 286.16 158.537C291.589 161.131 297.822 161.462 303.493 159.456L304.16 161.368Z" fill="#1A3758"/>
<path d="M307.855 158.193C308.106 158.907 308.14 159.679 307.954 160.412C307.768 161.145 307.37 161.807 306.809 162.313C306.249 162.818 305.551 163.146 304.805 163.254C304.059 163.361 303.298 163.245 302.618 162.918C301.938 162.592 301.37 162.07 300.986 161.419C300.601 160.768 300.418 160.018 300.458 159.262C300.499 158.507 300.761 157.78 301.213 157.174C301.665 156.569 302.286 156.112 302.997 155.86C303.949 155.524 304.996 155.58 305.907 156.018C306.817 156.455 307.518 157.238 307.855 158.193Z" fill="#1A3758"/>
<path d="M264.709 117.001L265.567 116.867L272.443 148.708L271.605 148.957C267.415 149.795 263.065 148.946 259.492 146.594C255.919 144.242 253.41 140.575 252.505 136.383C251.601 132.191 252.373 127.81 254.656 124.184C256.939 120.558 260.549 117.979 264.709 117.001Z" fill="white"/>
<path d="M267.261 147.809C267.489 148.858 268.123 149.774 269.023 150.355C269.923 150.936 271.016 151.134 272.062 150.907C273.102 150.678 274.009 150.044 274.585 149.144C275.16 148.244 275.355 147.152 275.129 146.107L269.09 118.129C268.979 117.61 268.768 117.118 268.467 116.681C268.167 116.244 267.784 115.872 267.339 115.584C266.895 115.296 266.399 115.099 265.879 115.004C265.359 114.909 264.825 114.918 264.309 115.03C263.792 115.142 263.302 115.354 262.867 115.656C262.432 115.957 262.06 116.342 261.774 116.788C261.487 117.234 261.291 117.732 261.196 118.254C261.102 118.776 261.111 119.312 261.223 119.831L267.261 147.809Z" fill="#EDF7FF"/>
<path d="M332.22 47.5232C338.849 51.654 347.459 58.1562 355.593 54.0828C361.594 51.0803 368.832 45.477 371.118 55.7656C372.547 62.153 369.88 69.8982 366.966 75.5398C358.87 91.2214 340.83 99.5977 323.762 98.0105C307.132 96.4805 288.73 85.8476 286.94 67.6416C286.172 60.8338 288.033 53.9895 292.14 48.5177C301.741 36.3931 320.79 40.4091 332.22 47.5232Z" fill="black"/>
<path d="M205.065 501.354C205.065 501.354 219.333 455.839 222.952 438.914C226.571 421.989 232.972 373.434 229.81 352.531C226.648 331.629 217.866 221.915 217.866 221.915L255.126 207.4C271.394 201.05 274.557 199.195 274.557 199.195C274.557 199.195 302.997 284.125 306.674 304.128C310.35 324.132 311.417 379.19 309.836 404.032C308.255 428.874 309.836 501.354 309.836 501.354H205.065Z" fill="#222528"/>
<path d="M412.684 503.075C412.684 503.075 398.397 457.56 394.777 440.635C391.158 423.71 387.672 374.619 390.815 353.717C393.958 332.814 399.882 223.674 399.882 223.674L362.603 209.178C346.335 202.829 343.173 200.974 343.173 200.974C343.173 200.974 314.732 285.827 311.056 305.907C307.379 325.987 306.312 380.968 307.894 405.81C309.475 430.652 307.894 503.132 307.894 503.132L412.684 503.075Z" fill="#222528"/>
<path d="M224.42 219.352C224.42 219.352 197.008 210.153 191.751 245.035C187.941 270.623 173.501 384.64 177.54 399.385C181.045 412.255 188.208 421.473 209.276 423.06C230.345 424.647 334.125 402.444 334.125 402.444L327.363 366.893C327.363 366.893 236.021 368.538 232.326 369.073C228.63 369.609 236.326 348.419 236.326 348.419L224.42 219.352Z" fill="#686B6E"/>
<path d="M275.625 414.167C275.625 414.167 294.179 438.646 303.379 442.069C322.791 449.279 369.614 436.963 385.653 433.177C406.798 428.185 423.58 430.021 437.086 408.775C450.097 388.369 441.449 355.361 440.401 335.759C439.353 316.157 432.553 259.13 429.333 245.532C427.276 236.735 417.446 214.303 396.949 222.584C384.453 227.594 383.043 343.332 383.043 343.332C383.043 343.332 385.806 361.959 387.311 372.018C388.568 380.395 378.834 381.485 374.09 384.124C369.347 386.763 275.625 414.167 275.625 414.167Z" fill="#5D5E5E"/>
<path d="M328.409 372.401C328.409 372.401 340.562 368.71 349.973 371.961C359.383 375.212 368.736 385.348 368.736 385.348L331.514 397.415L328.409 372.401Z" fill="white"/>
<path d="M241.298 368.155C241.298 368.155 227.259 371.005 226.897 365.248C226.535 359.492 241.641 344.901 247.508 349.203C253.375 353.506 271.758 367.907 271.758 367.907L241.298 368.155Z" fill="white"/>
<path d="M310.18 350.274L270.348 255.496L275.624 248.631L262.461 243.869L249.07 209.771L274.558 199.214L310.18 309.426V350.274Z" fill="#3C3D3F"/>
<path d="M307.57 351.996L347.383 257.217L342.125 250.352L355.288 245.59L368.68 211.473L343.173 200.917L307.57 311.128V351.996Z" fill="#3C3D3F"/>
<path d="M429.943 140.791C476.633 166.627 521.246 209.178 534.981 262.438C543.553 295.599 531.609 361.538 522.713 379.744C501.759 422.964 478.023 461.098 466.803 471.195C439.182 496.056 404.55 520.611 367.899 527.496C332.83 534.075 290.236 508.123 261.814 487.336C249.108 478.041 236.421 468.499 223.201 459.931C210.61 451.784 196.723 445.665 183.94 437.805C164.377 425.776 135.784 419.522 120.068 402.425C113.211 394.948 109.191 381.504 115.801 371.655C126.755 355.304 143.308 379.075 143.27 384.449C143.118 400.035 103.172 417.61 90.9229 412.427C66.8065 402.215 52.8244 377.889 77.5884 323.769" stroke="#8296BE" stroke-width="0.5" stroke-miterlimit="10" stroke-dasharray="6 6"/>
<path d="M436.672 124.149L519.4 179.811L484.679 231.822L401.95 176.16L436.672 124.149Z" fill="#EEF4FF"/>
<path d="M455.774 178.541L519.398 179.861L436.667 124.191L455.774 178.541Z" fill="#FED136"/>
<path d="M112.992 285.233L121.027 347.343L22.2105 360.227L14.1754 298.118L112.992 285.233Z" fill="#EEF4FF"/>
<path d="M64.3095 326.312L113.057 285.196L14.248 298.066L64.3095 326.312Z" fill="#FED136"/>
<path d="M482.412 360.942L544.969 367.162L538.764 429.963L476.208 423.743L482.412 360.942Z" fill="#FED136"/>
<path d="M503.893 400.322C504.515 400.221 505.153 400.329 505.708 400.63C506.263 400.931 506.703 401.407 506.96 401.986C507.207 402.674 507.169 403.573 507.798 403.898C508.042 403.994 508.305 404.032 508.566 404.009C508.827 403.985 509.079 403.902 509.303 403.764C511.665 402.731 517.037 394.202 516.922 391.62C516.947 391.359 516.911 391.096 516.819 390.851C516.726 390.606 516.579 390.385 516.389 390.205C515.798 389.765 514.998 390.205 514.274 390.205C513.643 390.211 513.027 390.011 512.518 389.635C512.01 389.259 511.637 388.728 511.455 388.121C511.098 386.871 511.098 385.546 511.455 384.296C511.728 382.869 512.387 381.546 513.36 380.471C516.427 377.603 520.18 381.179 521.532 383.971C522.375 385.8 522.823 387.788 522.847 389.804C523.037 394.049 514.065 408.296 510.141 409.96C508.341 410.768 506.397 411.197 504.426 411.222C501.321 411.222 496.501 409.31 497.759 405.332C498.307 403.95 499.239 402.755 500.445 401.89C501.42 401.045 502.617 400.5 503.893 400.322Z" fill="white"/>
<path d="M444.322 439.706L482.625 489.747L432.779 528.2L394.476 478.159L444.322 439.706Z" fill="#FED136"/>
<path d="M427.314 472.477L453.773 475.097L439.715 482L427.314 472.477Z" fill="white"/>
<path d="M439.334 485.978L456.783 477.41L454.954 495.846L422.094 492.576L423.923 474.14L439.334 485.978Z" fill="white"/>
<path d="M295.146 455.6L333.449 505.641L283.604 544.094L245.301 494.053L295.146 455.6Z" fill="#F1DC90"/>
<path d="M305.417 500.742L297.283 499.939C297.473 497.565 297.325 495.176 296.845 492.844C298.926 492.496 300.955 491.885 302.883 491.027C304.753 493.905 305.642 497.314 305.417 500.742Z" fill="white"/>
<path d="M297.169 501.144L305.303 501.947C304.848 505.351 303.312 508.516 300.921 510.973C299.194 509.763 297.326 508.767 295.359 508.009C296.281 505.818 296.891 503.506 297.169 501.144Z" fill="white"/>
<path d="M289.93 500.417L295.969 501.028C295.689 503.286 295.099 505.493 294.216 507.588C292.627 507.076 290.995 506.711 289.34 506.498L289.93 500.417Z" fill="white"/>
<path d="M290.064 499.212L290.655 493.13C292.318 493.264 293.99 493.226 295.645 493.016C296.107 495.253 296.254 497.545 296.084 499.824L290.064 499.212Z" fill="white"/>
<path d="M289.225 507.722C290.742 507.915 292.24 508.241 293.701 508.697C292.39 511.383 290.594 513.801 288.405 515.831L289.225 507.722Z" fill="white"/>
<path d="M284.596 491.926C286.177 492.44 287.804 492.805 289.453 493.016L288.863 499.097L282.843 498.504C283.112 496.239 283.702 494.024 284.596 491.926Z" fill="white"/>
<path d="M289.569 491.811C288.055 491.623 286.562 491.29 285.112 490.816C286.414 488.135 288.196 485.717 290.369 483.683L289.569 491.811Z" fill="white"/>
<path d="M290.767 491.926L291.587 483.798C293.34 486.216 294.632 488.939 295.396 491.83C293.86 492.007 292.31 492.04 290.767 491.926Z" fill="white"/>
<path d="M296.579 491.658C295.892 488.981 294.773 486.436 293.265 484.123C296.821 485.003 299.968 487.082 302.18 490.013C300.382 490.775 298.503 491.327 296.579 491.658Z" fill="white"/>
<path d="M294.863 509.118C296.688 509.808 298.422 510.72 300.025 511.834C297.284 514.27 293.796 515.693 290.139 515.869C292.068 513.891 293.664 511.611 294.863 509.118Z" fill="white"/>
<path d="M288.006 507.588L287.206 515.716C285.446 513.301 284.154 510.577 283.396 507.684C284.926 507.505 286.47 507.473 288.006 507.588Z" fill="white"/>
<path d="M282.234 507.875C282.916 510.556 284.029 513.107 285.529 515.429C281.977 514.539 278.833 512.462 276.614 509.539C278.412 508.753 280.299 508.194 282.234 507.875Z" fill="white"/>
<path d="M283.949 490.396C282.118 489.706 280.378 488.794 278.768 487.68C281.505 485.236 284.995 483.812 288.654 483.645C286.74 485.631 285.151 487.909 283.949 490.396Z" fill="white"/>
<path d="M288.73 500.225L288.14 506.307C286.483 506.173 284.817 506.211 283.168 506.421C282.694 504.192 282.54 501.906 282.711 499.632L288.73 500.225Z" fill="white"/>
<path d="M273.376 498.772L281.491 499.575C281.325 501.951 281.485 504.338 281.967 506.67C279.874 507.021 277.833 507.631 275.89 508.487C274.035 505.604 273.153 502.197 273.376 498.772Z" fill="white"/>
<path d="M281.624 498.313L273.49 497.51C273.941 494.105 275.478 490.938 277.872 488.483C279.601 489.708 281.476 490.71 283.453 491.467C282.534 493.654 281.919 495.958 281.624 498.313Z" fill="white"/>
</g>
<defs>
<clipPath id="clip0_1188_9847">
<rect width="545" height="544" fill="white" transform="matrix(-1 0 0 1 545 0)"/>
</clipPath>
</defs>
</svg>
