<svg width="152" height="136" viewBox="0 0 152 136" fill="none" xmlns="http://www.w3.org/2000/svg">
<path d="M7.36636 90.0298C-9.77378 59.0864 5.93809 39.8894 24.5065 37.0249C43.0749 34.1605 87.3537 18.8789 105.922 6.94111C126.49 -7.95755 136.393 4.5535 138.774 12.6714C167.341 72.266 143.059 110.086 127.347 121.546C73.0701 153.063 28.7915 128.709 7.36636 90.0298Z" fill="#FFDD66"/>
<path d="M104.444 24.7959C104.122 24.3129 103.582 24.0254 103.007 24.0254H65.1029C64.3899 24.0254 63.7574 24.4624 63.4929 25.1294L40.8379 83.3194C40.6309 83.8484 40.6999 84.4464 41.0219 84.9179C41.3439 85.3894 41.8729 85.6654 42.4479 85.6654H65.2984L54.8449 128.848C54.6494 129.63 55.0289 130.435 55.7534 130.803C55.9949 130.929 56.2594 130.987 56.5239 130.987C57.0299 130.987 57.5244 130.768 57.8579 130.354L113.897 61.6764C114.323 61.1589 114.403 60.4459 114.116 59.8479C113.828 59.2499 113.219 58.8589 112.552 58.8589H91.2769L104.617 26.4059C104.835 25.8769 104.766 25.2674 104.444 24.7959ZM87.1139 59.9169C86.8954 60.4459 86.9529 61.0554 87.2749 61.5384C87.5969 62.0214 88.1374 62.3089 88.7124 62.3089H108.929L59.9739 122.281L69.1624 84.3544C69.2889 83.8369 69.1624 83.2964 68.8404 82.8824C68.5184 82.4684 68.0124 82.2269 67.4834 82.2269H44.9664L66.2759 27.4754H100.442L87.1139 59.9169Z" fill="black"/>
<path d="M60.2731 61.9395C60.4571 61.997 60.6411 62.0315 60.8251 62.0315C61.5496 62.0315 62.2166 61.5715 62.4581 60.8585L70.8646 35.823H82.9856C83.9401 35.823 84.7106 35.0525 84.7106 34.098C84.7106 33.1435 83.9401 32.373 82.9856 32.373H69.6341C68.8981 32.373 68.2311 32.8445 68.0011 33.546L59.1921 59.7545C58.8816 60.663 59.3761 61.6405 60.2731 61.9395Z" fill="black"/>
</svg>
