<svg width="54" height="54" viewBox="0 0 54 54" fill="none" xmlns="http://www.w3.org/2000/svg">
<path d="M2.57864 31.4226C-3.42136 20.6226 2.07866 13.9224 8.57864 12.9226C15.0786 11.9229 30.5786 6.58921 37.0786 2.42262C44.2786 -2.77738 47.7453 1.58928 48.5786 4.42262C58.5786 25.2226 50.0786 38.4226 44.5786 42.4226C25.5786 53.4226 10.0786 44.9226 2.57864 31.4226Z" fill="#FFDD66"/>
<path d="M36.372 8.66839C36.26 8.50039 36.072 8.40039 35.872 8.40039H22.688C22.44 8.40039 22.22 8.55239 22.128 8.78439L14.248 29.0244C14.176 29.2084 14.2 29.4164 14.312 29.5804C14.424 29.7444 14.608 29.8404 14.808 29.8404H22.756L19.12 44.8604C19.052 45.1324 19.184 45.4124 19.436 45.5404C19.52 45.5844 19.612 45.6044 19.704 45.6044C19.88 45.6044 20.052 45.5284 20.168 45.3844L39.66 21.4964C39.808 21.3164 39.836 21.0684 39.736 20.8604C39.636 20.6524 39.424 20.5164 39.192 20.5164H31.792L36.432 9.22839C36.508 9.04439 36.484 8.83239 36.372 8.66839ZM30.344 20.8844C30.268 21.0684 30.288 21.2804 30.4 21.4484C30.512 21.6164 30.7 21.7164 30.9 21.7164H37.932L20.904 42.5764L24.1 29.3844C24.144 29.2044 24.1 29.0164 23.988 28.8724C23.876 28.7284 23.7 28.6444 23.516 28.6444H15.684L23.096 9.60039H34.98L30.344 20.8844Z" fill="black"/>
<path d="M21.0079 21.5887C21.0719 21.6087 21.1359 21.6207 21.1999 21.6207C21.4519 21.6207 21.6839 21.4607 21.7679 21.2127L24.6919 12.5047H28.9079C29.2399 12.5047 29.5079 12.2367 29.5079 11.9047C29.5079 11.5727 29.2399 11.3047 28.9079 11.3047H24.2639C24.0079 11.3047 23.7759 11.4687 23.6959 11.7127L20.6319 20.8287C20.5239 21.1447 20.6959 21.4847 21.0079 21.5887Z" fill="black"/>
</svg>
