<svg width="80" height="80" viewBox="0 0 80 80" fill="none" xmlns="http://www.w3.org/2000/svg">
<path d="M5.00001 38.3333C5.30194 38.3335 5.59817 38.251 5.85667 38.095L30.105 23.545L47.6433 31.5167C47.905 31.6358 48.1932 31.6853 48.4797 31.6602C48.7662 31.635 49.0413 31.5362 49.2783 31.3733L72.56 15.3333L71.7267 19.4733C71.6398 19.9067 71.7287 20.3568 71.9737 20.7248C72.2188 21.0927 72.6 21.3482 73.0333 21.435C73.1432 21.4563 73.2548 21.4668 73.3667 21.4667C73.7507 21.4663 74.1227 21.3335 74.42 21.0905C74.7172 20.8477 74.9215 20.5095 74.9983 20.1333L76.6317 11.9666C76.7202 11.5337 76.6332 11.0833 76.3897 10.7145C76.1462 10.3457 75.7663 10.0887 75.3333 9.99998L67.1667 8.36665C66.7335 8.27825 66.2828 8.36555 65.9142 8.60933C65.5453 8.85313 65.2883 9.23347 65.2 9.66665C65.1117 10.0998 65.1988 10.5504 65.4427 10.9192C65.6865 11.288 66.0668 11.5449 66.5 11.6333L70.8083 12.4966L48.1667 28.0917L30.69 20.15C30.444 20.0382 30.1747 19.9877 29.905 20.0032C29.6352 20.0185 29.3733 20.0992 29.1417 20.2383L4.14167 35.2383C3.82946 35.426 3.58736 35.7108 3.45241 36.0493C3.31747 36.3877 3.29712 36.761 3.39447 37.112C3.49184 37.4632 3.70154 37.7727 3.99149 37.9932C4.28146 38.2137 4.63569 38.3332 5.00001 38.3333Z" fill="black"/>
<path d="M75 66.6667V30C75 29.116 74.6488 28.2682 74.0237 27.643C73.3985 27.0178 72.5507 26.6667 71.6667 26.6667H63.3333C62.4493 26.6667 61.6015 27.0178 60.9763 27.643C60.3512 28.2682 60 29.116 60 30V66.6667H56.6667V41.6667C56.6667 40.7827 56.3155 39.9348 55.6903 39.3097C55.0652 38.6845 54.2173 38.3333 53.3333 38.3333H45C44.116 38.3333 43.2682 38.6845 42.643 39.3097C42.0178 39.9348 41.6667 40.7827 41.6667 41.6667V66.6667H38.3333V36.6667C38.3333 35.7827 37.9822 34.9348 37.357 34.3097C36.7318 33.6845 35.884 33.3333 35 33.3333H26.6667C25.7827 33.3333 24.9348 33.6845 24.3097 34.3097C23.6845 34.9348 23.3333 35.7827 23.3333 36.6667V66.6667H20V46.6667C20 45.7827 19.6488 44.9348 19.0237 44.3097C18.3985 43.6845 17.5507 43.3333 16.6667 43.3333H8.33334C7.44929 43.3333 6.60144 43.6845 5.97633 44.3097C5.35119 44.9348 5.00001 45.7827 5.00001 46.6667V66.6667C4.55798 66.6667 4.13406 66.8423 3.82149 67.1548C3.50894 67.4673 3.33334 67.8913 3.33334 68.3333C3.33334 68.7753 3.50894 69.1993 3.82149 69.5118C4.13406 69.8243 4.55798 70 5.00001 70H75C75.442 70 75.866 69.8243 76.1785 69.5118C76.491 69.1993 76.6667 68.7753 76.6667 68.3333C76.6667 67.8913 76.491 67.4673 76.1785 67.1548C75.866 66.8423 75.442 66.6667 75 66.6667ZM63.3333 30H71.6667V66.6667H63.3333V30ZM45 41.6667H53.3333V66.6667H45V41.6667ZM26.6667 36.6667H35V66.6667H26.6667V36.6667ZM8.33334 46.6667H16.6667V66.6667H8.33334V46.6667Z" fill="black"/>
</svg>
