<svg width="14" height="14" viewBox="0 0 14 14" fill="none" xmlns="http://www.w3.org/2000/svg">
<path d="M13.0433 0.697017C11.9849 -0.361397 10.0962 -0.196838 8.8321 1.07102L1.28482 8.61455C1.21466 8.68352 1.16429 8.77006 1.13897 8.86513L0.0169716 13.0389C-0.00683887 13.1339 -0.00557587 13.2333 0.0206367 13.3276C0.0468494 13.4219 0.0971119 13.5078 0.166497 13.5768C0.235882 13.6458 0.322009 13.6956 0.416434 13.7213C0.510859 13.747 0.610341 13.7477 0.705128 13.7234L4.87521 12.6014C4.97038 12.5784 5.05719 12.5291 5.12578 12.4593L11.6146 5.96291L12.6731 4.90449C13.8175 3.81242 14.1915 1.82649 13.0433 0.697017ZM4.44137 11.543L1.35214 12.377L2.18616 9.29149L8.17013 3.30752L10.4141 5.55151L4.44137 11.543ZM12.6095 2.66425C12.5758 3.47956 11.7979 4.22008 11.2182 4.77359L8.97422 2.52961L9.63246 1.86763C10.7956 0.637177 12.789 0.951335 12.6095 2.66425Z" fill="black"/>
</svg>
