<svg width="14" height="14" viewBox="0 0 14 14" fill="none" xmlns="http://www.w3.org/2000/svg">
<path d="M13.29 0.710197C12.2115 -0.368231 10.2871 -0.20056 8.99911 1.09127L1.30912 8.77745C1.23763 8.84772 1.1863 8.93589 1.1605 9.03277L0.0172925 13.2855C-0.00696819 13.3822 -0.00568131 13.4836 0.021027 13.5796C0.0477353 13.6757 0.0989482 13.7632 0.169645 13.8335C0.240343 13.9038 0.328098 13.9545 0.424308 13.9807C0.520519 14.0069 0.621882 14.0077 0.718461 13.9829L4.96739 12.8397C5.06436 12.8162 5.15282 12.766 5.22271 12.6948L11.8343 6.07566L12.9127 4.99723C14.0788 3.88451 14.4598 1.86103 13.29 0.710197ZM4.52535 11.7612L1.37771 12.611L2.2275 9.46719L8.32462 3.37007L10.611 5.65649L4.52535 11.7612ZM12.8479 2.71462C12.8136 3.54536 12.021 4.29988 11.4303 4.86386L9.14392 2.57744L9.8146 1.90295C10.9997 0.649226 13.0308 0.969324 12.8479 2.71462Z" fill="white"/>
</svg>
