<svg width="22" height="22" viewBox="0 0 22 22" fill="none" xmlns="http://www.w3.org/2000/svg">
<path fill-rule="evenodd" clip-rule="evenodd" d="M8.86416 18.74C6.27216 18.74 3.71616 17.72 1.84416 15.848C1.40016 15.392 2.07216 14.72 2.52816 15.164C4.76016 17.408 8.06016 18.296 11.1322 17.492C11.7442 17.324 11.9842 18.26 11.3722 18.416C10.5442 18.632 9.70416 18.74 8.86416 18.74ZM12.0682 12.332C9.62016 12.332 7.22016 11.108 4.73616 8.58798C4.55616 8.40798 4.55616 8.10798 4.73616 7.91598C7.02816 5.59998 9.23616 4.37598 11.4922 4.19598C9.44016 3.03198 6.78816 3.30798 5.03616 5.05998C2.94816 7.14798 2.94816 10.532 5.03616 12.62C7.25616 14.84 10.9042 14.684 12.9202 12.284C12.6322 12.32 12.3562 12.332 12.0682 12.332ZM13.1602 4.25598C13.6162 4.32798 14.0602 4.43598 14.5162 4.59198C11.9242 1.12398 6.86016 0.763979 3.80016 3.82398C1.02816 6.59598 1.02816 11.084 3.80016 13.868C7.38816 17.444 13.4482 16.196 15.3802 11.564C15.0202 11.732 14.6602 11.876 14.2882 11.984C14.2762 12.008 12.6562 15.152 8.82816 15.152C5.36016 15.152 2.51616 12.356 2.51616 8.83998C2.51616 7.15998 3.16416 5.56398 4.36416 4.37598C6.77616 1.96398 10.7002 1.91598 13.1602 4.25598ZM16.0642 5.28798C17.1682 5.89998 18.2722 6.77598 19.4002 7.91598C19.5802 8.10798 19.5802 8.40798 19.4002 8.58798C18.4642 9.53598 17.5402 10.304 16.6162 10.892C16.4122 11.684 16.0762 12.452 15.6442 13.136L16.4842 13.976L17.2882 13.172C17.4682 12.98 17.7802 12.98 17.9602 13.172L19.1122 14.324C19.3042 14.516 19.3042 14.816 19.1122 14.996L18.7042 15.404L21.1042 17.804C21.2842 17.984 21.2842 18.284 21.1042 18.476L18.5002 21.08C18.3082 21.26 18.0082 21.26 17.8162 21.08L15.4282 18.692C15.1762 18.944 14.7682 19.508 14.3482 19.1L13.1962 17.948C13.0042 17.756 13.0042 17.456 13.1962 17.264L13.9642 16.496L13.1242 15.656C7.82016 19.004 0.76416 15.224 0.76416 8.83998C0.76416 6.69198 1.60416 4.66398 3.11616 3.13998C7.04016 -0.784021 13.6402 0.367979 16.0642 5.28798ZM5.75616 8.25198C7.92816 10.352 10.0042 11.372 12.0682 11.372C14.5162 11.372 16.6762 9.89598 18.3682 8.25198C14.3122 4.33998 10.3042 3.87198 5.75616 8.25198ZM12.0682 10.94C10.5802 10.94 9.38016 9.73998 9.38016 8.25198C9.38016 6.77598 10.5802 5.56398 12.0682 5.56398C13.5562 5.56398 14.7562 6.77598 14.7562 8.25198C14.7562 9.73998 13.5562 10.94 12.0682 10.94ZM12.0682 6.52398C11.1082 6.52398 10.3402 7.30398 10.3402 8.25198C10.3402 9.21198 11.1082 9.97998 12.0682 9.97998C13.0162 9.97998 13.7962 9.21198 13.7962 8.25198C13.7962 7.30398 13.0162 6.52398 12.0682 6.52398ZM15.0802 13.928C14.7322 14.36 14.3362 14.744 13.9162 15.092L14.6362 15.812L15.8002 14.66L15.0802 13.928ZM14.9842 16.832L14.2162 17.6L14.6842 18.08L18.1042 14.66L17.6242 14.192L14.9842 16.832ZM16.1122 18.008L18.1642 20.06L20.0842 18.14L18.0322 16.088L16.1122 18.008ZM12.9082 8.73198C12.6322 8.73198 12.4282 8.51598 12.4282 8.25198C12.4282 8.05998 12.2602 7.90398 12.0682 7.90398C11.4322 7.90398 11.4322 6.94398 12.0682 6.94398C13.3882 6.94398 13.7962 8.73198 12.9082 8.73198Z" fill="black"/>
</svg>
