<svg width="24" height="24" viewBox="0 0 24 24" fill="none" xmlns="http://www.w3.org/2000/svg">
<path fill-rule="evenodd" clip-rule="evenodd" d="M11.9933 23.5925C8.81501 23.5925 5.92197 22.1256 4.45508 19.7759C4.07477 19.1783 4.98479 18.5942 5.36509 19.2054C8.10873 23.5925 15.8778 23.5925 18.6215 19.2054C19.0018 18.5942 19.9254 19.1783 19.5451 19.7759C18.0782 22.1256 15.1851 23.5925 11.9933 23.5925ZM21.4466 5.94907H20.5366V9.73854C20.5366 10.0374 20.2921 10.2818 19.9933 10.2818H18.6079L16.9916 14.6689C16.9101 14.8862 16.7063 15.0357 16.489 15.0357H7.5111C7.2802 15.0357 7.07647 14.8862 7.00856 14.6689L5.39226 10.2818H4.00686C3.70805 10.2818 3.46356 10.0374 3.46356 9.73854V5.94907H2.55355C2.25474 5.94907 2.01025 5.70458 2.01025 5.40577V0.950764C2.01025 0.651953 2.25474 0.407471 2.55355 0.407471H21.4466C21.7454 0.407471 21.9899 0.651953 21.9899 0.950764V5.40577C21.9899 5.70458 21.7454 5.94907 21.4466 5.94907ZM3.09684 4.86248H20.9033V1.49406H17.8608V3.17827C17.8608 3.47708 17.6164 3.72156 17.3176 3.72156H6.68258C6.38377 3.72156 6.13929 3.47708 6.13929 3.17827V1.49406H3.09684V4.86248ZM19.45 9.19525V5.94907H4.55015V9.19525C9.52129 9.19525 14.4788 9.19525 19.45 9.19525ZM6.54676 10.2818L7.89141 13.9491H16.1087L17.4534 10.2818H6.54676ZM11.613 11.7351C12.1155 11.219 12.8897 11.9932 12.3872 12.4958C11.8846 12.9983 11.0968 12.2377 11.613 11.7351ZM7.22587 2.63497H16.7743V1.49406H7.22587V2.63497ZM11.9933 19.2598C10.1597 19.2598 8.50261 18.4041 7.64693 17.0458C7.26662 16.4482 8.19022 15.8642 8.57053 16.4754C9.98309 18.7301 14.017 18.7301 15.4296 16.4754C15.8099 15.8642 16.7199 16.4482 16.3396 17.0458C15.4975 18.4041 13.8269 19.2598 11.9933 19.2598ZM11.9933 21.4194C9.49412 21.4194 7.21229 20.2649 6.04421 18.4177C5.6639 17.8065 6.5875 17.236 6.96781 17.8336C9.04591 21.1613 14.9542 21.1613 17.0187 17.8336C17.399 17.236 18.3226 17.8065 17.9423 18.4177C16.7878 20.2649 14.506 21.4194 11.9933 21.4194Z" fill="white"/>
</svg>
