<svg width="24" height="24" viewBox="0 0 24 24" fill="none" xmlns="http://www.w3.org/2000/svg">
<g clip-path="url(#clip0_54_2138)">
<path fill-rule="evenodd" clip-rule="evenodd" d="M18.3759 23.6625H9.30735V19.6836C3.72563 19.6836 4.73793 20.3585 4.73793 14.6361L1.9541 13.7926L4.34426 9.81365C4.34426 9.81365 3.78187 2.08078 11.6132 0.548271C13.1738 0.238957 14.2142 0.238957 15.7327 0.674809C18.0666 1.33562 21.5393 3.20556 22.0455 8.46391C22.1439 14.2706 17.3214 16.717 18.3759 23.6625Z" stroke="white" stroke-linecap="round" stroke-linejoin="round"/>
<path fill-rule="evenodd" clip-rule="evenodd" d="M13.399 4.63965C16.0422 4.63965 18.1933 6.79079 18.1933 9.43402C18.1933 12.3303 16.239 11.8523 16.239 16.6326H10.5589C10.5589 11.8523 8.61865 12.3303 8.61865 9.43402C8.61865 6.79079 10.7557 4.63965 13.399 4.63965Z" stroke="white" stroke-linecap="round" stroke-linejoin="round"/>
<path d="M15.2688 16.6326H11.543V18.4603H15.2688V16.6326Z" stroke="white" stroke-linecap="round" stroke-linejoin="round"/>
<path d="M14.5466 18.4603H12.2461V19.8095H14.5466V18.4603Z" stroke="white" stroke-linecap="round" stroke-linejoin="round"/>
<path fill-rule="evenodd" clip-rule="evenodd" d="M14.1583 7.49376C14.3551 7.56406 14.5379 7.67654 14.6925 7.80308L15.8454 7.43752L16.3375 8.29517L15.4518 9.11064C15.4658 9.20905 15.4799 9.30747 15.4799 9.41995C15.4799 9.53243 15.4658 9.63085 15.4518 9.72926L16.3375 10.5447L15.8454 11.4024L14.6925 11.0368C14.5379 11.1634 14.3551 11.2758 14.1583 11.3461L13.8911 12.5131H12.9069L12.6539 11.3461C12.457 11.2758 12.2743 11.1634 12.1055 11.0368L10.9667 11.4024L10.4746 10.5447L11.3604 9.72926C11.3463 9.63085 11.3323 9.53243 11.3323 9.41995C11.3323 9.30747 11.3463 9.20905 11.3604 9.11064L10.4746 8.29517L10.9667 7.43752L12.1055 7.80308C12.2743 7.67654 12.457 7.56406 12.6539 7.49376L12.9069 6.31274H13.8911L14.1583 7.49376Z" stroke="white" stroke-linecap="round" stroke-linejoin="round"/>
<path d="M13.3989 10.3057C13.8881 10.3057 14.2847 9.90914 14.2847 9.41994C14.2847 8.93075 13.8881 8.53418 13.3989 8.53418C12.9098 8.53418 12.5132 8.93075 12.5132 9.41994C12.5132 9.90914 12.9098 10.3057 13.3989 10.3057Z" stroke="white" stroke-linecap="round" stroke-linejoin="round"/>
<path d="M13.3989 1.71521V3.19148" stroke="white" stroke-linecap="round" stroke-linejoin="round"/>
<path d="M17.2511 2.74158L16.52 4.02101" stroke="white" stroke-linecap="round" stroke-linejoin="round"/>
<path d="M20.0773 5.56763L18.7979 6.31279" stroke="white" stroke-linecap="round" stroke-linejoin="round"/>
<path d="M21.1037 9.41992H19.6274" stroke="white" stroke-linecap="round" stroke-linejoin="round"/>
<path d="M20.0773 13.2724L18.7979 12.5272" stroke="white" stroke-linecap="round" stroke-linejoin="round"/>
<path d="M9.54639 2.74158L10.2916 4.02101" stroke="white" stroke-linecap="round" stroke-linejoin="round"/>
<path d="M6.73438 5.56763L8.01381 6.31279" stroke="white" stroke-linecap="round" stroke-linejoin="round"/>
<path d="M5.69385 9.41992H7.17012" stroke="white" stroke-linecap="round" stroke-linejoin="round"/>
<path d="M6.73438 13.2724L8.01381 12.5272" stroke="white" stroke-linecap="round" stroke-linejoin="round"/>
</g>
<defs>
<clipPath id="clip0_54_2138">
<rect width="24" height="24" fill="white"/>
</clipPath>
</defs>
</svg>
