<svg width="24" height="24" viewBox="0 0 24 24" fill="none" xmlns="http://www.w3.org/2000/svg">
<path d="M23.25 7.875H22.5V3.75H18.375V3H23.25V7.875Z" fill="black"/>
<path d="M1.5 7.875H0.75V3H5.625V3.75H1.5V7.875Z" fill="black"/>
<path d="M23.25 21H18.375V20.25H22.5V16.125H23.25V21Z" fill="black"/>
<path d="M5.625 21H0.75V16.125H1.5V20.25H5.625V21Z" fill="black"/>
<path d="M9.375 12C9.375 12.5192 9.52894 13.0267 9.81739 13.4584C10.1058 13.89 10.5158 14.2265 10.9954 14.4252C11.4751 14.6239 12.0029 14.6759 12.5121 14.5746C13.0213 14.4733 13.489 14.2233 13.8561 13.8561C14.2233 13.489 14.4733 13.0213 14.5746 12.5121C14.6759 12.0029 14.6239 11.4751 14.4252 10.9954C14.2265 10.5158 13.89 10.1058 13.4584 9.81739C13.0267 9.52894 12.5192 9.375 12 9.375C11.304 9.37579 10.6368 9.65261 10.1447 10.1447C9.65261 10.6368 9.37579 11.304 9.375 12ZM13.875 12H13.125C13.125 11.7016 13.0065 11.4155 12.7955 11.2045C12.5845 10.9935 12.2984 10.875 12 10.875V10.125C12.4971 10.1256 12.9736 10.3233 13.3252 10.6748C13.6767 11.0263 13.8744 11.5029 13.875 12Z" fill="black"/>
<path d="M14.6343 9.89587C15.0329 10.3925 15.2821 10.9921 15.3528 11.625H17.6058C17.525 10.3959 17.0407 9.22777 16.228 8.30212L14.6343 9.89587Z" fill="black"/>
<path d="M5.62506 12C5.6254 10.4561 6.18887 8.96528 7.20981 7.80713C5.18275 8.95624 3.31486 10.3659 1.65381 12C3.31486 13.6341 5.18275 15.0438 7.20981 16.1929C6.18887 15.0347 5.6254 13.5439 5.62506 12Z" fill="black"/>
<path d="M6.39404 11.625H8.64704C8.71777 10.9921 8.96696 10.3925 9.36554 9.89587L7.77179 8.30212C6.95909 9.22777 6.47478 10.3959 6.39404 11.625Z" fill="black"/>
<path d="M11.6251 8.64716V6.39417C10.396 6.4749 9.2279 6.95921 8.30225 7.77191L9.896 9.36566C10.3926 8.96708 10.9923 8.71789 11.6251 8.64716Z" fill="black"/>
<path d="M16.7886 16.1951C18.8168 15.0458 20.6855 13.6354 22.3468 12C20.6855 10.366 18.8175 8.95639 16.7904 7.80713C17.8124 8.96535 18.3761 10.4569 18.3758 12.0015C18.3754 13.5461 17.811 15.0374 16.7886 16.1951Z" fill="black"/>
<path d="M11.9999 17.625C13.4256 17.6228 14.7972 17.0796 15.8377 16.1051C16.8783 15.1305 17.5102 13.7974 17.6058 12.375H15.3528C15.2581 13.1979 14.8641 13.9572 14.2459 14.5084C13.6276 15.0596 12.8282 15.3642 11.9999 15.3642C11.1716 15.3642 10.3722 15.0596 9.75397 14.5084C9.1357 13.9572 8.74173 13.1979 8.64704 12.375H6.39404C6.48971 13.7974 7.12162 15.1305 8.16217 16.105C9.20272 17.0795 10.5743 17.6227 11.9999 17.625ZM16.0679 12.6881L16.8074 12.8119C16.7628 13.0796 16.6956 13.343 16.6064 13.5994L15.8999 13.3522C15.9744 13.1359 16.0306 12.9138 16.0679 12.6881ZM15.6179 13.9804L16.2757 14.3404C16.1449 14.5776 15.9944 14.8034 15.8257 15.0154L15.2377 14.5504C15.3805 14.3713 15.5082 14.1807 15.6194 13.9804H15.6179ZM14.7704 15.0547L15.274 15.6101C15.0735 15.7922 14.8581 15.9573 14.6302 16.1036L14.2248 15.4729C14.4183 15.3487 14.6013 15.2088 14.7719 15.0547H14.7704ZM13.6188 15.7946L13.9139 16.4843C13.6648 16.5909 13.4071 16.6764 13.1437 16.74L12.9693 16.0125C13.1921 15.9584 13.4098 15.8855 13.6203 15.7946H13.6188ZM11.6017 16.1063C11.8303 16.1279 12.0603 16.1308 12.2894 16.1149L12.3419 16.8649C12.2297 16.8716 12.1157 16.875 11.9999 16.875C11.8417 16.875 11.6857 16.8676 11.5319 16.8529L11.6017 16.1063ZM10.2828 15.75C10.4911 15.8454 10.7069 15.9234 10.9282 15.9829L10.7339 16.7074C10.472 16.6371 10.2165 16.5449 9.97004 16.4318L10.2828 15.75ZM9.68467 15.4125L9.26242 16.0346C9.03866 15.8825 8.82791 15.7121 8.63242 15.525L9.14992 14.9827C9.31586 15.1412 9.49473 15.2856 9.68467 15.4144V15.4125ZM7.19242 12.8126L7.93192 12.6874C7.96424 12.8787 8.00996 13.0676 8.06879 13.2525L7.35367 13.4797C7.28448 13.2614 7.23059 13.0385 7.19242 12.8126ZM7.66379 14.2297L8.33092 13.8866C8.43588 14.0904 8.55768 14.2851 8.69504 14.4686L8.09504 14.9186C7.93241 14.7014 7.78818 14.4709 7.66379 14.2297Z" fill="black"/>
<path d="M12.375 8.64716C13.0078 8.71789 13.6075 8.96708 14.1041 9.36566L15.6979 7.77191C14.7722 6.95921 13.6041 6.4749 12.375 6.39417V8.64716Z" fill="black"/>
</svg>
