<svg width="24" height="24" viewBox="0 0 24 24" fill="none" xmlns="http://www.w3.org/2000/svg">
<path d="M12.5625 7.1775V4.5C12.5625 4.35082 12.5032 4.20774 12.3977 4.10225C12.2922 3.99676 12.1492 3.9375 12 3.9375C11.8508 3.9375 11.7077 3.99676 11.6022 4.10225C11.4967 4.20774 11.4375 4.35082 11.4375 4.5V7.1775C10.9513 7.3055 10.5211 7.59088 10.2141 7.9891C9.90719 8.38732 9.74072 8.87596 9.74072 9.37875C9.74072 9.88154 9.90719 10.3702 10.2141 10.7684C10.5211 11.1666 10.9513 11.452 11.4375 11.58V19.5C11.4375 19.6492 11.4967 19.7923 11.6022 19.8977C11.7077 20.0032 11.8508 20.0625 12 20.0625C12.1492 20.0625 12.2922 20.0032 12.3977 19.8977C12.5032 19.7923 12.5625 19.6492 12.5625 19.5V11.58C14.82 11.0025 14.82 7.75125 12.5625 7.1775Z" fill="black"/>
<path d="M18.3525 9.79875V4.5C18.3525 4.35082 18.2933 4.20774 18.1878 4.10225C18.0823 3.99676 17.9392 3.9375 17.79 3.9375C17.6408 3.9375 17.4978 3.99676 17.3923 4.10225C17.2868 4.20774 17.2275 4.35082 17.2275 4.5V9.79875C16.7413 9.92675 16.3111 10.2121 16.0042 10.6104C15.6972 11.0086 15.5308 11.4972 15.5308 12C15.5308 12.5028 15.6972 12.9914 16.0042 13.3896C16.3111 13.7879 16.7413 14.0732 17.2275 14.2013V19.5C17.2275 19.6492 17.2868 19.7923 17.3923 19.8977C17.4978 20.0032 17.6408 20.0625 17.79 20.0625C17.9392 20.0625 18.0823 20.0032 18.1878 19.8977C18.2933 19.7923 18.3525 19.6492 18.3525 19.5V14.2013C20.625 13.6237 20.625 10.3725 18.3525 9.79875Z" fill="black"/>
<path d="M6.77244 13.875V4.5C6.77244 4.35082 6.71318 4.20774 6.60769 4.10225C6.5022 3.99676 6.35913 3.9375 6.20994 3.9375C6.06076 3.9375 5.91769 3.99676 5.8122 4.10225C5.70671 4.20774 5.64744 4.35082 5.64744 4.5V13.875C5.16285 14.0042 4.7345 14.2899 4.42895 14.6876C4.1234 15.0853 3.95776 15.5728 3.95776 16.0744C3.95776 16.5759 4.1234 17.0634 4.42895 17.4611C4.7345 17.8588 5.16285 18.1445 5.64744 18.2738V19.5C5.64744 19.6492 5.70671 19.7923 5.8122 19.8977C5.91769 20.0032 6.06076 20.0625 6.20994 20.0625C6.35913 20.0625 6.5022 20.0032 6.60769 19.8977C6.71318 19.7923 6.77244 19.6492 6.77244 19.5V18.2775C7.25867 18.1495 7.68883 17.8641 7.99578 17.4659C8.30273 17.0677 8.4692 16.579 8.4692 16.0763C8.4692 15.5735 8.30273 15.0848 7.99578 14.6866C7.68883 14.2884 7.25867 14.003 6.77244 13.875Z" fill="black"/>
</svg>
