<svg width="680" height="387" viewBox="0 0 680 387" fill="none" xmlns="http://www.w3.org/2000/svg">
<path d="M0 10C0 4.47716 4.47715 0 10 0H670C675.523 0 680 4.47715 680 10V377C680 382.523 675.523 387 670 387H10C4.47716 387 0 382.523 0 377V10Z" fill="white"/>
<path d="M49.2852 368V358.197H51.9922C55.4466 358.197 57.1738 359.79 57.1738 362.976C57.1738 364.489 56.693 365.705 55.7314 366.626C54.7744 367.542 53.4915 368 51.8828 368H49.2852ZM50.4336 359.236V366.961H51.8965C53.1816 366.961 54.182 366.617 54.8975 365.929C55.613 365.241 55.9707 364.265 55.9707 363.003C55.9707 360.492 54.6354 359.236 51.9648 359.236H50.4336Z" fill="black"/>
<path d="M63.8079 368H62.6868V366.906H62.6595C62.1718 367.745 61.4541 368.164 60.5062 368.164C59.8089 368.164 59.262 367.979 58.8655 367.61C58.4736 367.241 58.2776 366.751 58.2776 366.141C58.2776 364.833 59.0478 364.072 60.5882 363.857L62.6868 363.563C62.6868 362.374 62.206 361.779 61.2444 361.779C60.4013 361.779 59.6403 362.066 58.9612 362.641V361.492C59.6494 361.055 60.4424 360.836 61.3401 360.836C62.9853 360.836 63.8079 361.706 63.8079 363.447V368ZM62.6868 364.459L60.9983 364.691C60.4788 364.764 60.0869 364.894 59.8226 365.081C59.5582 365.263 59.4261 365.589 59.4261 366.059C59.4261 366.4 59.5468 366.681 59.7884 366.899C60.0345 367.114 60.3603 367.221 60.7659 367.221C61.3219 367.221 61.7799 367.027 62.1399 366.64C62.5045 366.248 62.6868 365.753 62.6868 365.156V364.459Z" fill="black"/>
<path d="M71.3375 361L68.1178 369.121C67.5436 370.57 66.7369 371.295 65.6979 371.295C65.4062 371.295 65.1624 371.265 64.9664 371.206V370.201C65.208 370.283 65.429 370.324 65.6295 370.324C66.1946 370.324 66.6184 369.987 66.901 369.312L67.4615 367.986L64.7272 361H65.9713L67.8649 366.387C67.8876 366.455 67.9355 366.633 68.0084 366.92H68.0494C68.0722 366.811 68.1178 366.637 68.1861 366.4L70.1754 361H71.3375Z" fill="black"/>
<path d="M76.2079 368H75.0868V359.53C75.0002 359.617 74.8726 359.717 74.704 359.831C74.54 359.94 74.3531 360.05 74.1435 360.159C73.9384 360.269 73.7196 360.371 73.4872 360.467C73.2594 360.562 73.036 360.638 72.8173 360.692V359.558C73.0634 359.489 73.3232 359.398 73.5966 359.284C73.8746 359.166 74.1458 359.036 74.4101 358.895C74.679 358.749 74.9319 358.598 75.1689 358.443C75.4058 358.284 75.6109 358.129 75.7841 357.979H76.2079V368Z" fill="black"/>
<path d="M331.285 368V358.197H333.992C337.447 358.197 339.174 359.79 339.174 362.976C339.174 364.489 338.693 365.705 337.731 366.626C336.774 367.542 335.492 368 333.883 368H331.285ZM332.434 359.236V366.961H333.896C335.182 366.961 336.182 366.617 336.897 365.929C337.613 365.241 337.971 364.265 337.971 363.003C337.971 360.492 336.635 359.236 333.965 359.236H332.434Z" fill="black"/>
<path d="M345.808 368H344.687V366.906H344.659C344.172 367.745 343.454 368.164 342.506 368.164C341.809 368.164 341.262 367.979 340.866 367.61C340.474 367.241 340.278 366.751 340.278 366.141C340.278 364.833 341.048 364.072 342.588 363.857L344.687 363.563C344.687 362.374 344.206 361.779 343.244 361.779C342.401 361.779 341.64 362.066 340.961 362.641V361.492C341.649 361.055 342.442 360.836 343.34 360.836C344.985 360.836 345.808 361.706 345.808 363.447V368ZM344.687 364.459L342.998 364.691C342.479 364.764 342.087 364.894 341.823 365.081C341.558 365.263 341.426 365.589 341.426 366.059C341.426 366.4 341.547 366.681 341.788 366.899C342.034 367.114 342.36 367.221 342.766 367.221C343.322 367.221 343.78 367.027 344.14 366.64C344.505 366.248 344.687 365.753 344.687 365.156V364.459Z" fill="black"/>
<path d="M353.337 361L350.118 369.121C349.544 370.57 348.737 371.295 347.698 371.295C347.406 371.295 347.162 371.265 346.966 371.206V370.201C347.208 370.283 347.429 370.324 347.629 370.324C348.195 370.324 348.618 369.987 348.901 369.312L349.462 367.986L346.727 361H347.971L349.865 366.387C349.888 366.455 349.935 366.633 350.008 366.92H350.049C350.072 366.811 350.118 366.637 350.186 366.4L352.175 361H353.337Z" fill="black"/>
<path d="M359.069 358.197V364.671H360.327V365.696H359.069V368H357.962V365.696H353.354V364.726C353.783 364.243 354.216 363.728 354.653 363.181C355.091 362.629 355.508 362.071 355.904 361.506C356.305 360.941 356.674 360.378 357.012 359.817C357.353 359.252 357.641 358.712 357.873 358.197H359.069ZM354.619 364.671H357.962V359.872C357.62 360.469 357.296 361.002 356.991 361.472C356.686 361.941 356.394 362.367 356.116 362.75C355.843 363.133 355.581 363.479 355.33 363.789C355.079 364.099 354.842 364.393 354.619 364.671Z" fill="black"/>
<path d="M143.285 368V358.197H145.992C149.447 358.197 151.174 359.79 151.174 362.976C151.174 364.489 150.693 365.705 149.731 366.626C148.774 367.542 147.492 368 145.883 368H143.285ZM144.434 359.236V366.961H145.896C147.182 366.961 148.182 366.617 148.897 365.929C149.613 365.241 149.971 364.265 149.971 363.003C149.971 360.492 148.635 359.236 145.965 359.236H144.434Z" fill="black"/>
<path d="M157.808 368H156.687V366.906H156.659C156.172 367.745 155.454 368.164 154.506 368.164C153.809 368.164 153.262 367.979 152.866 367.61C152.474 367.241 152.278 366.751 152.278 366.141C152.278 364.833 153.048 364.072 154.588 363.857L156.687 363.563C156.687 362.374 156.206 361.779 155.244 361.779C154.401 361.779 153.64 362.066 152.961 362.641V361.492C153.649 361.055 154.442 360.836 155.34 360.836C156.985 360.836 157.808 361.706 157.808 363.447V368ZM156.687 364.459L154.998 364.691C154.479 364.764 154.087 364.894 153.823 365.081C153.558 365.263 153.426 365.589 153.426 366.059C153.426 366.4 153.547 366.681 153.788 366.899C154.034 367.114 154.36 367.221 154.766 367.221C155.322 367.221 155.78 367.027 156.14 366.64C156.505 366.248 156.687 365.753 156.687 365.156V364.459Z" fill="black"/>
<path d="M165.338 361L162.118 369.121C161.544 370.57 160.737 371.295 159.698 371.295C159.406 371.295 159.162 371.265 158.966 371.206V370.201C159.208 370.283 159.429 370.324 159.63 370.324C160.195 370.324 160.618 369.987 160.901 369.312L161.462 367.986L158.727 361H159.971L161.865 366.387C161.888 366.455 161.935 366.633 162.008 366.92H162.049C162.072 366.811 162.118 366.637 162.186 366.4L164.175 361H165.338Z" fill="black"/>
<path d="M170.536 360.768C170.536 360.467 170.488 360.205 170.392 359.981C170.301 359.758 170.174 359.574 170.01 359.428C169.85 359.277 169.661 359.166 169.442 359.093C169.224 359.02 168.987 358.983 168.731 358.983C168.513 358.983 168.298 359.013 168.089 359.072C167.879 359.132 167.674 359.214 167.474 359.318C167.278 359.423 167.086 359.548 166.899 359.694C166.717 359.84 166.546 360.002 166.387 360.18V358.977C166.701 358.671 167.052 358.439 167.439 358.279C167.831 358.115 168.308 358.033 168.868 358.033C169.269 358.033 169.641 358.092 169.982 358.211C170.324 358.325 170.62 358.493 170.871 358.717C171.122 358.94 171.318 359.216 171.459 359.544C171.605 359.872 171.678 360.248 171.678 360.672C171.678 361.059 171.632 361.41 171.541 361.725C171.454 362.039 171.32 362.335 171.138 362.613C170.96 362.891 170.734 363.158 170.461 363.413C170.187 363.668 169.866 363.928 169.497 364.192C169.037 364.521 168.656 364.801 168.355 365.033C168.059 365.266 167.822 365.484 167.644 365.689C167.471 365.89 167.348 366.093 167.275 366.298C167.207 366.498 167.173 366.731 167.173 366.995H172.054V368H166.004V367.515C166.004 367.095 166.049 366.726 166.141 366.407C166.232 366.088 166.382 365.785 166.592 365.498C166.801 365.211 167.075 364.924 167.412 364.637C167.754 364.35 168.171 364.026 168.663 363.666C169.018 363.411 169.315 363.167 169.552 362.935C169.793 362.702 169.987 362.47 170.133 362.237C170.279 362.005 170.381 361.77 170.44 361.533C170.504 361.292 170.536 361.036 170.536 360.768Z" fill="black"/>
<path d="M425.285 368V358.197H427.992C431.447 358.197 433.174 359.79 433.174 362.976C433.174 364.489 432.693 365.705 431.731 366.626C430.774 367.542 429.492 368 427.883 368H425.285ZM426.434 359.236V366.961H427.896C429.182 366.961 430.182 366.617 430.897 365.929C431.613 365.241 431.971 364.265 431.971 363.003C431.971 360.492 430.635 359.236 427.965 359.236H426.434Z" fill="black"/>
<path d="M439.808 368H438.687V366.906H438.659C438.172 367.745 437.454 368.164 436.506 368.164C435.809 368.164 435.262 367.979 434.866 367.61C434.474 367.241 434.278 366.751 434.278 366.141C434.278 364.833 435.048 364.072 436.588 363.857L438.687 363.563C438.687 362.374 438.206 361.779 437.244 361.779C436.401 361.779 435.64 362.066 434.961 362.641V361.492C435.649 361.055 436.442 360.836 437.34 360.836C438.985 360.836 439.808 361.706 439.808 363.447V368ZM438.687 364.459L436.998 364.691C436.479 364.764 436.087 364.894 435.823 365.081C435.558 365.263 435.426 365.589 435.426 366.059C435.426 366.4 435.547 366.681 435.788 366.899C436.034 367.114 436.36 367.221 436.766 367.221C437.322 367.221 437.78 367.027 438.14 366.64C438.505 366.248 438.687 365.753 438.687 365.156V364.459Z" fill="black"/>
<path d="M447.337 361L444.118 369.121C443.544 370.57 442.737 371.295 441.698 371.295C441.406 371.295 441.162 371.265 440.966 371.206V370.201C441.208 370.283 441.429 370.324 441.629 370.324C442.195 370.324 442.618 369.987 442.901 369.312L443.462 367.986L440.727 361H441.971L443.865 366.387C443.888 366.455 443.935 366.633 444.008 366.92H444.049C444.072 366.811 444.118 366.637 444.186 366.4L446.175 361H447.337Z" fill="black"/>
<path d="M453.883 365.006C453.883 365.484 453.801 365.917 453.637 366.305C453.473 366.692 453.238 367.025 452.933 367.303C452.632 367.581 452.267 367.795 451.839 367.945C451.41 368.096 450.934 368.171 450.41 368.171C449.499 368.171 448.822 368.034 448.38 367.761V366.571C449.045 367 449.726 367.214 450.424 367.214C450.779 367.214 451.098 367.161 451.381 367.057C451.668 366.952 451.912 366.806 452.112 366.619C452.313 366.432 452.465 366.207 452.57 365.942C452.68 365.678 452.734 365.389 452.734 365.074C452.734 364.436 452.52 363.937 452.092 363.577C451.663 363.213 451.041 363.03 450.225 363.03C450.093 363.03 449.954 363.033 449.809 363.037C449.663 363.042 449.517 363.048 449.371 363.058C449.225 363.062 449.082 363.069 448.94 363.078C448.804 363.087 448.678 363.099 448.564 363.112L448.899 358.197H453.432V359.209H449.87L449.672 362.087C449.818 362.078 449.973 362.071 450.137 362.066C450.301 362.057 450.447 362.053 450.574 362.053C451.094 362.053 451.559 362.121 451.969 362.258C452.379 362.395 452.725 362.59 453.008 362.846C453.295 363.096 453.511 363.406 453.657 363.775C453.808 364.14 453.883 364.55 453.883 365.006Z" fill="black"/>
<path d="M237.285 368V358.197H239.992C243.447 358.197 245.174 359.79 245.174 362.976C245.174 364.489 244.693 365.705 243.731 366.626C242.774 367.542 241.492 368 239.883 368H237.285ZM238.434 359.236V366.961H239.896C241.182 366.961 242.182 366.617 242.897 365.929C243.613 365.241 243.971 364.265 243.971 363.003C243.971 360.492 242.635 359.236 239.965 359.236H238.434Z" fill="black"/>
<path d="M251.808 368H250.687V366.906H250.659C250.172 367.745 249.454 368.164 248.506 368.164C247.809 368.164 247.262 367.979 246.866 367.61C246.474 367.241 246.278 366.751 246.278 366.141C246.278 364.833 247.048 364.072 248.588 363.857L250.687 363.563C250.687 362.374 250.206 361.779 249.244 361.779C248.401 361.779 247.64 362.066 246.961 362.641V361.492C247.649 361.055 248.442 360.836 249.34 360.836C250.985 360.836 251.808 361.706 251.808 363.447V368ZM250.687 364.459L248.998 364.691C248.479 364.764 248.087 364.894 247.823 365.081C247.558 365.263 247.426 365.589 247.426 366.059C247.426 366.4 247.547 366.681 247.788 366.899C248.034 367.114 248.36 367.221 248.766 367.221C249.322 367.221 249.78 367.027 250.14 366.64C250.505 366.248 250.687 365.753 250.687 365.156V364.459Z" fill="black"/>
<path d="M259.337 361L256.118 369.121C255.544 370.57 254.737 371.295 253.698 371.295C253.406 371.295 253.162 371.265 252.966 371.206V370.201C253.208 370.283 253.429 370.324 253.63 370.324C254.195 370.324 254.618 369.987 254.901 369.312L255.462 367.986L252.727 361H253.971L255.865 366.387C255.888 366.455 255.935 366.633 256.008 366.92H256.049C256.072 366.811 256.118 366.637 256.186 366.4L258.175 361H259.337Z" fill="black"/>
<path d="M265.773 365.225C265.773 365.667 265.689 366.07 265.52 366.435C265.356 366.795 265.122 367.104 264.816 367.364C264.516 367.619 264.153 367.818 263.729 367.959C263.306 368.1 262.838 368.171 262.328 368.171C261.394 368.171 260.651 367.993 260.1 367.638V366.435C260.76 366.954 261.517 367.214 262.369 367.214C262.711 367.214 263.018 367.171 263.292 367.084C263.57 366.997 263.807 366.872 264.003 366.708C264.203 366.544 264.356 366.346 264.461 366.113C264.57 365.881 264.625 365.619 264.625 365.327C264.625 364.047 263.713 363.406 261.891 363.406H261.077V362.456H261.85C263.463 362.456 264.269 361.854 264.269 360.651C264.269 359.539 263.654 358.983 262.424 358.983C261.731 358.983 261.082 359.216 260.475 359.681V358.594C261.1 358.22 261.843 358.033 262.704 358.033C263.114 358.033 263.486 358.09 263.818 358.204C264.151 358.318 264.436 358.478 264.673 358.683C264.91 358.888 265.092 359.134 265.22 359.421C265.352 359.708 265.418 360.025 265.418 360.371C265.418 361.661 264.766 362.49 263.463 362.859V362.887C263.795 362.923 264.103 363.005 264.386 363.133C264.668 363.256 264.912 363.418 265.117 363.618C265.322 363.819 265.482 364.056 265.596 364.329C265.714 364.598 265.773 364.896 265.773 365.225Z" fill="black"/>
<path d="M519.285 368V358.197H521.992C525.447 358.197 527.174 359.79 527.174 362.976C527.174 364.489 526.693 365.705 525.731 366.626C524.774 367.542 523.492 368 521.883 368H519.285ZM520.434 359.236V366.961H521.896C523.182 366.961 524.182 366.617 524.897 365.929C525.613 365.241 525.971 364.265 525.971 363.003C525.971 360.492 524.635 359.236 521.965 359.236H520.434Z" fill="black"/>
<path d="M533.808 368H532.687V366.906H532.659C532.172 367.745 531.454 368.164 530.506 368.164C529.809 368.164 529.262 367.979 528.866 367.61C528.474 367.241 528.278 366.751 528.278 366.141C528.278 364.833 529.048 364.072 530.588 363.857L532.687 363.563C532.687 362.374 532.206 361.779 531.244 361.779C530.401 361.779 529.64 362.066 528.961 362.641V361.492C529.649 361.055 530.442 360.836 531.34 360.836C532.985 360.836 533.808 361.706 533.808 363.447V368ZM532.687 364.459L530.998 364.691C530.479 364.764 530.087 364.894 529.823 365.081C529.558 365.263 529.426 365.589 529.426 366.059C529.426 366.4 529.547 366.681 529.788 366.899C530.034 367.114 530.36 367.221 530.766 367.221C531.322 367.221 531.78 367.027 532.14 366.64C532.505 366.248 532.687 365.753 532.687 365.156V364.459Z" fill="black"/>
<path d="M541.338 361L538.118 369.121C537.544 370.57 536.737 371.295 535.698 371.295C535.406 371.295 535.162 371.265 534.966 371.206V370.201C535.208 370.283 535.429 370.324 535.63 370.324C536.195 370.324 536.618 369.987 536.901 369.312L537.462 367.986L534.727 361H535.971L537.865 366.387C537.888 366.455 537.935 366.633 538.008 366.92H538.049C538.072 366.811 538.118 366.637 538.186 366.4L540.175 361H541.338Z" fill="black"/>
<path d="M548.245 364.89C548.245 365.368 548.168 365.808 548.013 366.209C547.858 366.61 547.643 366.956 547.37 367.248C547.097 367.54 546.771 367.768 546.393 367.932C546.014 368.091 545.604 368.171 545.162 368.171C544.67 368.171 544.228 368.068 543.836 367.863C543.448 367.658 543.118 367.364 542.845 366.981C542.576 366.594 542.371 366.122 542.229 365.566C542.088 365.01 542.018 364.384 542.018 363.687C542.018 362.834 542.111 362.062 542.298 361.369C542.489 360.672 542.758 360.077 543.104 359.585C543.455 359.088 543.877 358.705 544.369 358.437C544.861 358.168 545.41 358.033 546.017 358.033C546.691 358.033 547.233 358.127 547.643 358.313V359.373C547.138 359.113 546.604 358.983 546.044 358.983C545.606 358.983 545.212 359.081 544.861 359.277C544.51 359.473 544.21 359.751 543.959 360.111C543.708 360.467 543.515 360.897 543.378 361.403C543.246 361.909 543.18 362.472 543.18 363.092H543.207C543.658 362.276 544.403 361.868 545.442 361.868C545.871 361.868 546.256 361.941 546.598 362.087C546.944 362.233 547.238 362.44 547.479 362.709C547.726 362.973 547.915 363.29 548.047 363.659C548.179 364.028 548.245 364.438 548.245 364.89ZM547.097 365.033C547.097 364.691 547.053 364.384 546.967 364.11C546.88 363.837 546.755 363.604 546.591 363.413C546.431 363.222 546.233 363.076 545.996 362.976C545.759 362.871 545.49 362.818 545.189 362.818C544.911 362.818 544.654 362.871 544.417 362.976C544.18 363.08 543.975 363.224 543.802 363.406C543.629 363.584 543.492 363.794 543.392 364.035C543.296 364.272 543.248 364.525 543.248 364.794C543.248 365.131 543.296 365.448 543.392 365.744C543.487 366.036 543.622 366.291 543.795 366.51C543.968 366.729 544.173 366.902 544.41 367.029C544.652 367.152 544.918 367.214 545.21 367.214C545.492 367.214 545.75 367.161 545.982 367.057C546.215 366.947 546.413 366.797 546.577 366.605C546.741 366.414 546.869 366.186 546.96 365.922C547.051 365.653 547.097 365.357 547.097 365.033Z" fill="black"/>
<path d="M613.285 368V358.197H615.992C619.447 358.197 621.174 359.79 621.174 362.976C621.174 364.489 620.693 365.705 619.731 366.626C618.774 367.542 617.492 368 615.883 368H613.285ZM614.434 359.236V366.961H615.896C617.182 366.961 618.182 366.617 618.897 365.929C619.613 365.241 619.971 364.265 619.971 363.003C619.971 360.492 618.635 359.236 615.965 359.236H614.434Z" fill="black"/>
<path d="M627.808 368H626.687V366.906H626.659C626.172 367.745 625.454 368.164 624.506 368.164C623.809 368.164 623.262 367.979 622.866 367.61C622.474 367.241 622.278 366.751 622.278 366.141C622.278 364.833 623.048 364.072 624.588 363.857L626.687 363.563C626.687 362.374 626.206 361.779 625.244 361.779C624.401 361.779 623.64 362.066 622.961 362.641V361.492C623.649 361.055 624.442 360.836 625.34 360.836C626.985 360.836 627.808 361.706 627.808 363.447V368ZM626.687 364.459L624.998 364.691C624.479 364.764 624.087 364.894 623.823 365.081C623.558 365.263 623.426 365.589 623.426 366.059C623.426 366.4 623.547 366.681 623.788 366.899C624.034 367.114 624.36 367.221 624.766 367.221C625.322 367.221 625.78 367.027 626.14 366.64C626.505 366.248 626.687 365.753 626.687 365.156V364.459Z" fill="black"/>
<path d="M635.338 361L632.118 369.121C631.544 370.57 630.737 371.295 629.698 371.295C629.406 371.295 629.162 371.265 628.966 371.206V370.201C629.208 370.283 629.429 370.324 629.63 370.324C630.195 370.324 630.618 369.987 630.901 369.312L631.462 367.986L628.727 361H629.971L631.865 366.387C631.888 366.455 631.935 366.633 632.008 366.92H632.049C632.072 366.811 632.118 366.637 632.186 366.4L634.175 361H635.338Z" fill="black"/>
<path d="M642.163 358.847C642.013 359.106 641.83 359.43 641.616 359.817C641.406 360.205 641.183 360.64 640.946 361.123C640.709 361.606 640.468 362.126 640.222 362.682C639.976 363.238 639.745 363.812 639.531 364.404C639.317 364.997 639.128 365.598 638.964 366.209C638.804 366.815 638.688 367.412 638.615 368H637.412C637.494 367.417 637.619 366.822 637.788 366.216C637.961 365.605 638.155 365.008 638.369 364.425C638.588 363.837 638.818 363.272 639.06 362.729C639.301 362.187 639.536 361.688 639.764 361.232C639.991 360.777 640.199 360.376 640.386 360.029C640.577 359.678 640.73 359.405 640.844 359.209H635.929V358.197H642.163V358.847Z" fill="black"/>
<path d="M33.9727 342.058C33.9727 342.878 33.8975 343.605 33.7471 344.238C33.6012 344.872 33.387 345.407 33.1045 345.845C32.8265 346.278 32.4824 346.608 32.0723 346.836C31.6667 347.059 31.2041 347.171 30.6846 347.171C30.1924 347.171 29.7526 347.064 29.3652 346.85C28.9824 346.631 28.6589 346.314 28.3945 345.899C28.1302 345.485 27.9297 344.977 27.793 344.375C27.6562 343.769 27.5879 343.076 27.5879 342.297C27.5879 341.44 27.6585 340.684 27.7998 340.027C27.9456 339.371 28.1576 338.822 28.4355 338.38C28.7135 337.933 29.0576 337.598 29.4678 337.375C29.8825 337.147 30.3564 337.033 30.8896 337.033C32.945 337.033 33.9727 338.708 33.9727 342.058ZM32.8242 342.167C32.8242 339.378 32.1611 337.983 30.835 337.983C29.4359 337.983 28.7363 339.403 28.7363 342.242C28.7363 344.89 29.4222 346.214 30.7939 346.214C32.1475 346.214 32.8242 344.865 32.8242 342.167Z" fill="black"/>
<path d="M24.9492 316H23.8281V307.53C23.7415 307.617 23.6139 307.717 23.4453 307.831C23.2812 307.94 23.0944 308.05 22.8848 308.159C22.6797 308.269 22.4609 308.371 22.2285 308.467C22.0007 308.562 21.7773 308.638 21.5586 308.692V307.558C21.8047 307.489 22.0645 307.398 22.3379 307.284C22.6159 307.166 22.887 307.036 23.1514 306.895C23.4202 306.749 23.6732 306.598 23.9102 306.443C24.1471 306.284 24.3522 306.129 24.5254 305.979H24.9492V316Z" fill="black"/>
<path d="M34.3655 311.058C34.3655 311.878 34.2903 312.605 34.1399 313.238C33.9941 313.872 33.7799 314.407 33.4974 314.845C33.2194 315.278 32.8753 315.608 32.4651 315.836C32.0595 316.059 31.597 316.171 31.0774 316.171C30.5853 316.171 30.1455 316.064 29.7581 315.85C29.3753 315.631 29.0517 315.314 28.7874 314.899C28.5231 314.485 28.3226 313.977 28.1858 313.375C28.0491 312.769 27.9808 312.076 27.9808 311.297C27.9808 310.44 28.0514 309.684 28.1927 309.027C28.3385 308.371 28.5504 307.822 28.8284 307.38C29.1064 306.933 29.4505 306.598 29.8606 306.375C30.2754 306.147 30.7493 306.033 31.2825 306.033C33.3379 306.033 34.3655 307.708 34.3655 311.058ZM33.2171 311.167C33.2171 308.378 32.554 306.983 31.2278 306.983C29.8287 306.983 29.1292 308.403 29.1292 311.242C29.1292 313.89 29.8151 315.214 31.1868 315.214C32.5403 315.214 33.2171 313.865 33.2171 311.167Z" fill="black"/>
<path d="M25.2773 277.768C25.2773 277.467 25.2295 277.205 25.1338 276.981C25.0426 276.758 24.915 276.574 24.751 276.428C24.5915 276.277 24.4023 276.166 24.1836 276.093C23.9648 276.02 23.7279 275.983 23.4727 275.983C23.2539 275.983 23.0397 276.013 22.8301 276.072C22.6204 276.132 22.4154 276.214 22.2148 276.318C22.0189 276.423 21.8275 276.548 21.6406 276.694C21.4583 276.84 21.2874 277.002 21.1279 277.18V275.977C21.4424 275.671 21.7933 275.439 22.1807 275.279C22.5726 275.115 23.0488 275.033 23.6094 275.033C24.0104 275.033 24.3818 275.092 24.7236 275.211C25.0654 275.325 25.3617 275.493 25.6123 275.717C25.863 275.94 26.0589 276.216 26.2002 276.544C26.346 276.872 26.4189 277.248 26.4189 277.672C26.4189 278.059 26.3734 278.41 26.2822 278.725C26.1956 279.039 26.0612 279.335 25.8789 279.613C25.7012 279.891 25.4756 280.158 25.2021 280.413C24.9287 280.668 24.6074 280.928 24.2383 281.192C23.778 281.521 23.3975 281.801 23.0967 282.033C22.8005 282.266 22.5635 282.484 22.3857 282.689C22.2126 282.89 22.0895 283.093 22.0166 283.298C21.9482 283.498 21.9141 283.731 21.9141 283.995H26.7949V285H20.7451V284.515C20.7451 284.095 20.7907 283.726 20.8818 283.407C20.973 283.088 21.1234 282.785 21.333 282.498C21.5426 282.211 21.8161 281.924 22.1533 281.637C22.4951 281.35 22.9121 281.026 23.4043 280.666C23.7598 280.411 24.056 280.167 24.293 279.935C24.5345 279.702 24.7282 279.47 24.874 279.237C25.0199 279.005 25.1224 278.77 25.1816 278.533C25.2454 278.292 25.2773 278.036 25.2773 277.768Z" fill="black"/>
<path d="M34.3655 280.058C34.3655 280.878 34.2903 281.605 34.1399 282.238C33.9941 282.872 33.7799 283.407 33.4974 283.845C33.2194 284.278 32.8753 284.608 32.4651 284.836C32.0595 285.059 31.597 285.171 31.0774 285.171C30.5853 285.171 30.1455 285.064 29.7581 284.85C29.3753 284.631 29.0517 284.314 28.7874 283.899C28.5231 283.485 28.3226 282.977 28.1858 282.375C28.0491 281.769 27.9808 281.076 27.9808 280.297C27.9808 279.44 28.0514 278.684 28.1927 278.027C28.3385 277.371 28.5504 276.822 28.8284 276.38C29.1064 275.933 29.4505 275.598 29.8606 275.375C30.2754 275.147 30.7493 275.033 31.2825 275.033C33.3379 275.033 34.3655 276.708 34.3655 280.058ZM33.2171 280.167C33.2171 277.378 32.554 275.983 31.2278 275.983C29.8287 275.983 29.1292 277.403 29.1292 280.242C29.1292 282.89 29.8151 284.214 31.1868 284.214C32.5403 284.214 33.2171 282.865 33.2171 280.167Z" fill="black"/>
<path d="M26.5146 251.225C26.5146 251.667 26.4303 252.07 26.2617 252.435C26.0977 252.795 25.863 253.104 25.5576 253.364C25.2568 253.619 24.8945 253.818 24.4707 253.959C24.0469 254.1 23.5798 254.171 23.0693 254.171C22.1351 254.171 21.3923 253.993 20.8408 253.638V252.435C21.5016 252.954 22.2581 253.214 23.1104 253.214C23.4521 253.214 23.7598 253.171 24.0332 253.084C24.3112 252.997 24.5482 252.872 24.7441 252.708C24.9447 252.544 25.0973 252.346 25.2021 252.113C25.3115 251.881 25.3662 251.619 25.3662 251.327C25.3662 250.047 24.4548 249.406 22.6318 249.406H21.8184V248.456H22.5908C24.2041 248.456 25.0107 247.854 25.0107 246.651C25.0107 245.539 24.3955 244.983 23.165 244.983C22.4723 244.983 21.8229 245.216 21.2168 245.681V244.594C21.8411 244.22 22.584 244.033 23.4453 244.033C23.8555 244.033 24.2269 244.09 24.5596 244.204C24.8923 244.318 25.1771 244.478 25.4141 244.683C25.651 244.888 25.8333 245.134 25.9609 245.421C26.0931 245.708 26.1592 246.025 26.1592 246.371C26.1592 247.661 25.5075 248.49 24.2041 248.859V248.887C24.5368 248.923 24.8444 249.005 25.127 249.133C25.4095 249.256 25.6533 249.418 25.8584 249.618C26.0635 249.819 26.223 250.056 26.3369 250.329C26.4554 250.598 26.5146 250.896 26.5146 251.225Z" fill="black"/>
<path d="M34.3655 249.058C34.3655 249.878 34.2903 250.605 34.1399 251.238C33.9941 251.872 33.7799 252.407 33.4974 252.845C33.2194 253.278 32.8753 253.608 32.4651 253.836C32.0595 254.059 31.597 254.171 31.0774 254.171C30.5853 254.171 30.1455 254.064 29.7581 253.85C29.3753 253.631 29.0517 253.314 28.7874 252.899C28.5231 252.485 28.3226 251.977 28.1858 251.375C28.0491 250.769 27.9808 250.076 27.9808 249.297C27.9808 248.44 28.0514 247.684 28.1927 247.027C28.3385 246.371 28.5504 245.822 28.8284 245.38C29.1064 244.933 29.4505 244.598 29.8606 244.375C30.2754 244.147 30.7493 244.033 31.2825 244.033C33.3379 244.033 34.3655 245.708 34.3655 249.058ZM33.2171 249.167C33.2171 246.378 32.554 244.983 31.2278 244.983C29.8287 244.983 29.1292 246.403 29.1292 249.242C29.1292 251.89 29.8151 253.214 31.1868 253.214C32.5403 253.214 33.2171 251.865 33.2171 249.167Z" fill="black"/>
<path d="M25.8105 213.197V219.671H27.0684V220.696H25.8105V223H24.7031V220.696H20.0957V219.726C20.5241 219.243 20.957 218.728 21.3945 218.181C21.832 217.629 22.249 217.071 22.6455 216.506C23.0465 215.941 23.4157 215.378 23.7529 214.817C24.0947 214.252 24.3818 213.712 24.6143 213.197H25.8105ZM21.3604 219.671H24.7031V214.872C24.3613 215.469 24.0378 216.002 23.7324 216.472C23.4271 216.941 23.1354 217.367 22.8574 217.75C22.584 218.133 22.3219 218.479 22.0713 218.789C21.8206 219.099 21.5837 219.393 21.3604 219.671Z" fill="black"/>
<path d="M34.3655 218.058C34.3655 218.878 34.2903 219.605 34.1399 220.238C33.9941 220.872 33.7799 221.407 33.4974 221.845C33.2194 222.278 32.8753 222.608 32.4651 222.836C32.0595 223.059 31.597 223.171 31.0774 223.171C30.5853 223.171 30.1455 223.064 29.7581 222.85C29.3753 222.631 29.0517 222.314 28.7874 221.899C28.5231 221.485 28.3226 220.977 28.1858 220.375C28.0491 219.769 27.9808 219.076 27.9808 218.297C27.9808 217.44 28.0514 216.684 28.1927 216.027C28.3385 215.371 28.5504 214.822 28.8284 214.38C29.1064 213.933 29.4505 213.598 29.8606 213.375C30.2754 213.147 30.7493 213.033 31.2825 213.033C33.3379 213.033 34.3655 214.708 34.3655 218.058ZM33.2171 218.167C33.2171 215.378 32.554 213.983 31.2278 213.983C29.8287 213.983 29.1292 215.403 29.1292 218.242C29.1292 220.89 29.8151 222.214 31.1868 222.214C32.5403 222.214 33.2171 220.865 33.2171 218.167Z" fill="black"/>
<path d="M26.624 189.006C26.624 189.484 26.542 189.917 26.3779 190.305C26.2139 190.692 25.9792 191.025 25.6738 191.303C25.373 191.581 25.0085 191.795 24.5801 191.945C24.1517 192.096 23.6755 192.171 23.1514 192.171C22.2399 192.171 21.5632 192.034 21.1211 191.761V190.571C21.7865 191 22.4678 191.214 23.165 191.214C23.5205 191.214 23.8395 191.161 24.1221 191.057C24.4092 190.952 24.653 190.806 24.8535 190.619C25.054 190.432 25.2067 190.207 25.3115 189.942C25.4209 189.678 25.4756 189.389 25.4756 189.074C25.4756 188.436 25.2614 187.937 24.833 187.577C24.4046 187.213 23.7826 187.03 22.9668 187.03C22.8346 187.03 22.6956 187.033 22.5498 187.037C22.404 187.042 22.2581 187.049 22.1123 187.058C21.9665 187.062 21.8229 187.069 21.6816 187.078C21.5449 187.087 21.4196 187.099 21.3057 187.112L21.6406 182.197H26.1729V183.209H22.6113L22.4131 186.087C22.5589 186.078 22.7139 186.071 22.8779 186.066C23.042 186.057 23.1878 186.053 23.3154 186.053C23.835 186.053 24.2998 186.121 24.71 186.258C25.1201 186.395 25.4665 186.59 25.749 186.846C26.0361 187.096 26.2526 187.406 26.3984 187.775C26.5488 188.14 26.624 188.55 26.624 189.006Z" fill="black"/>
<path d="M34.3655 187.058C34.3655 187.878 34.2903 188.605 34.1399 189.238C33.9941 189.872 33.7799 190.407 33.4974 190.845C33.2194 191.278 32.8753 191.608 32.4651 191.836C32.0595 192.059 31.597 192.171 31.0774 192.171C30.5853 192.171 30.1455 192.064 29.7581 191.85C29.3753 191.631 29.0517 191.314 28.7874 190.899C28.5231 190.485 28.3226 189.977 28.1858 189.375C28.0491 188.769 27.9808 188.076 27.9808 187.297C27.9808 186.44 28.0514 185.684 28.1927 185.027C28.3385 184.371 28.5504 183.822 28.8284 183.38C29.1064 182.933 29.4505 182.598 29.8606 182.375C30.2754 182.147 30.7493 182.033 31.2825 182.033C33.3379 182.033 34.3655 183.708 34.3655 187.058ZM33.2171 187.167C33.2171 184.378 32.554 182.983 31.2278 182.983C29.8287 182.983 29.1292 184.403 29.1292 187.242C29.1292 189.89 29.8151 191.214 31.1868 191.214C32.5403 191.214 33.2171 189.865 33.2171 187.167Z" fill="black"/>
<path d="M26.9863 157.89C26.9863 158.368 26.9089 158.808 26.7539 159.209C26.599 159.61 26.3848 159.956 26.1113 160.248C25.8379 160.54 25.512 160.768 25.1338 160.932C24.7555 161.091 24.3454 161.171 23.9033 161.171C23.4111 161.171 22.9691 161.068 22.5771 160.863C22.1898 160.658 21.8594 160.364 21.5859 159.981C21.3171 159.594 21.112 159.122 20.9707 158.566C20.8294 158.01 20.7588 157.384 20.7588 156.687C20.7588 155.834 20.8522 155.062 21.0391 154.369C21.2305 153.672 21.4993 153.077 21.8457 152.585C22.1966 152.088 22.6182 151.705 23.1104 151.437C23.6025 151.168 24.1517 151.033 24.7578 151.033C25.4323 151.033 25.9746 151.127 26.3848 151.313V152.373C25.8789 152.113 25.3457 151.983 24.7852 151.983C24.3477 151.983 23.9535 152.081 23.6025 152.277C23.2516 152.473 22.9508 152.751 22.7002 153.111C22.4495 153.467 22.2559 153.897 22.1191 154.403C21.987 154.909 21.9209 155.472 21.9209 156.092H21.9482C22.3994 155.276 23.1445 154.868 24.1836 154.868C24.612 154.868 24.9971 154.941 25.3389 155.087C25.6852 155.233 25.9792 155.44 26.2207 155.709C26.4668 155.973 26.6559 156.29 26.7881 156.659C26.9202 157.028 26.9863 157.438 26.9863 157.89ZM25.8379 158.033C25.8379 157.691 25.7946 157.384 25.708 157.11C25.6214 156.837 25.4961 156.604 25.332 156.413C25.1725 156.222 24.9743 156.076 24.7373 155.976C24.5003 155.871 24.2314 155.818 23.9307 155.818C23.6527 155.818 23.3952 155.871 23.1582 155.976C22.9212 156.08 22.7161 156.224 22.543 156.406C22.3698 156.584 22.2331 156.794 22.1328 157.035C22.0371 157.272 21.9893 157.525 21.9893 157.794C21.9893 158.131 22.0371 158.448 22.1328 158.744C22.2285 159.036 22.363 159.291 22.5361 159.51C22.7093 159.729 22.9144 159.902 23.1514 160.029C23.3929 160.152 23.6595 160.214 23.9512 160.214C24.2337 160.214 24.4912 160.161 24.7236 160.057C24.9561 159.947 25.1543 159.797 25.3184 159.605C25.4824 159.414 25.61 159.186 25.7012 158.922C25.7923 158.653 25.8379 158.357 25.8379 158.033Z" fill="black"/>
<path d="M34.3655 156.058C34.3655 156.878 34.2903 157.605 34.1399 158.238C33.9941 158.872 33.7799 159.407 33.4974 159.845C33.2194 160.278 32.8753 160.608 32.4651 160.836C32.0595 161.059 31.597 161.171 31.0774 161.171C30.5853 161.171 30.1455 161.064 29.7581 160.85C29.3753 160.631 29.0517 160.314 28.7874 159.899C28.5231 159.485 28.3226 158.977 28.1858 158.375C28.0491 157.769 27.9808 157.076 27.9808 156.297C27.9808 155.44 28.0514 154.684 28.1927 154.027C28.3385 153.371 28.5504 152.822 28.8284 152.38C29.1064 151.933 29.4505 151.598 29.8606 151.375C30.2754 151.147 30.7493 151.033 31.2825 151.033C33.3379 151.033 34.3655 152.708 34.3655 156.058ZM33.2171 156.167C33.2171 153.378 32.554 151.983 31.2278 151.983C29.8287 151.983 29.1292 153.403 29.1292 156.242C29.1292 158.89 29.8151 160.214 31.1868 160.214C32.5403 160.214 33.2171 158.865 33.2171 156.167Z" fill="black"/>
<path d="M26.9043 120.847C26.7539 121.106 26.5716 121.43 26.3574 121.817C26.1478 122.205 25.9245 122.64 25.6875 123.123C25.4505 123.606 25.209 124.126 24.9629 124.682C24.7168 125.238 24.4867 125.812 24.2725 126.404C24.0583 126.997 23.8691 127.598 23.7051 128.209C23.5456 128.815 23.4294 129.412 23.3564 130H22.1533C22.2354 129.417 22.3607 128.822 22.5293 128.216C22.7025 127.605 22.8962 127.008 23.1104 126.425C23.3291 125.837 23.5592 125.272 23.8008 124.729C24.0423 124.187 24.277 123.688 24.5049 123.232C24.7327 122.777 24.9401 122.376 25.127 122.029C25.3184 121.678 25.471 121.405 25.585 121.209H20.6699V120.197H26.9043V120.847Z" fill="black"/>
<path d="M34.3655 125.058C34.3655 125.878 34.2903 126.605 34.1399 127.238C33.9941 127.872 33.7799 128.407 33.4974 128.845C33.2194 129.278 32.8753 129.608 32.4651 129.836C32.0595 130.059 31.597 130.171 31.0774 130.171C30.5853 130.171 30.1455 130.064 29.7581 129.85C29.3753 129.631 29.0517 129.314 28.7874 128.899C28.5231 128.485 28.3226 127.977 28.1858 127.375C28.0491 126.769 27.9808 126.076 27.9808 125.297C27.9808 124.44 28.0514 123.684 28.1927 123.027C28.3385 122.371 28.5504 121.822 28.8284 121.38C29.1064 120.933 29.4505 120.598 29.8606 120.375C30.2754 120.147 30.7493 120.033 31.2825 120.033C33.3379 120.033 34.3655 121.708 34.3655 125.058ZM33.2171 125.167C33.2171 122.378 32.554 120.983 31.2278 120.983C29.8287 120.983 29.1292 122.403 29.1292 125.242C29.1292 127.89 29.8151 129.214 31.1868 129.214C32.5403 129.214 33.2171 127.865 33.2171 125.167Z" fill="black"/>
<path d="M20.6152 96.2656C20.6152 96.0059 20.6562 95.7461 20.7383 95.4863C20.8203 95.222 20.9365 94.9759 21.0869 94.748C21.2419 94.5202 21.431 94.3128 21.6543 94.126C21.8822 93.9391 22.1396 93.791 22.4268 93.6816C22.0029 93.4447 21.6657 93.1416 21.415 92.7725C21.1644 92.3988 21.0391 91.9863 21.0391 91.5352C21.0391 91.1751 21.1074 90.8424 21.2441 90.5371C21.3854 90.2318 21.5791 89.9674 21.8252 89.7441C22.0713 89.5208 22.363 89.3477 22.7002 89.2246C23.0374 89.097 23.402 89.0332 23.7939 89.0332C24.1904 89.0332 24.5573 89.097 24.8945 89.2246C25.2318 89.3522 25.5234 89.5277 25.7695 89.751C26.0156 89.9743 26.207 90.2386 26.3438 90.5439C26.4805 90.8493 26.5488 91.1797 26.5488 91.5352C26.5488 91.9863 26.4235 92.3988 26.1729 92.7725C25.9222 93.1416 25.5895 93.4447 25.1748 93.6816C25.4574 93.791 25.7103 93.9391 25.9336 94.126C26.1569 94.3128 26.3438 94.5202 26.4941 94.748C26.6491 94.9759 26.7676 95.222 26.8496 95.4863C26.9316 95.7461 26.9727 96.0059 26.9727 96.2656C26.9727 96.694 26.8952 97.0859 26.7402 97.4414C26.5853 97.7969 26.3665 98.1022 26.084 98.3574C25.806 98.6081 25.471 98.804 25.0791 98.9453C24.6917 99.0866 24.2633 99.1572 23.7939 99.1572C23.3291 99.1572 22.903 99.0866 22.5156 98.9453C22.1283 98.804 21.7933 98.6081 21.5107 98.3574C21.2282 98.1022 21.0072 97.7969 20.8477 97.4414C20.6927 97.0859 20.6152 96.694 20.6152 96.2656ZM21.832 96.1699C21.832 96.4753 21.8776 96.751 21.9688 96.9971C22.0645 97.2432 22.1966 97.4528 22.3652 97.626C22.5384 97.7992 22.7458 97.9336 22.9873 98.0293C23.2334 98.1204 23.5046 98.166 23.8008 98.166C24.0879 98.166 24.3522 98.1182 24.5938 98.0225C24.8353 97.9268 25.0426 97.7923 25.2158 97.6191C25.3936 97.446 25.5303 97.2363 25.626 96.9902C25.7262 96.7441 25.7764 96.4707 25.7764 96.1699C25.7764 95.8965 25.7285 95.6413 25.6328 95.4043C25.5417 95.1628 25.4095 94.9508 25.2363 94.7686C25.0632 94.5863 24.8558 94.4427 24.6143 94.3379C24.3727 94.2331 24.1016 94.1807 23.8008 94.1807C23.5182 94.1807 23.2562 94.2308 23.0146 94.3311C22.7777 94.4268 22.5703 94.5635 22.3926 94.7412C22.2194 94.9144 22.0827 95.124 21.9824 95.3701C21.8822 95.6117 21.832 95.8783 21.832 96.1699ZM22.1807 91.624C22.1807 91.8564 22.2217 92.0729 22.3037 92.2734C22.3903 92.4694 22.5065 92.6426 22.6523 92.793C22.8027 92.9388 22.9759 93.055 23.1719 93.1416C23.3678 93.2236 23.5775 93.2646 23.8008 93.2646C24.0241 93.2646 24.2337 93.2214 24.4297 93.1348C24.6302 93.0482 24.8034 92.932 24.9492 92.7861C25.0951 92.6357 25.2113 92.4626 25.2979 92.2666C25.3844 92.0661 25.4277 91.8519 25.4277 91.624C25.4277 91.387 25.3844 91.1683 25.2979 90.9678C25.2158 90.7673 25.1019 90.5941 24.9561 90.4482C24.8102 90.3024 24.637 90.1885 24.4365 90.1064C24.2406 90.0199 24.0286 89.9766 23.8008 89.9766C23.5592 89.9766 23.3382 90.0199 23.1377 90.1064C22.9417 90.193 22.7708 90.3115 22.625 90.4619C22.4837 90.6077 22.3743 90.7809 22.2969 90.9814C22.2194 91.182 22.1807 91.3962 22.1807 91.624Z" fill="black"/>
<path d="M34.3655 94.0576C34.3655 94.8779 34.2903 95.6048 34.1399 96.2383C33.9941 96.8717 33.7799 97.4072 33.4974 97.8447C33.2194 98.2777 32.8753 98.6081 32.4651 98.8359C32.0595 99.0592 31.597 99.1709 31.0774 99.1709C30.5853 99.1709 30.1455 99.0638 29.7581 98.8496C29.3753 98.6309 29.0517 98.3141 28.7874 97.8994C28.5231 97.4847 28.3226 96.9766 28.1858 96.375C28.0491 95.7689 27.9808 95.0762 27.9808 94.2969C27.9808 93.4401 28.0514 92.6836 28.1927 92.0273C28.3385 91.3711 28.5504 90.8219 28.8284 90.3799C29.1064 89.9333 29.4505 89.5983 29.8606 89.375C30.2754 89.1471 30.7493 89.0332 31.2825 89.0332C33.3379 89.0332 34.3655 90.708 34.3655 94.0576ZM33.2171 94.167C33.2171 91.3779 32.554 89.9834 31.2278 89.9834C29.8287 89.9834 29.1292 91.403 29.1292 94.2422C29.1292 96.89 29.8151 98.2139 31.1868 98.2139C32.5403 98.2139 33.2171 96.8649 33.2171 94.167Z" fill="black"/>
<path d="M26.8633 62.5107C26.8633 63.4085 26.7744 64.2083 26.5967 64.9102C26.4189 65.6074 26.1592 66.1999 25.8174 66.6875C25.4756 67.1706 25.0586 67.5397 24.5664 67.7949C24.0742 68.0456 23.5137 68.1709 22.8848 68.1709C22.2376 68.1709 21.668 68.057 21.1758 67.8291V66.7559C21.7181 67.0612 22.2969 67.2139 22.9121 67.2139C23.3542 67.2139 23.7484 67.1227 24.0947 66.9404C24.4456 66.7581 24.7419 66.4938 24.9834 66.1475C25.2249 65.7965 25.4095 65.3659 25.5371 64.8555C25.6647 64.3451 25.7285 63.7594 25.7285 63.0986H25.7012C25.2819 63.9417 24.5527 64.3633 23.5137 64.3633C23.0944 64.3633 22.7093 64.2904 22.3584 64.1445C22.0075 63.9941 21.7044 63.7845 21.4492 63.5156C21.194 63.2422 20.9958 62.9186 20.8545 62.5449C20.7132 62.1712 20.6426 61.7588 20.6426 61.3076C20.6426 60.8245 20.7201 60.3825 20.875 59.9814C21.0345 59.5804 21.2533 59.2363 21.5312 58.9492C21.8138 58.6576 22.1465 58.432 22.5293 58.2725C22.9167 58.113 23.3382 58.0332 23.7939 58.0332C24.2861 58.0332 24.7214 58.1335 25.0996 58.334C25.4824 58.5299 25.8037 58.8193 26.0635 59.2021C26.3232 59.5804 26.5215 60.0475 26.6582 60.6035C26.7949 61.1595 26.8633 61.7952 26.8633 62.5107ZM25.6533 61.5059C25.6533 61.1276 25.6032 60.7835 25.5029 60.4736C25.4072 60.1637 25.2728 59.8994 25.0996 59.6807C24.9264 59.4574 24.7191 59.2865 24.4775 59.168C24.2406 59.0449 23.9808 58.9834 23.6982 58.9834C23.4294 58.9834 23.1787 59.0381 22.9463 59.1475C22.7139 59.2523 22.5111 59.4027 22.3379 59.5986C22.1693 59.79 22.0348 60.0202 21.9346 60.2891C21.8389 60.5534 21.791 60.8428 21.791 61.1572C21.791 61.5036 21.8366 61.8135 21.9277 62.0869C22.0234 62.3604 22.1579 62.5928 22.3311 62.7842C22.5042 62.971 22.7116 63.1146 22.9531 63.2148C23.1992 63.3151 23.4704 63.3652 23.7666 63.3652C24.0264 63.3652 24.2702 63.3174 24.498 63.2217C24.7305 63.1214 24.931 62.9893 25.0996 62.8252C25.2728 62.6566 25.4072 62.4606 25.5029 62.2373C25.6032 62.0094 25.6533 61.7656 25.6533 61.5059Z" fill="black"/>
<path d="M34.3655 63.0576C34.3655 63.8779 34.2903 64.6048 34.1399 65.2383C33.9941 65.8717 33.7799 66.4072 33.4974 66.8447C33.2194 67.2777 32.8753 67.6081 32.4651 67.8359C32.0595 68.0592 31.597 68.1709 31.0774 68.1709C30.5853 68.1709 30.1455 68.0638 29.7581 67.8496C29.3753 67.6309 29.0517 67.3141 28.7874 66.8994C28.5231 66.4847 28.3226 65.9766 28.1858 65.375C28.0491 64.7689 27.9808 64.0762 27.9808 63.2969C27.9808 62.4401 28.0514 61.6836 28.1927 61.0273C28.3385 60.3711 28.5504 59.8219 28.8284 59.3799C29.1064 58.9333 29.4505 58.5983 29.8606 58.375C30.2754 58.1471 30.7493 58.0332 31.2825 58.0332C33.3379 58.0332 34.3655 59.708 34.3655 63.0576ZM33.2171 63.167C33.2171 60.3779 32.554 58.9834 31.2278 58.9834C29.8287 58.9834 29.1292 60.403 29.1292 63.2422C29.1292 65.89 29.8151 67.2139 31.1868 67.2139C32.5403 67.2139 33.2171 65.8649 33.2171 63.167Z" fill="black"/>
<path d="M16.9492 37H15.8281V28.5303C15.7415 28.6169 15.6139 28.7171 15.4453 28.8311C15.2812 28.9404 15.0944 29.0498 14.8848 29.1592C14.6797 29.2686 14.4609 29.3711 14.2285 29.4668C14.0007 29.5625 13.7773 29.6377 13.5586 29.6924V28.5576C13.8047 28.4893 14.0645 28.3981 14.3379 28.2842C14.6159 28.1657 14.887 28.0358 15.1514 27.8945C15.4202 27.7487 15.6732 27.5983 15.9102 27.4434C16.1471 27.2839 16.3522 27.1289 16.5254 26.9785H16.9492V37Z" fill="black"/>
<path d="M26.3655 32.0576C26.3655 32.8779 26.2903 33.6048 26.1399 34.2383C25.9941 34.8717 25.7799 35.4072 25.4974 35.8447C25.2194 36.2777 24.8753 36.6081 24.4651 36.8359C24.0595 37.0592 23.597 37.1709 23.0774 37.1709C22.5853 37.1709 22.1455 37.0638 21.7581 36.8496C21.3753 36.6309 21.0517 36.3141 20.7874 35.8994C20.5231 35.4847 20.3226 34.9766 20.1858 34.375C20.0491 33.7689 19.9808 33.0762 19.9808 32.2969C19.9808 31.4401 20.0514 30.6836 20.1927 30.0273C20.3385 29.3711 20.5504 28.8219 20.8284 28.3799C21.1064 27.9333 21.4505 27.5983 21.8606 27.375C22.2754 27.1471 22.7493 27.0332 23.2825 27.0332C25.3379 27.0332 26.3655 28.708 26.3655 32.0576ZM25.2171 32.167C25.2171 29.3779 24.554 27.9834 23.2278 27.9834C21.8287 27.9834 21.1292 29.403 21.1292 32.2422C21.1292 34.89 21.8151 36.2139 23.1868 36.2139C24.5403 36.2139 25.2171 34.8649 25.2171 32.167Z" fill="black"/>
<path d="M33.7584 32.0576C33.7584 32.8779 33.6832 33.6048 33.5328 34.2383C33.387 34.8717 33.1728 35.4072 32.8902 35.8447C32.6122 36.2777 32.2682 36.6081 31.858 36.8359C31.4524 37.0592 30.9899 37.1709 30.4703 37.1709C29.9781 37.1709 29.5384 37.0638 29.151 36.8496C28.7682 36.6309 28.4446 36.3141 28.1803 35.8994C27.916 35.4847 27.7154 34.9766 27.5787 34.375C27.442 33.7689 27.3736 33.0762 27.3736 32.2969C27.3736 31.4401 27.4443 30.6836 27.5856 30.0273C27.7314 29.3711 27.9433 28.8219 28.2213 28.3799C28.4993 27.9333 28.8434 27.5983 29.2535 27.375C29.6682 27.1471 30.1422 27.0332 30.6754 27.0332C32.7307 27.0332 33.7584 28.708 33.7584 32.0576ZM32.61 32.167C32.61 29.3779 31.9469 27.9834 30.6207 27.9834C29.2216 27.9834 28.5221 29.403 28.5221 32.2422C28.5221 34.89 29.208 36.2139 30.5797 36.2139C31.9332 36.2139 32.61 34.8649 32.61 32.167Z" fill="black"/>
<path d="M230 209C230 210.657 228.657 212 227 212C225.343 212 224 210.657 224 209C224 207.343 225.343 206 227 206C228.657 206 230 207.343 230 209Z" fill="#EF0000"/>
<path d="M80 304C80 305.657 78.6569 307 77 307C75.3431 307 74 305.657 74 304C74 302.343 75.3431 301 77 301C78.6569 301 80 302.343 80 304Z" fill="#EF0000"/>
<path d="M284 242C284 243.657 282.657 245 281 245C279.343 245 278 243.657 278 242C278 240.343 279.343 239 281 239C282.657 239 284 240.343 284 242Z" fill="#EF0000"/>
<path d="M470 203C470 204.657 468.657 206 467 206C465.343 206 464 204.657 464 203C464 201.343 465.343 200 467 200C468.657 200 470 201.343 470 203Z" fill="#EF0000"/>
<path d="M415 152C415 153.657 413.657 155 412 155C410.343 155 409 153.657 409 152C409 150.343 410.343 149 412 149C413.657 149 415 150.343 415 152Z" fill="#EF0000"/>
<path d="M397 157C397 158.657 395.657 160 394 160C392.343 160 391 158.657 391 157C391 155.343 392.343 154 394 154C395.657 154 397 155.343 397 157Z" fill="#EF0000"/>
<path d="M152 102C152 98.6863 154.686 96 158 96H294C297.314 96 300 98.6863 300 102V184C300 187.314 297.314 190 294 190H158C154.686 190 152 187.314 152 184V102Z" fill="black"/>
<path d="M226.5 202L219.139 189.25H233.861L226.5 202Z" fill="black"/>
<path d="M162 111.5H172V121.5H162V111.5Z" fill="#EF0000"/>
<path d="M193.654 122H192.506V117.529H187.434V122H186.285V112.197H187.434V116.497H192.506V112.197H193.654V122Z" fill="white"/>
<path d="M196.494 113.223C196.294 113.223 196.123 113.154 195.982 113.018C195.84 112.881 195.77 112.708 195.77 112.498C195.77 112.288 195.84 112.115 195.982 111.979C196.123 111.837 196.294 111.767 196.494 111.767C196.7 111.767 196.873 111.837 197.014 111.979C197.16 112.115 197.233 112.288 197.233 112.498C197.233 112.699 197.16 112.869 197.014 113.011C196.873 113.152 196.7 113.223 196.494 113.223ZM197.041 122H195.92V115H197.041V122Z" fill="white"/>
<path d="M205.131 121.439C205.131 124.01 203.901 125.295 201.44 125.295C200.574 125.295 199.818 125.131 199.171 124.803V123.682C199.959 124.119 200.711 124.338 201.426 124.338C203.149 124.338 204.01 123.422 204.01 121.59V120.824H203.983C203.45 121.717 202.648 122.164 201.577 122.164C200.706 122.164 200.005 121.854 199.471 121.234C198.943 120.61 198.678 119.774 198.678 118.726C198.678 117.536 198.963 116.59 199.533 115.889C200.107 115.187 200.891 114.836 201.884 114.836C202.828 114.836 203.527 115.214 203.983 115.971H204.01V115H205.131V121.439ZM204.01 118.835V117.803C204.01 117.247 203.821 116.771 203.443 116.374C203.069 115.978 202.602 115.779 202.042 115.779C201.349 115.779 200.807 116.032 200.415 116.538C200.023 117.039 199.827 117.743 199.827 118.65C199.827 119.43 200.014 120.054 200.387 120.523C200.766 120.988 201.265 121.221 201.884 121.221C202.513 121.221 203.024 120.997 203.416 120.551C203.812 120.104 204.01 119.532 204.01 118.835Z" fill="white"/>
<path d="M213.058 122H211.936V117.967C211.936 116.508 211.394 115.779 210.309 115.779C209.763 115.779 209.302 115.991 208.929 116.415C208.555 116.834 208.368 117.374 208.368 118.035V122H207.247V111.637H208.368V116.162H208.395C208.933 115.278 209.699 114.836 210.692 114.836C212.269 114.836 213.058 115.786 213.058 117.687V122Z" fill="white"/>
<path d="M218.27 121.932C218.005 122.077 217.657 122.15 217.224 122.15C215.998 122.15 215.385 121.467 215.385 120.1V115.957H214.182V115H215.385V113.291L216.506 112.929V115H218.27V115.957H216.506V119.901C216.506 120.371 216.586 120.706 216.745 120.906C216.905 121.107 217.169 121.207 217.538 121.207C217.821 121.207 218.065 121.13 218.27 120.975V121.932Z" fill="white"/>
<path d="M226.951 116.135C226.755 115.984 226.472 115.909 226.103 115.909C225.625 115.909 225.224 116.135 224.9 116.586C224.581 117.037 224.422 117.652 224.422 118.432V122H223.301V115H224.422V116.442H224.449C224.609 115.95 224.852 115.567 225.18 115.294C225.509 115.016 225.875 114.877 226.281 114.877C226.573 114.877 226.796 114.909 226.951 114.973V116.135Z" fill="white"/>
<path d="M228.588 113.223C228.387 113.223 228.217 113.154 228.075 113.018C227.934 112.881 227.863 112.708 227.863 112.498C227.863 112.288 227.934 112.115 228.075 111.979C228.217 111.837 228.387 111.767 228.588 111.767C228.793 111.767 228.966 111.837 229.108 111.979C229.253 112.115 229.326 112.288 229.326 112.498C229.326 112.699 229.253 112.869 229.108 113.011C228.966 113.152 228.793 113.223 228.588 113.223ZM229.135 122H228.014V115H229.135V122Z" fill="white"/>
<path d="M230.827 121.747V120.544C231.437 120.995 232.109 121.221 232.843 121.221C233.828 121.221 234.32 120.893 234.32 120.236C234.32 120.049 234.276 119.892 234.19 119.765C234.108 119.632 233.994 119.516 233.848 119.416C233.707 119.316 233.538 119.227 233.342 119.149C233.151 119.067 232.943 118.983 232.72 118.896C232.41 118.773 232.137 118.65 231.9 118.527C231.667 118.4 231.471 118.258 231.312 118.104C231.157 117.944 231.039 117.764 230.956 117.563C230.879 117.363 230.84 117.128 230.84 116.859C230.84 116.531 230.915 116.242 231.066 115.991C231.216 115.736 231.417 115.524 231.667 115.355C231.918 115.182 232.203 115.052 232.522 114.966C232.845 114.879 233.178 114.836 233.52 114.836C234.126 114.836 234.668 114.941 235.147 115.15V116.285C234.632 115.948 234.039 115.779 233.37 115.779C233.16 115.779 232.971 115.804 232.802 115.854C232.634 115.9 232.488 115.966 232.365 116.053C232.246 116.139 232.153 116.244 232.084 116.367C232.021 116.486 231.989 116.618 231.989 116.764C231.989 116.946 232.021 117.099 232.084 117.222C232.153 117.345 232.251 117.454 232.378 117.55C232.506 117.646 232.661 117.732 232.843 117.81C233.025 117.887 233.233 117.971 233.465 118.062C233.775 118.181 234.053 118.304 234.299 118.432C234.545 118.555 234.755 118.696 234.928 118.855C235.101 119.01 235.234 119.19 235.325 119.396C235.42 119.601 235.468 119.844 235.468 120.127C235.468 120.473 235.391 120.774 235.236 121.029C235.085 121.285 234.883 121.496 234.627 121.665C234.372 121.834 234.078 121.959 233.746 122.041C233.413 122.123 233.064 122.164 232.7 122.164C231.98 122.164 231.355 122.025 230.827 121.747Z" fill="white"/>
<path d="M242.854 122H241.282L238.192 118.637H238.165V122H237.044V111.637H238.165V118.206H238.192L241.132 115H242.601L239.354 118.377L242.854 122Z" fill="white"/>
<path d="M250.476 124.229H249.478C248.065 122.615 247.359 120.626 247.359 118.261C247.359 115.886 248.065 113.865 249.478 112.197H250.49C249.059 113.929 248.343 115.946 248.343 118.247C248.343 120.53 249.054 122.524 250.476 124.229Z" fill="white"/>
<path d="M256.283 112.197V118.671H257.541V119.696H256.283V122H255.175V119.696H250.568V118.726C250.996 118.243 251.429 117.728 251.867 117.181C252.304 116.629 252.721 116.071 253.118 115.506C253.519 114.941 253.888 114.378 254.225 113.817C254.567 113.252 254.854 112.712 255.087 112.197H256.283ZM251.833 118.671H255.175V113.872C254.834 114.469 254.51 115.002 254.205 115.472C253.899 115.941 253.608 116.367 253.33 116.75C253.056 117.133 252.794 117.479 252.544 117.789C252.293 118.099 252.056 118.393 251.833 118.671Z" fill="white"/>
<path d="M259.027 124.229H258.029C259.451 122.524 260.162 120.53 260.162 118.247C260.162 115.946 259.447 113.929 258.016 112.197H259.027C260.449 113.865 261.16 115.886 261.16 118.261C261.16 120.626 260.449 122.615 259.027 124.229Z" fill="white"/>
<path d="M162 138.5H172V148.5H162V138.5Z" fill="#EF8100"/>
<path d="M196.279 149H195.138V142.424C195.138 141.904 195.17 141.269 195.233 140.517H195.206C195.097 140.959 194.999 141.275 194.912 141.467L191.562 149H191.002L187.659 141.521C187.563 141.303 187.465 140.968 187.365 140.517H187.338C187.374 140.909 187.393 141.549 187.393 142.438V149H186.285V139.197H187.803L190.811 146.033C191.043 146.557 191.193 146.949 191.262 147.209H191.303C191.499 146.671 191.656 146.27 191.774 146.006L194.844 139.197H196.279V149Z" fill="white"/>
<path d="M204.185 145.78H199.242C199.261 146.56 199.47 147.161 199.871 147.585C200.272 148.009 200.824 148.221 201.526 148.221C202.314 148.221 203.039 147.961 203.7 147.441V148.494C203.084 148.941 202.271 149.164 201.259 149.164C200.27 149.164 199.493 148.847 198.928 148.214C198.363 147.576 198.08 146.68 198.08 145.527C198.08 144.438 198.388 143.552 199.003 142.868C199.623 142.18 200.391 141.836 201.307 141.836C202.223 141.836 202.932 142.132 203.433 142.725C203.934 143.317 204.185 144.14 204.185 145.192V145.78ZM203.036 144.83C203.032 144.183 202.875 143.679 202.565 143.319C202.259 142.959 201.833 142.779 201.286 142.779C200.758 142.779 200.309 142.968 199.94 143.347C199.571 143.725 199.343 144.219 199.256 144.83H203.036Z" fill="white"/>
<path d="M211.708 149H210.587V147.811H210.559C210.04 148.713 209.238 149.164 208.153 149.164C207.273 149.164 206.569 148.852 206.041 148.228C205.517 147.599 205.255 146.744 205.255 145.664C205.255 144.507 205.546 143.579 206.13 142.882C206.713 142.185 207.49 141.836 208.461 141.836C209.422 141.836 210.122 142.214 210.559 142.971H210.587V138.637H211.708V149ZM210.587 145.835V144.803C210.587 144.238 210.4 143.759 210.026 143.367C209.652 142.975 209.178 142.779 208.604 142.779C207.921 142.779 207.383 143.03 206.991 143.531C206.599 144.033 206.403 144.725 206.403 145.609C206.403 146.416 206.59 147.054 206.963 147.523C207.342 147.988 207.848 148.221 208.481 148.221C209.105 148.221 209.611 147.995 209.999 147.544C210.391 147.093 210.587 146.523 210.587 145.835Z" fill="white"/>
<path d="M214.397 140.223C214.197 140.223 214.026 140.154 213.885 140.018C213.743 139.881 213.673 139.708 213.673 139.498C213.673 139.288 213.743 139.115 213.885 138.979C214.026 138.837 214.197 138.767 214.397 138.767C214.602 138.767 214.776 138.837 214.917 138.979C215.063 139.115 215.136 139.288 215.136 139.498C215.136 139.699 215.063 139.869 214.917 140.011C214.776 140.152 214.602 140.223 214.397 140.223ZM214.944 149H213.823V142H214.944V149Z" fill="white"/>
<path d="M222.72 149H221.599V147.893H221.572C221.107 148.74 220.387 149.164 219.411 149.164C217.743 149.164 216.909 148.171 216.909 146.184V142H218.024V146.006C218.024 147.482 218.589 148.221 219.719 148.221C220.266 148.221 220.715 148.02 221.066 147.619C221.421 147.214 221.599 146.685 221.599 146.033V142H222.72V149Z" fill="white"/>
<path d="M234.775 149H233.654V144.98C233.654 144.206 233.533 143.645 233.292 143.299C233.055 142.952 232.654 142.779 232.088 142.779C231.61 142.779 231.202 142.998 230.865 143.436C230.532 143.873 230.366 144.397 230.366 145.008V149H229.245V144.844C229.245 143.467 228.714 142.779 227.652 142.779C227.16 142.779 226.754 142.987 226.435 143.401C226.116 143.812 225.957 144.347 225.957 145.008V149H224.835V142H225.957V143.107H225.984C226.481 142.26 227.205 141.836 228.158 141.836C228.636 141.836 229.053 141.97 229.409 142.239C229.764 142.504 230.008 142.852 230.14 143.285C230.66 142.319 231.434 141.836 232.464 141.836C234.005 141.836 234.775 142.786 234.775 144.687V149Z" fill="white"/>
<path d="M244.078 143.135C243.882 142.984 243.6 142.909 243.231 142.909C242.752 142.909 242.351 143.135 242.027 143.586C241.708 144.037 241.549 144.652 241.549 145.432V149H240.428V142H241.549V143.442H241.576C241.736 142.95 241.98 142.567 242.308 142.294C242.636 142.016 243.003 141.877 243.408 141.877C243.7 141.877 243.923 141.909 244.078 141.973V143.135Z" fill="white"/>
<path d="M245.715 140.223C245.515 140.223 245.344 140.154 245.203 140.018C245.061 139.881 244.991 139.708 244.991 139.498C244.991 139.288 245.061 139.115 245.203 138.979C245.344 138.837 245.515 138.767 245.715 138.767C245.92 138.767 246.094 138.837 246.235 138.979C246.381 139.115 246.454 139.288 246.454 139.498C246.454 139.699 246.381 139.869 246.235 140.011C246.094 140.152 245.92 140.223 245.715 140.223ZM246.262 149H245.141V142H246.262V149Z" fill="white"/>
<path d="M247.954 148.747V147.544C248.565 147.995 249.237 148.221 249.97 148.221C250.955 148.221 251.447 147.893 251.447 147.236C251.447 147.049 251.404 146.892 251.317 146.765C251.235 146.632 251.121 146.516 250.975 146.416C250.834 146.316 250.665 146.227 250.469 146.149C250.278 146.067 250.071 145.983 249.847 145.896C249.538 145.773 249.264 145.65 249.027 145.527C248.795 145.4 248.599 145.258 248.439 145.104C248.284 144.944 248.166 144.764 248.084 144.563C248.006 144.363 247.968 144.128 247.968 143.859C247.968 143.531 248.043 143.242 248.193 142.991C248.343 142.736 248.544 142.524 248.795 142.355C249.045 142.182 249.33 142.052 249.649 141.966C249.973 141.879 250.305 141.836 250.647 141.836C251.253 141.836 251.796 141.941 252.274 142.15V143.285C251.759 142.948 251.167 142.779 250.497 142.779C250.287 142.779 250.098 142.804 249.929 142.854C249.761 142.9 249.615 142.966 249.492 143.053C249.373 143.139 249.28 143.244 249.212 143.367C249.148 143.486 249.116 143.618 249.116 143.764C249.116 143.946 249.148 144.099 249.212 144.222C249.28 144.345 249.378 144.454 249.506 144.55C249.633 144.646 249.788 144.732 249.97 144.81C250.153 144.887 250.36 144.971 250.593 145.062C250.902 145.181 251.18 145.304 251.426 145.432C251.673 145.555 251.882 145.696 252.055 145.855C252.229 146.01 252.361 146.19 252.452 146.396C252.548 146.601 252.595 146.844 252.595 147.127C252.595 147.473 252.518 147.774 252.363 148.029C252.213 148.285 252.01 148.496 251.755 148.665C251.499 148.834 251.205 148.959 250.873 149.041C250.54 149.123 250.191 149.164 249.827 149.164C249.107 149.164 248.482 149.025 247.954 148.747Z" fill="white"/>
<path d="M259.981 149H258.409L255.319 145.637H255.292V149H254.171V138.637H255.292V145.206H255.319L258.259 142H259.729L256.481 145.377L259.981 149Z" fill="white"/>
<path d="M267.603 151.229H266.605C265.192 149.615 264.486 147.626 264.486 145.261C264.486 142.886 265.192 140.865 266.605 139.197H267.617C266.186 140.929 265.47 142.946 265.47 145.247C265.47 147.53 266.181 149.524 267.603 151.229Z" fill="white"/>
<path d="M268.215 146.266C268.215 146.006 268.256 145.746 268.338 145.486C268.42 145.222 268.536 144.976 268.686 144.748C268.841 144.52 269.031 144.313 269.254 144.126C269.482 143.939 269.739 143.791 270.026 143.682C269.602 143.445 269.265 143.142 269.015 142.772C268.764 142.399 268.639 141.986 268.639 141.535C268.639 141.175 268.707 140.842 268.844 140.537C268.985 140.232 269.179 139.967 269.425 139.744C269.671 139.521 269.962 139.348 270.3 139.225C270.637 139.097 271.002 139.033 271.393 139.033C271.79 139.033 272.157 139.097 272.494 139.225C272.831 139.352 273.123 139.528 273.369 139.751C273.615 139.974 273.807 140.239 273.943 140.544C274.08 140.849 274.148 141.18 274.148 141.535C274.148 141.986 274.023 142.399 273.772 142.772C273.522 143.142 273.189 143.445 272.774 143.682C273.057 143.791 273.31 143.939 273.533 144.126C273.756 144.313 273.943 144.52 274.094 144.748C274.249 144.976 274.367 145.222 274.449 145.486C274.531 145.746 274.572 146.006 274.572 146.266C274.572 146.694 274.495 147.086 274.34 147.441C274.185 147.797 273.966 148.102 273.684 148.357C273.406 148.608 273.071 148.804 272.679 148.945C272.291 149.087 271.863 149.157 271.393 149.157C270.929 149.157 270.503 149.087 270.115 148.945C269.728 148.804 269.393 148.608 269.11 148.357C268.828 148.102 268.607 147.797 268.447 147.441C268.292 147.086 268.215 146.694 268.215 146.266ZM269.432 146.17C269.432 146.475 269.477 146.751 269.568 146.997C269.664 147.243 269.796 147.453 269.965 147.626C270.138 147.799 270.345 147.934 270.587 148.029C270.833 148.12 271.104 148.166 271.4 148.166C271.687 148.166 271.952 148.118 272.193 148.022C272.435 147.927 272.642 147.792 272.815 147.619C272.993 147.446 273.13 147.236 273.226 146.99C273.326 146.744 273.376 146.471 273.376 146.17C273.376 145.896 273.328 145.641 273.232 145.404C273.141 145.163 273.009 144.951 272.836 144.769C272.663 144.586 272.455 144.443 272.214 144.338C271.972 144.233 271.701 144.181 271.4 144.181C271.118 144.181 270.856 144.231 270.614 144.331C270.377 144.427 270.17 144.563 269.992 144.741C269.819 144.914 269.682 145.124 269.582 145.37C269.482 145.612 269.432 145.878 269.432 146.17ZM269.78 141.624C269.78 141.856 269.821 142.073 269.903 142.273C269.99 142.469 270.106 142.643 270.252 142.793C270.402 142.939 270.575 143.055 270.771 143.142C270.967 143.224 271.177 143.265 271.4 143.265C271.624 143.265 271.833 143.221 272.029 143.135C272.23 143.048 272.403 142.932 272.549 142.786C272.695 142.636 272.811 142.463 272.897 142.267C272.984 142.066 273.027 141.852 273.027 141.624C273.027 141.387 272.984 141.168 272.897 140.968C272.815 140.767 272.701 140.594 272.556 140.448C272.41 140.302 272.237 140.188 272.036 140.106C271.84 140.02 271.628 139.977 271.4 139.977C271.159 139.977 270.938 140.02 270.737 140.106C270.541 140.193 270.37 140.312 270.225 140.462C270.083 140.608 269.974 140.781 269.896 140.981C269.819 141.182 269.78 141.396 269.78 141.624Z" fill="white"/>
<path d="M276.155 151.229H275.156C276.578 149.524 277.289 147.53 277.289 145.247C277.289 142.946 276.574 140.929 275.143 139.197H276.155C277.576 140.865 278.287 142.886 278.287 145.261C278.287 147.626 277.576 149.615 276.155 151.229Z" fill="white"/>
<path d="M162 165.5H172V175.5H162V165.5Z" fill="#00AEEF"/>
<path d="M191.371 176H186.285V166.197H187.434V174.961H191.371V176Z" fill="white"/>
<path d="M195.496 176.164C194.462 176.164 193.635 175.838 193.015 175.187C192.4 174.53 192.092 173.662 192.092 172.582C192.092 171.406 192.413 170.488 193.056 169.827C193.699 169.166 194.567 168.836 195.66 168.836C196.704 168.836 197.518 169.157 198.101 169.8C198.689 170.442 198.983 171.333 198.983 172.473C198.983 173.589 198.666 174.485 198.033 175.159C197.404 175.829 196.558 176.164 195.496 176.164ZM195.578 169.779C194.858 169.779 194.289 170.025 193.869 170.518C193.45 171.005 193.241 171.68 193.241 172.541C193.241 173.37 193.452 174.024 193.876 174.503C194.3 174.981 194.867 175.221 195.578 175.221C196.303 175.221 196.859 174.986 197.246 174.517C197.638 174.047 197.834 173.38 197.834 172.514C197.834 171.639 197.638 170.964 197.246 170.49C196.859 170.016 196.303 169.779 195.578 169.779Z" fill="white"/>
<path d="M209.438 169L207.339 176H206.177L204.735 170.989C204.68 170.798 204.644 170.581 204.626 170.34H204.598C204.585 170.504 204.537 170.716 204.455 170.976L202.889 176H201.768L199.649 169H200.825L202.274 174.264C202.32 174.423 202.352 174.633 202.37 174.893H202.424C202.438 174.692 202.479 174.478 202.547 174.25L204.161 169H205.186L206.635 174.277C206.681 174.446 206.715 174.656 206.738 174.906H206.793C206.802 174.729 206.84 174.519 206.909 174.277L208.331 169H209.438Z" fill="white"/>
<path d="M217.921 170.135C217.725 169.984 217.443 169.909 217.073 169.909C216.595 169.909 216.194 170.135 215.87 170.586C215.551 171.037 215.392 171.652 215.392 172.432V176H214.271V169H215.392V170.442H215.419C215.579 169.95 215.822 169.567 216.151 169.294C216.479 169.016 216.846 168.877 217.251 168.877C217.543 168.877 217.766 168.909 217.921 168.973V170.135Z" fill="white"/>
<path d="M219.558 167.223C219.358 167.223 219.187 167.154 219.045 167.018C218.904 166.881 218.834 166.708 218.834 166.498C218.834 166.288 218.904 166.115 219.045 165.979C219.187 165.837 219.358 165.767 219.558 165.767C219.763 165.767 219.936 165.837 220.078 165.979C220.223 166.115 220.296 166.288 220.296 166.498C220.296 166.699 220.223 166.869 220.078 167.011C219.936 167.152 219.763 167.223 219.558 167.223ZM220.105 176H218.984V169H220.105V176Z" fill="white"/>
<path d="M221.797 175.747V174.544C222.407 174.995 223.08 175.221 223.813 175.221C224.798 175.221 225.29 174.893 225.29 174.236C225.29 174.049 225.247 173.892 225.16 173.765C225.078 173.632 224.964 173.516 224.818 173.416C224.677 173.316 224.508 173.227 224.312 173.149C224.121 173.067 223.914 172.983 223.69 172.896C223.38 172.773 223.107 172.65 222.87 172.527C222.638 172.4 222.442 172.258 222.282 172.104C222.127 171.944 222.009 171.764 221.927 171.563C221.849 171.363 221.81 171.128 221.81 170.859C221.81 170.531 221.886 170.242 222.036 169.991C222.186 169.736 222.387 169.524 222.638 169.355C222.888 169.182 223.173 169.052 223.492 168.966C223.816 168.879 224.148 168.836 224.49 168.836C225.096 168.836 225.639 168.941 226.117 169.15V170.285C225.602 169.948 225.01 169.779 224.34 169.779C224.13 169.779 223.941 169.804 223.772 169.854C223.604 169.9 223.458 169.966 223.335 170.053C223.216 170.139 223.123 170.244 223.055 170.367C222.991 170.486 222.959 170.618 222.959 170.764C222.959 170.946 222.991 171.099 223.055 171.222C223.123 171.345 223.221 171.454 223.348 171.55C223.476 171.646 223.631 171.732 223.813 171.81C223.996 171.887 224.203 171.971 224.435 172.062C224.745 172.181 225.023 172.304 225.269 172.432C225.515 172.555 225.725 172.696 225.898 172.855C226.071 173.01 226.204 173.19 226.295 173.396C226.39 173.601 226.438 173.844 226.438 174.127C226.438 174.473 226.361 174.774 226.206 175.029C226.055 175.285 225.853 175.496 225.597 175.665C225.342 175.834 225.048 175.959 224.716 176.041C224.383 176.123 224.034 176.164 223.67 176.164C222.95 176.164 222.325 176.025 221.797 175.747Z" fill="white"/>
<path d="M233.824 176H232.252L229.162 172.637H229.135V176H228.014V165.637H229.135V172.206H229.162L232.102 169H233.571L230.324 172.377L233.824 176Z" fill="white"/>
<path d="M241.446 178.229H240.448C239.035 176.615 238.329 174.626 238.329 172.261C238.329 169.886 239.035 167.865 240.448 166.197H241.46C240.029 167.929 239.313 169.946 239.313 172.247C239.313 174.53 240.024 176.524 241.446 178.229Z" fill="white"/>
<path d="M246.392 176H245.271V167.53C245.184 167.617 245.056 167.717 244.888 167.831C244.724 167.94 244.537 168.05 244.327 168.159C244.122 168.269 243.903 168.371 243.671 168.467C243.443 168.562 243.22 168.638 243.001 168.692V167.558C243.247 167.489 243.507 167.398 243.78 167.284C244.058 167.166 244.329 167.036 244.594 166.895C244.863 166.749 245.116 166.598 245.353 166.443C245.59 166.284 245.795 166.129 245.968 165.979H246.392V176Z" fill="white"/>
<path d="M255.808 171.058C255.808 171.878 255.733 172.605 255.582 173.238C255.437 173.872 255.222 174.407 254.94 174.845C254.662 175.278 254.318 175.608 253.908 175.836C253.502 176.059 253.039 176.171 252.52 176.171C252.028 176.171 251.588 176.064 251.201 175.85C250.818 175.631 250.494 175.314 250.23 174.899C249.965 174.485 249.765 173.977 249.628 173.375C249.492 172.769 249.423 172.076 249.423 171.297C249.423 170.44 249.494 169.684 249.635 169.027C249.781 168.371 249.993 167.822 250.271 167.38C250.549 166.933 250.893 166.598 251.303 166.375C251.718 166.147 252.192 166.033 252.725 166.033C254.78 166.033 255.808 167.708 255.808 171.058ZM254.66 171.167C254.66 168.378 253.996 166.983 252.67 166.983C251.271 166.983 250.572 168.403 250.572 171.242C250.572 173.89 251.257 175.214 252.629 175.214C253.983 175.214 254.66 173.865 254.66 171.167Z" fill="white"/>
<path d="M257.39 178.229H256.392C257.814 176.524 258.525 174.53 258.525 172.247C258.525 169.946 257.81 167.929 256.379 166.197H257.39C258.812 167.865 259.523 169.886 259.523 172.261C259.523 174.626 258.812 176.615 257.39 178.229Z" fill="white"/>
</svg>
