<svg width="20" height="20" viewBox="0 0 20 20" fill="none" xmlns="http://www.w3.org/2000/svg">
<path fill-rule="evenodd" clip-rule="evenodd" d="M0.833984 10.0002C0.833984 4.93755 4.93804 0.833496 10.0007 0.833496C15.0633 0.833496 19.1673 4.93755 19.1673 10.0002C19.1673 15.0628 15.0633 19.1668 10.0007 19.1668C4.93804 19.1668 0.833984 15.0628 0.833984 10.0002Z" fill="#138A00"/>
<path fill-rule="evenodd" clip-rule="evenodd" d="M14.4253 6.70264C14.7507 7.02807 14.7507 7.55571 14.4253 7.88115L9.25267 13.2978C8.92723 13.6232 8.39959 13.6232 8.07416 13.2978L5.57416 10.7978C5.24872 10.4724 5.24872 9.94474 5.57416 9.6193C5.89959 9.29387 6.42723 9.29387 6.75267 9.6193L8.66341 11.53L13.2467 6.70264C13.5722 6.3772 14.0998 6.3772 14.4253 6.70264Z" fill="white"/>
</svg>
