<svg width="68" height="73" viewBox="0 0 68 73" fill="none" xmlns="http://www.w3.org/2000/svg">
<path d="M34.3952 40.2952V70.7208" stroke="black" stroke-width="3" stroke-miterlimit="10" stroke-linecap="round" stroke-linejoin="round"/>
<path d="M34.3992 39.2032C37.0656 39.2032 39.2272 37.0423 39.2272 34.3768C39.2272 31.7112 37.0656 29.5504 34.3992 29.5504C31.7328 29.5504 29.5712 31.7112 29.5712 34.3768C29.5712 37.0423 31.7328 39.2032 34.3992 39.2032Z" stroke="black" stroke-width="3" stroke-miterlimit="10" stroke-linecap="round" stroke-linejoin="round"/>
<path d="M9.4832 53.7368C5.0184 48.2272 2.3416 41.2064 2.3416 33.5608C2.3416 15.8568 16.6952 1.50079 34.3992 1.50079C52.1032 1.50079 66.456 15.8568 66.456 33.5608C66.456 41.2032 63.7864 48.2136 59.3224 53.7224" stroke="black" stroke-width="3" stroke-miterlimit="10" stroke-linecap="round" stroke-linejoin="round"/>
<path d="M18.3752 41.4904C17.4712 39.384 16.9688 37.0632 16.9688 34.6224C16.9688 24.9976 24.7712 17.1952 34.3952 17.1952C44.0256 17.1952 51.8264 24.9976 51.8264 34.6224C51.8264 37.224 51.2584 39.6912 50.2376 41.9064" stroke="black" stroke-width="3" stroke-miterlimit="10" stroke-linecap="round" stroke-linejoin="round"/>
</svg>
