<svg width="24" height="24" viewBox="0 0 24 24" fill="none" xmlns="http://www.w3.org/2000/svg">
<g clip-path="url(#clip0_643_6051)">
<circle cx="12" cy="12" r="12" fill="#D9D9D9"/>
<path d="M16.7639 11.125H7.23611C6.48439 11.125 5.875 11.766 5.875 12.5568V17.5682C5.875 18.359 6.48439 19 7.23611 19H16.7639C17.5156 19 18.125 18.359 18.125 17.5682V12.5568C18.125 11.766 17.5156 11.125 16.7639 11.125Z" stroke="black" stroke-linecap="round" stroke-linejoin="round"/>
<path d="M8.5 11.125V8.40278C8.5 7.50031 8.86875 6.6348 9.52513 5.99665C10.1815 5.35851 11.0717 5 12 5C12.9283 5 13.8185 5.35851 14.4749 5.99665C15.1313 6.6348 15.5 7.50031 15.5 8.40278V11.125" stroke="black" stroke-linecap="round" stroke-linejoin="round"/>
</g>
<defs>
<clipPath id="clip0_643_6051">
<rect width="24" height="24" fill="white"/>
</clipPath>
</defs>
</svg>
