<svg width="131" height="35" viewBox="0 0 131 35" fill="none" xmlns="http://www.w3.org/2000/svg">
<rect width="82" height="35" rx="10" fill="#FED136"/>
<path d="M13.7969 26.2344C12.5625 26.2344 11.5 25.9844 10.6094 25.4844C9.72396 24.9792 9.04167 24.2656 8.5625 23.3437C8.08333 22.4167 7.84375 21.3203 7.84375 20.0547C7.84375 18.8203 8.08333 17.737 8.5625 16.8047C9.04167 15.8724 9.71615 15.1458 10.5859 14.625C11.4609 14.1042 12.487 13.8438 13.6641 13.8438C14.4557 13.8438 15.1927 13.9714 15.875 14.2266C16.5625 14.4766 17.1615 14.8542 17.6719 15.3594C18.1875 15.8646 18.5885 16.5 18.875 17.2656C19.1615 18.026 19.3047 18.9167 19.3047 19.9375V20.8516H9.17188V18.7891H16.1719C16.1719 18.3099 16.0677 17.8854 15.8594 17.5156C15.651 17.1458 15.362 16.8568 14.9922 16.6484C14.6276 16.4349 14.2031 16.3281 13.7188 16.3281C13.2135 16.3281 12.7656 16.4453 12.375 16.6797C11.9896 16.9089 11.6875 17.2187 11.4688 17.6094C11.25 17.9948 11.138 18.4245 11.1328 18.8984V20.8594C11.1328 21.4531 11.2422 21.9661 11.4609 22.3984C11.6849 22.8307 12 23.1641 12.4063 23.3984C12.8125 23.6328 13.2943 23.75 13.8516 23.75C14.2214 23.75 14.5599 23.6979 14.8672 23.5938C15.1745 23.4896 15.4375 23.3333 15.6562 23.125C15.875 22.9167 16.0417 22.6615 16.1563 22.3594L19.2344 22.5625C19.0781 23.3021 18.7578 23.9479 18.2734 24.5C17.7943 25.0469 17.1745 25.474 16.4141 25.7813C15.6589 26.0833 14.7865 26.2344 13.7969 26.2344ZM36.2422 18C36.2422 19.7448 35.9115 21.2292 35.25 22.4531C34.5938 23.6771 33.6979 24.612 32.5625 25.2578C31.4323 25.8984 30.1615 26.2187 28.75 26.2187C27.3281 26.2187 26.0521 25.8958 24.9219 25.25C23.7917 24.6042 22.8984 23.6693 22.2422 22.4453C21.5859 21.2214 21.2578 19.7396 21.2578 18C21.2578 16.2552 21.5859 14.7708 22.2422 13.5469C22.8984 12.3229 23.7917 11.3906 24.9219 10.75C26.0521 10.1042 27.3281 9.78125 28.75 9.78125C30.1615 9.78125 31.4323 10.1042 32.5625 10.75C33.6979 11.3906 34.5938 12.3229 35.25 13.5469C35.9115 14.7708 36.2422 16.2552 36.2422 18ZM32.8125 18C32.8125 16.8698 32.6432 15.9167 32.3047 15.1406C31.9714 14.3646 31.5 13.776 30.8906 13.375C30.2813 12.974 29.5677 12.7734 28.75 12.7734C27.9323 12.7734 27.2188 12.974 26.6094 13.375C26 13.776 25.526 14.3646 25.1875 15.1406C24.8542 15.9167 24.6875 16.8698 24.6875 18C24.6875 19.1302 24.8542 20.0833 25.1875 20.8594C25.526 21.6354 26 22.224 26.6094 22.625C27.2188 23.026 27.9323 23.2266 28.75 23.2266C29.5677 23.2266 30.2813 23.026 30.8906 22.625C31.5 22.224 31.9714 21.6354 32.3047 20.8594C32.6432 20.0833 32.8125 19.1302 32.8125 18ZM38.6855 30.5V14H41.9668V16.0156H42.1152C42.2611 15.6927 42.472 15.3646 42.748 15.0312C43.0293 14.6927 43.3939 14.4115 43.8418 14.1875C44.2949 13.9583 44.8574 13.8438 45.5293 13.8438C46.4043 13.8438 47.2116 14.0729 47.9512 14.5313C48.6908 14.9844 49.2819 15.6693 49.7246 16.5859C50.1673 17.4974 50.3887 18.6406 50.3887 20.0156C50.3887 21.3542 50.1725 22.4844 49.7402 23.4062C49.3132 24.3229 48.7298 25.0182 47.9902 25.4922C47.2559 25.9609 46.4329 26.1953 45.5215 26.1953C44.8757 26.1953 44.3262 26.0885 43.873 25.875C43.4251 25.6615 43.0579 25.3932 42.7715 25.0703C42.485 24.7422 42.2663 24.4115 42.1152 24.0781H42.0137V30.5H38.6855ZM41.9434 20C41.9434 20.7135 42.0423 21.3359 42.2402 21.8672C42.4382 22.3984 42.7246 22.8125 43.0996 23.1094C43.4746 23.401 43.9303 23.5469 44.4668 23.5469C45.0085 23.5469 45.4668 23.3984 45.8418 23.1016C46.2168 22.7995 46.5007 22.3828 46.6934 21.8516C46.8913 21.3151 46.9902 20.6979 46.9902 20C46.9902 19.3073 46.8939 18.6979 46.7012 18.1719C46.5085 17.6458 46.2246 17.2344 45.8496 16.9375C45.4746 16.6406 45.0137 16.4922 44.4668 16.4922C43.9251 16.4922 43.4668 16.6354 43.0918 16.9219C42.722 17.2083 42.4382 17.6146 42.2402 18.1406C42.0423 18.6667 41.9434 19.2865 41.9434 20ZM62.5918 17.4219L59.5449 17.6094C59.4928 17.349 59.3809 17.1146 59.209 16.9062C59.0371 16.6927 58.8105 16.5234 58.5293 16.3984C58.2533 16.2682 57.9225 16.2031 57.5371 16.2031C57.0215 16.2031 56.5866 16.3125 56.2324 16.5312C55.8783 16.7448 55.7012 17.0312 55.7012 17.3906C55.7012 17.6771 55.8158 17.9193 56.0449 18.1172C56.2741 18.3151 56.6673 18.474 57.2246 18.5937L59.3965 19.0312C60.5632 19.2708 61.4329 19.6562 62.0059 20.1875C62.5788 20.7187 62.8652 21.4167 62.8652 22.2812C62.8652 23.0677 62.6335 23.7578 62.1699 24.3516C61.7116 24.9453 61.0814 25.4089 60.2793 25.7422C59.4824 26.0703 58.5632 26.2344 57.5215 26.2344C55.9329 26.2344 54.6673 25.9036 53.7246 25.2422C52.7871 24.5755 52.2376 23.6693 52.0762 22.5234L55.3496 22.3516C55.4486 22.8359 55.6882 23.2057 56.0684 23.4609C56.4486 23.7109 56.9355 23.8359 57.5293 23.8359C58.1126 23.8359 58.5814 23.724 58.9355 23.5C59.2949 23.2708 59.4772 22.9766 59.4824 22.6172C59.4772 22.3151 59.3496 22.0677 59.0996 21.875C58.8496 21.6771 58.4642 21.526 57.9434 21.4219L55.8652 21.0078C54.6934 20.7734 53.821 20.3672 53.248 19.7891C52.6803 19.2109 52.3965 18.474 52.3965 17.5781C52.3965 16.8073 52.6048 16.1432 53.0215 15.5859C53.4434 15.0286 54.0345 14.599 54.7949 14.2969C55.5605 13.9948 56.4564 13.8438 57.4824 13.8438C58.998 13.8438 60.1908 14.1641 61.0605 14.8047C61.9355 15.4453 62.446 16.3177 62.5918 17.4219Z" fill="black"/>
<path d="M64.3381 15.956V15.4091H68.1562V15.956H66.5554V20.5H65.9389V15.956H64.3381ZM69.1077 15.4091H69.8435L71.5736 19.6349H71.6333L73.3634 15.4091H74.0992V20.5H73.5225V16.6321H73.4727L71.8818 20.5H71.325L69.7341 16.6321H69.6844V20.5H69.1077V15.4091Z" fill="black"/>
<path d="M84.2784 23V11.3636H91.4943V12.875H86.0341V16.4205H90.9773V17.9261H86.0341V23H84.2784ZM96.0256 23.1932C95.4725 23.1932 94.9725 23.0909 94.5256 22.8864C94.0786 22.678 93.7244 22.3769 93.4631 21.983C93.2055 21.589 93.0767 21.1061 93.0767 20.5341C93.0767 20.0417 93.1714 19.6364 93.3608 19.3182C93.5502 19 93.8059 18.7481 94.1278 18.5625C94.4498 18.3769 94.8097 18.2367 95.2074 18.142C95.6051 18.0473 96.0104 17.9754 96.4233 17.9261C96.946 17.8655 97.3703 17.8163 97.696 17.7784C98.0218 17.7367 98.2585 17.6705 98.4062 17.5795C98.554 17.4886 98.6278 17.3409 98.6278 17.1364V17.0966C98.6278 16.6004 98.4877 16.2159 98.2074 15.9432C97.9309 15.6705 97.518 15.5341 96.9688 15.5341C96.3968 15.5341 95.946 15.661 95.6165 15.9148C95.2907 16.1648 95.0653 16.4432 94.9403 16.75L93.3438 16.3864C93.5331 15.8561 93.8097 15.428 94.1733 15.1023C94.5407 14.7727 94.9631 14.5341 95.4403 14.3864C95.9176 14.2348 96.4195 14.1591 96.946 14.1591C97.2945 14.1591 97.6638 14.2008 98.054 14.2841C98.4479 14.3636 98.8153 14.5114 99.1562 14.7273C99.5009 14.9432 99.7831 15.2519 100.003 15.6534C100.223 16.0511 100.332 16.5682 100.332 17.2045V23H98.6733V21.8068H98.6051C98.4953 22.0265 98.3305 22.2424 98.1108 22.4545C97.8911 22.6667 97.6089 22.8428 97.2642 22.983C96.9195 23.1231 96.5066 23.1932 96.0256 23.1932ZM96.3949 21.8295C96.8646 21.8295 97.2661 21.7367 97.5994 21.5511C97.9366 21.3655 98.1922 21.1231 98.3665 20.8239C98.5445 20.5208 98.6335 20.197 98.6335 19.8523V18.7273C98.5729 18.7879 98.4555 18.8447 98.2812 18.8977C98.1108 18.947 97.9157 18.9905 97.696 19.0284C97.4763 19.0625 97.2623 19.0947 97.054 19.125C96.8456 19.1515 96.6714 19.1742 96.5312 19.1932C96.2017 19.2348 95.9006 19.3049 95.6278 19.4034C95.3589 19.5019 95.143 19.6439 94.9801 19.8295C94.821 20.0114 94.7415 20.2538 94.7415 20.5568C94.7415 20.9773 94.8968 21.2955 95.2074 21.5114C95.518 21.7235 95.9138 21.8295 96.3949 21.8295ZM102.732 23V11.3636H104.43V15.6875H104.533C104.631 15.5057 104.773 15.2955 104.959 15.0568C105.144 14.8182 105.402 14.6098 105.732 14.4318C106.061 14.25 106.497 14.1591 107.038 14.1591C107.743 14.1591 108.372 14.3371 108.925 14.6932C109.478 15.0492 109.911 15.5625 110.226 16.233C110.544 16.9034 110.703 17.7102 110.703 18.6534C110.703 19.5966 110.546 20.4053 110.232 21.0795C109.917 21.75 109.485 22.267 108.936 22.6307C108.387 22.9905 107.76 23.1705 107.055 23.1705C106.525 23.1705 106.091 23.0814 105.754 22.9034C105.421 22.7254 105.16 22.517 104.97 22.2784C104.781 22.0398 104.635 21.8277 104.533 21.642H104.391V23H102.732ZM104.396 18.6364C104.396 19.25 104.485 19.7879 104.663 20.25C104.841 20.7121 105.099 21.0739 105.436 21.3352C105.773 21.5928 106.186 21.7216 106.675 21.7216C107.182 21.7216 107.607 21.5871 107.947 21.3182C108.288 21.0455 108.546 20.6761 108.72 20.2102C108.898 19.7443 108.987 19.2197 108.987 18.6364C108.987 18.0606 108.9 17.5436 108.726 17.0852C108.555 16.6269 108.298 16.2652 107.953 16C107.612 15.7348 107.186 15.6023 106.675 15.6023C106.182 15.6023 105.766 15.7292 105.425 15.983C105.088 16.2367 104.832 16.5909 104.658 17.0455C104.483 17.5 104.396 18.0303 104.396 18.6364ZM112.611 23V14.2727H114.253V15.6591H114.344C114.503 15.1894 114.783 14.8201 115.185 14.5511C115.59 14.2784 116.048 14.142 116.56 14.142C116.666 14.142 116.791 14.1458 116.935 14.1534C117.082 14.161 117.198 14.1705 117.281 14.1818V15.8068C117.213 15.7879 117.092 15.767 116.918 15.7443C116.743 15.7178 116.569 15.7045 116.395 15.7045C115.993 15.7045 115.635 15.7898 115.321 15.9602C115.01 16.1269 114.764 16.3598 114.582 16.6591C114.401 16.9545 114.31 17.2917 114.31 17.6705V23H112.611ZM118.751 23V14.2727H120.45V23H118.751ZM119.609 12.9261C119.314 12.9261 119.06 12.8277 118.848 12.6307C118.64 12.4299 118.536 12.1913 118.536 11.9148C118.536 11.6345 118.64 11.3958 118.848 11.1989C119.06 10.9981 119.314 10.8977 119.609 10.8977C119.905 10.8977 120.157 10.9981 120.365 11.1989C120.577 11.3958 120.683 11.6345 120.683 11.9148C120.683 12.1913 120.577 12.4299 120.365 12.6307C120.157 12.8277 119.905 12.9261 119.609 12.9261ZM126.412 23.1761C125.567 23.1761 124.84 22.9848 124.23 22.6023C123.624 22.2159 123.158 21.6837 122.832 21.0057C122.507 20.3277 122.344 19.5511 122.344 18.6761C122.344 17.7898 122.51 17.0076 122.844 16.3295C123.177 15.6477 123.647 15.1155 124.253 14.733C124.859 14.3504 125.573 14.1591 126.395 14.1591C127.058 14.1591 127.649 14.2822 128.168 14.5284C128.687 14.7708 129.105 15.1117 129.423 15.5511C129.745 15.9905 129.937 16.5038 129.997 17.0909H128.344C128.253 16.6818 128.045 16.3295 127.719 16.0341C127.397 15.7386 126.965 15.5909 126.423 15.5909C125.95 15.5909 125.535 15.7159 125.179 15.9659C124.827 16.2121 124.552 16.5644 124.355 17.0227C124.158 17.4773 124.06 18.0152 124.06 18.6364C124.06 19.2727 124.156 19.822 124.349 20.2841C124.543 20.7462 124.815 21.1042 125.168 21.358C125.524 21.6117 125.942 21.7386 126.423 21.7386C126.745 21.7386 127.037 21.6799 127.298 21.5625C127.563 21.4413 127.785 21.2689 127.963 21.0455C128.145 20.822 128.272 20.553 128.344 20.2386H129.997C129.937 20.803 129.753 21.3068 129.446 21.75C129.139 22.1932 128.728 22.5417 128.213 22.7955C127.702 23.0492 127.101 23.1761 126.412 23.1761Z" fill="black"/>
</svg>
