<svg width="132" height="36" viewBox="0 0 132 36" fill="none" xmlns="http://www.w3.org/2000/svg">
<rect x="0.5" y="0.5" width="82" height="35" rx="10" fill="#FED136"/>
<path d="M14.2969 26.7344C13.0625 26.7344 12 26.4844 11.1094 25.9844C10.224 25.4792 9.54167 24.7656 9.0625 23.8437C8.58333 22.9167 8.34375 21.8203 8.34375 20.5547C8.34375 19.3203 8.58333 18.237 9.0625 17.3047C9.54167 16.3724 10.2161 15.6458 11.0859 15.125C11.9609 14.6042 12.987 14.3438 14.1641 14.3438C14.9557 14.3438 15.6927 14.4714 16.375 14.7266C17.0625 14.9766 17.6615 15.3542 18.1719 15.8594C18.6875 16.3646 19.0885 17 19.375 17.7656C19.6615 18.526 19.8047 19.4167 19.8047 20.4375V21.3516H9.67188V19.2891H16.6719C16.6719 18.8099 16.5677 18.3854 16.3594 18.0156C16.151 17.6458 15.862 17.3568 15.4922 17.1484C15.1276 16.9349 14.7031 16.8281 14.2188 16.8281C13.7135 16.8281 13.2656 16.9453 12.875 17.1797C12.4896 17.4089 12.1875 17.7187 11.9688 18.1094C11.75 18.4948 11.638 18.9245 11.6328 19.3984V21.3594C11.6328 21.9531 11.7422 22.4661 11.9609 22.8984C12.1849 23.3307 12.5 23.6641 12.9063 23.8984C13.3125 24.1328 13.7943 24.25 14.3516 24.25C14.7214 24.25 15.0599 24.1979 15.3672 24.0938C15.6745 23.9896 15.9375 23.8333 16.1562 23.625C16.375 23.4167 16.5417 23.1615 16.6563 22.8594L19.7344 23.0625C19.5781 23.8021 19.2578 24.4479 18.7734 25C18.2943 25.5469 17.6745 25.974 16.9141 26.2813C16.1589 26.5833 15.2865 26.7344 14.2969 26.7344ZM36.7422 18.5C36.7422 20.2448 36.4115 21.7292 35.75 22.9531C35.0938 24.1771 34.1979 25.112 33.0625 25.7578C31.9323 26.3984 30.6615 26.7187 29.25 26.7187C27.8281 26.7187 26.5521 26.3958 25.4219 25.75C24.2917 25.1042 23.3984 24.1693 22.7422 22.9453C22.0859 21.7214 21.7578 20.2396 21.7578 18.5C21.7578 16.7552 22.0859 15.2708 22.7422 14.0469C23.3984 12.8229 24.2917 11.8906 25.4219 11.25C26.5521 10.6042 27.8281 10.2812 29.25 10.2812C30.6615 10.2812 31.9323 10.6042 33.0625 11.25C34.1979 11.8906 35.0938 12.8229 35.75 14.0469C36.4115 15.2708 36.7422 16.7552 36.7422 18.5ZM33.3125 18.5C33.3125 17.3698 33.1432 16.4167 32.8047 15.6406C32.4714 14.8646 32 14.276 31.3906 13.875C30.7813 13.474 30.0677 13.2734 29.25 13.2734C28.4323 13.2734 27.7188 13.474 27.1094 13.875C26.5 14.276 26.026 14.8646 25.6875 15.6406C25.3542 16.4167 25.1875 17.3698 25.1875 18.5C25.1875 19.6302 25.3542 20.5833 25.6875 21.3594C26.026 22.1354 26.5 22.724 27.1094 23.125C27.7188 23.526 28.4323 23.7266 29.25 23.7266C30.0677 23.7266 30.7813 23.526 31.3906 23.125C32 22.724 32.4714 22.1354 32.8047 21.3594C33.1432 20.5833 33.3125 19.6302 33.3125 18.5ZM39.1855 31V14.5H42.4668V16.5156H42.6152C42.7611 16.1927 42.972 15.8646 43.248 15.5312C43.5293 15.1927 43.8939 14.9115 44.3418 14.6875C44.7949 14.4583 45.3574 14.3438 46.0293 14.3438C46.9043 14.3438 47.7116 14.5729 48.4512 15.0313C49.1908 15.4844 49.7819 16.1693 50.2246 17.0859C50.6673 17.9974 50.8887 19.1406 50.8887 20.5156C50.8887 21.8542 50.6725 22.9844 50.2402 23.9062C49.8132 24.8229 49.2298 25.5182 48.4902 25.9922C47.7559 26.4609 46.9329 26.6953 46.0215 26.6953C45.3757 26.6953 44.8262 26.5885 44.373 26.375C43.9251 26.1615 43.5579 25.8932 43.2715 25.5703C42.985 25.2422 42.7663 24.9115 42.6152 24.5781H42.5137V31H39.1855ZM42.4434 20.5C42.4434 21.2135 42.5423 21.8359 42.7402 22.3672C42.9382 22.8984 43.2246 23.3125 43.5996 23.6094C43.9746 23.901 44.4303 24.0469 44.9668 24.0469C45.5085 24.0469 45.9668 23.8984 46.3418 23.6016C46.7168 23.2995 47.0007 22.8828 47.1934 22.3516C47.3913 21.8151 47.4902 21.1979 47.4902 20.5C47.4902 19.8073 47.3939 19.1979 47.2012 18.6719C47.0085 18.1458 46.7246 17.7344 46.3496 17.4375C45.9746 17.1406 45.5137 16.9922 44.9668 16.9922C44.4251 16.9922 43.9668 17.1354 43.5918 17.4219C43.222 17.7083 42.9382 18.1146 42.7402 18.6406C42.5423 19.1667 42.4434 19.7865 42.4434 20.5ZM63.0918 17.9219L60.0449 18.1094C59.9928 17.849 59.8809 17.6146 59.709 17.4062C59.5371 17.1927 59.3105 17.0234 59.0293 16.8984C58.7533 16.7682 58.4225 16.7031 58.0371 16.7031C57.5215 16.7031 57.0866 16.8125 56.7324 17.0312C56.3783 17.2448 56.2012 17.5312 56.2012 17.8906C56.2012 18.1771 56.3158 18.4193 56.5449 18.6172C56.7741 18.8151 57.1673 18.974 57.7246 19.0937L59.8965 19.5312C61.0632 19.7708 61.9329 20.1562 62.5059 20.6875C63.0788 21.2187 63.3652 21.9167 63.3652 22.7812C63.3652 23.5677 63.1335 24.2578 62.6699 24.8516C62.2116 25.4453 61.5814 25.9089 60.7793 26.2422C59.9824 26.5703 59.0632 26.7344 58.0215 26.7344C56.4329 26.7344 55.1673 26.4036 54.2246 25.7422C53.2871 25.0755 52.7376 24.1693 52.5762 23.0234L55.8496 22.8516C55.9486 23.3359 56.1882 23.7057 56.5684 23.9609C56.9486 24.2109 57.4355 24.3359 58.0293 24.3359C58.6126 24.3359 59.0814 24.224 59.4355 24C59.7949 23.7708 59.9772 23.4766 59.9824 23.1172C59.9772 22.8151 59.8496 22.5677 59.5996 22.375C59.3496 22.1771 58.9642 22.026 58.4434 21.9219L56.3652 21.5078C55.1934 21.2734 54.321 20.8672 53.748 20.2891C53.1803 19.7109 52.8965 18.974 52.8965 18.0781C52.8965 17.3073 53.1048 16.6432 53.5215 16.0859C53.9434 15.5286 54.5345 15.099 55.2949 14.7969C56.0605 14.4948 56.9564 14.3438 57.9824 14.3438C59.498 14.3438 60.6908 14.6641 61.5605 15.3047C62.4355 15.9453 62.946 16.8177 63.0918 17.9219Z" fill="black"/>
<path d="M64.8381 16.456V15.9091H68.6562V16.456H67.0554V21H66.4389V16.456H64.8381ZM69.6077 15.9091H70.3435L72.0736 20.1349H72.1333L73.8634 15.9091H74.5992V21H74.0225V17.1321H73.9727L72.3818 21H71.825L70.2341 17.1321H70.1844V21H69.6077V15.9091Z" fill="black"/>
<path d="M84.7784 23.5V11.8636H91.9943V13.375H86.5341V16.9205H91.4773V18.4261H86.5341V23.5H84.7784ZM96.5256 23.6932C95.9725 23.6932 95.4725 23.5909 95.0256 23.3864C94.5786 23.178 94.2244 22.8769 93.9631 22.483C93.7055 22.089 93.5767 21.6061 93.5767 21.0341C93.5767 20.5417 93.6714 20.1364 93.8608 19.8182C94.0502 19.5 94.3059 19.2481 94.6278 19.0625C94.9498 18.8769 95.3097 18.7367 95.7074 18.642C96.1051 18.5473 96.5104 18.4754 96.9233 18.4261C97.446 18.3655 97.8703 18.3163 98.196 18.2784C98.5218 18.2367 98.7585 18.1705 98.9062 18.0795C99.054 17.9886 99.1278 17.8409 99.1278 17.6364V17.5966C99.1278 17.1004 98.9877 16.7159 98.7074 16.4432C98.4309 16.1705 98.018 16.0341 97.4688 16.0341C96.8968 16.0341 96.446 16.161 96.1165 16.4148C95.7907 16.6648 95.5653 16.9432 95.4403 17.25L93.8438 16.8864C94.0331 16.3561 94.3097 15.928 94.6733 15.6023C95.0407 15.2727 95.4631 15.0341 95.9403 14.8864C96.4176 14.7348 96.9195 14.6591 97.446 14.6591C97.7945 14.6591 98.1638 14.7008 98.554 14.7841C98.9479 14.8636 99.3153 15.0114 99.6562 15.2273C100.001 15.4432 100.283 15.7519 100.503 16.1534C100.723 16.5511 100.832 17.0682 100.832 17.7045V23.5H99.1733V22.3068H99.1051C98.9953 22.5265 98.8305 22.7424 98.6108 22.9545C98.3911 23.1667 98.1089 23.3428 97.7642 23.483C97.4195 23.6231 97.0066 23.6932 96.5256 23.6932ZM96.8949 22.3295C97.3646 22.3295 97.7661 22.2367 98.0994 22.0511C98.4366 21.8655 98.6922 21.6231 98.8665 21.3239C99.0445 21.0208 99.1335 20.697 99.1335 20.3523V19.2273C99.0729 19.2879 98.9555 19.3447 98.7812 19.3977C98.6108 19.447 98.4157 19.4905 98.196 19.5284C97.9763 19.5625 97.7623 19.5947 97.554 19.625C97.3456 19.6515 97.1714 19.6742 97.0312 19.6932C96.7017 19.7348 96.4006 19.8049 96.1278 19.9034C95.8589 20.0019 95.643 20.1439 95.4801 20.3295C95.321 20.5114 95.2415 20.7538 95.2415 21.0568C95.2415 21.4773 95.3968 21.7955 95.7074 22.0114C96.018 22.2235 96.4138 22.3295 96.8949 22.3295ZM103.232 23.5V11.8636H104.93V16.1875H105.033C105.131 16.0057 105.273 15.7955 105.459 15.5568C105.644 15.3182 105.902 15.1098 106.232 14.9318C106.561 14.75 106.997 14.6591 107.538 14.6591C108.243 14.6591 108.872 14.8371 109.425 15.1932C109.978 15.5492 110.411 16.0625 110.726 16.733C111.044 17.4034 111.203 18.2102 111.203 19.1534C111.203 20.0966 111.046 20.9053 110.732 21.5795C110.417 22.25 109.985 22.767 109.436 23.1307C108.887 23.4905 108.26 23.6705 107.555 23.6705C107.025 23.6705 106.591 23.5814 106.254 23.4034C105.921 23.2254 105.66 23.017 105.47 22.7784C105.281 22.5398 105.135 22.3277 105.033 22.142H104.891V23.5H103.232ZM104.896 19.1364C104.896 19.75 104.985 20.2879 105.163 20.75C105.341 21.2121 105.599 21.5739 105.936 21.8352C106.273 22.0928 106.686 22.2216 107.175 22.2216C107.682 22.2216 108.107 22.0871 108.447 21.8182C108.788 21.5455 109.046 21.1761 109.22 20.7102C109.398 20.2443 109.487 19.7197 109.487 19.1364C109.487 18.5606 109.4 18.0436 109.226 17.5852C109.055 17.1269 108.798 16.7652 108.453 16.5C108.112 16.2348 107.686 16.1023 107.175 16.1023C106.682 16.1023 106.266 16.2292 105.925 16.483C105.588 16.7367 105.332 17.0909 105.158 17.5455C104.983 18 104.896 18.5303 104.896 19.1364ZM113.111 23.5V14.7727H114.753V16.1591H114.844C115.003 15.6894 115.283 15.3201 115.685 15.0511C116.09 14.7784 116.548 14.642 117.06 14.642C117.166 14.642 117.291 14.6458 117.435 14.6534C117.582 14.661 117.698 14.6705 117.781 14.6818V16.3068C117.713 16.2879 117.592 16.267 117.418 16.2443C117.243 16.2178 117.069 16.2045 116.895 16.2045C116.493 16.2045 116.135 16.2898 115.821 16.4602C115.51 16.6269 115.264 16.8598 115.082 17.1591C114.901 17.4545 114.81 17.7917 114.81 18.1705V23.5H113.111ZM119.251 23.5V14.7727H120.95V23.5H119.251ZM120.109 13.4261C119.814 13.4261 119.56 13.3277 119.348 13.1307C119.14 12.9299 119.036 12.6913 119.036 12.4148C119.036 12.1345 119.14 11.8958 119.348 11.6989C119.56 11.4981 119.814 11.3977 120.109 11.3977C120.405 11.3977 120.657 11.4981 120.865 11.6989C121.077 11.8958 121.183 12.1345 121.183 12.4148C121.183 12.6913 121.077 12.9299 120.865 13.1307C120.657 13.3277 120.405 13.4261 120.109 13.4261ZM126.912 23.6761C126.067 23.6761 125.34 23.4848 124.73 23.1023C124.124 22.7159 123.658 22.1837 123.332 21.5057C123.007 20.8277 122.844 20.0511 122.844 19.1761C122.844 18.2898 123.01 17.5076 123.344 16.8295C123.677 16.1477 124.147 15.6155 124.753 15.233C125.359 14.8504 126.073 14.6591 126.895 14.6591C127.558 14.6591 128.149 14.7822 128.668 15.0284C129.187 15.2708 129.605 15.6117 129.923 16.0511C130.245 16.4905 130.437 17.0038 130.497 17.5909H128.844C128.753 17.1818 128.545 16.8295 128.219 16.5341C127.897 16.2386 127.465 16.0909 126.923 16.0909C126.45 16.0909 126.035 16.2159 125.679 16.4659C125.327 16.7121 125.052 17.0644 124.855 17.5227C124.658 17.9773 124.56 18.5152 124.56 19.1364C124.56 19.7727 124.656 20.322 124.849 20.7841C125.043 21.2462 125.315 21.6042 125.668 21.858C126.024 22.1117 126.442 22.2386 126.923 22.2386C127.245 22.2386 127.537 22.1799 127.798 22.0625C128.063 21.9413 128.285 21.7689 128.463 21.5455C128.645 21.322 128.772 21.053 128.844 20.7386H130.497C130.437 21.303 130.253 21.8068 129.946 22.25C129.639 22.6932 129.228 23.0417 128.713 23.2955C128.202 23.5492 127.601 23.6761 126.912 23.6761Z" fill="black"/>
</svg>
