<svg width="780" height="208" viewBox="0 0 780 208" fill="none" xmlns="http://www.w3.org/2000/svg">
<rect width="240" height="208" rx="10" fill="white"/>
<path d="M87.6387 28.4297V33H85.5557V20.3965H89.3789C90.8262 20.3965 91.9482 20.7334 92.7451 21.4072C93.542 22.0811 93.9404 23.0303 93.9404 24.2549C93.9404 25.4795 93.5244 26.4814 92.6924 27.2607C91.8604 28.04 90.7354 28.4297 89.3174 28.4297H87.6387ZM87.6387 22.1191V26.7246H88.9922C89.8887 26.7246 90.5713 26.5166 91.04 26.1006C91.5088 25.6846 91.7432 25.0986 91.7432 24.3428C91.7432 22.8604 90.8818 22.1191 89.1592 22.1191H87.6387ZM100.879 25.9424C100.633 25.749 100.279 25.6523 99.8157 25.6523C99.2122 25.6523 98.7083 25.9248 98.304 26.4697C97.8997 27.0146 97.6975 27.7559 97.6975 28.6934V33H95.6584V24H97.6975V25.8545H97.7327C97.9319 25.2217 98.2366 24.7295 98.6467 24.3779C99.0627 24.0205 99.5256 23.8418 100.035 23.8418C100.405 23.8418 100.686 23.8975 100.879 24.0088V25.9424ZM109.584 29.0537H103.45C103.473 29.8857 103.728 30.5273 104.214 30.9785C104.707 31.4297 105.38 31.6553 106.236 31.6553C107.197 31.6553 108.079 31.3682 108.881 30.7939V32.4375C108.061 32.9531 106.977 33.2109 105.629 33.2109C104.305 33.2109 103.265 32.8037 102.509 31.9893C101.759 31.1689 101.384 30.0176 101.384 28.5352C101.384 27.1348 101.797 25.9951 102.624 25.1162C103.456 24.2314 104.487 23.7891 105.717 23.7891C106.948 23.7891 107.9 24.1846 108.574 24.9756C109.248 25.7666 109.584 26.8652 109.584 28.2715V29.0537ZM107.616 27.6123C107.61 26.8799 107.437 26.3115 107.097 25.9072C106.757 25.4971 106.289 25.292 105.691 25.292C105.105 25.292 104.607 25.5059 104.197 25.9336C103.792 26.3613 103.543 26.9209 103.45 27.6123H107.616ZM117.771 32.5869C117.051 33.0029 116.198 33.2109 115.214 33.2109C113.878 33.2109 112.8 32.7949 111.979 31.9629C111.159 31.125 110.749 30.041 110.749 28.7109C110.749 27.2285 111.188 26.0391 112.067 25.1426C112.952 24.2402 114.133 23.7891 115.609 23.7891C116.429 23.7891 117.153 23.9326 117.78 24.2197V26.1182C117.153 25.6494 116.485 25.415 115.776 25.415C114.915 25.415 114.209 25.708 113.658 26.2939C113.107 26.874 112.832 27.6357 112.832 28.5791C112.832 29.5107 113.09 30.2461 113.605 30.7852C114.127 31.3242 114.824 31.5938 115.697 31.5938C116.429 31.5938 117.121 31.333 117.771 30.8115V32.5869ZM120.632 22.1104C120.298 22.1104 120.011 22.002 119.771 21.7852C119.536 21.5684 119.419 21.293 119.419 20.959C119.419 20.625 119.536 20.3467 119.771 20.124C120.011 19.9014 120.298 19.79 120.632 19.79C120.978 19.79 121.271 19.9014 121.511 20.124C121.751 20.3467 121.871 20.625 121.871 20.959C121.871 21.2754 121.751 21.5479 121.511 21.7764C121.271 21.999 120.978 22.1104 120.632 22.1104ZM121.643 33H119.604V24H121.643V33ZM123.554 32.7188V30.8291C124.316 31.4092 125.156 31.6992 126.076 31.6992C127.307 31.6992 127.922 31.3359 127.922 30.6094C127.922 30.4043 127.869 30.2314 127.764 30.0908C127.658 29.9443 127.515 29.8154 127.333 29.7041C127.157 29.5928 126.947 29.4932 126.7 29.4053C126.46 29.3174 126.191 29.2178 125.892 29.1064C125.523 28.96 125.189 28.8047 124.89 28.6406C124.597 28.4766 124.351 28.292 124.152 28.0869C123.958 27.876 123.812 27.6387 123.712 27.375C123.613 27.1113 123.563 26.8037 123.563 26.4521C123.563 26.0186 123.665 25.6377 123.87 25.3096C124.075 24.9756 124.351 24.6973 124.697 24.4746C125.042 24.2461 125.435 24.0762 125.874 23.9648C126.314 23.8477 126.768 23.7891 127.237 23.7891C128.069 23.7891 128.813 23.915 129.469 24.167V25.9512C128.836 25.5176 128.11 25.3008 127.289 25.3008C127.031 25.3008 126.797 25.3271 126.586 25.3799C126.381 25.4326 126.205 25.5059 126.059 25.5996C125.912 25.6934 125.798 25.8076 125.716 25.9424C125.634 26.0713 125.593 26.2148 125.593 26.373C125.593 26.5664 125.634 26.7305 125.716 26.8652C125.798 27 125.918 27.1201 126.076 27.2256C126.24 27.3252 126.434 27.4189 126.656 27.5068C126.885 27.5889 127.146 27.6797 127.439 27.7793C127.825 27.9375 128.171 28.0986 128.476 28.2627C128.786 28.4268 129.05 28.6143 129.267 28.8252C129.484 29.0303 129.651 29.2705 129.768 29.5459C129.885 29.8154 129.944 30.1377 129.944 30.5127C129.944 30.9697 129.838 31.3682 129.627 31.708C129.416 32.0479 129.135 32.3291 128.783 32.5518C128.432 32.7744 128.025 32.9385 127.562 33.0439C127.105 33.1553 126.621 33.2109 126.112 33.2109C125.127 33.2109 124.275 33.0469 123.554 32.7188ZM132.716 22.1104C132.382 22.1104 132.095 22.002 131.855 21.7852C131.621 21.5684 131.503 21.293 131.503 20.959C131.503 20.625 131.621 20.3467 131.855 20.124C132.095 19.9014 132.382 19.79 132.716 19.79C133.062 19.79 133.355 19.9014 133.595 20.124C133.835 20.3467 133.956 20.625 133.956 20.959C133.956 21.2754 133.835 21.5479 133.595 21.7764C133.355 21.999 133.062 22.1104 132.716 22.1104ZM133.727 33H131.688V24H133.727V33ZM140.191 33.2109C138.802 33.2109 137.692 32.792 136.86 31.9541C136.034 31.1104 135.621 29.9941 135.621 28.6055C135.621 27.0938 136.051 25.9131 136.913 25.0635C137.78 24.2139 138.946 23.7891 140.411 23.7891C141.817 23.7891 142.913 24.2021 143.698 25.0283C144.483 25.8545 144.876 27 144.876 28.4648C144.876 29.9004 144.451 31.0518 143.601 31.9189C142.758 32.7803 141.621 33.2109 140.191 33.2109ZM140.288 25.415C139.491 25.415 138.861 25.6934 138.398 26.25C137.935 26.8066 137.704 27.5742 137.704 28.5527C137.704 29.4961 137.938 30.2402 138.407 30.7852C138.876 31.3242 139.503 31.5938 140.288 31.5938C141.091 31.5938 141.706 31.3271 142.134 30.7939C142.567 30.2607 142.784 29.502 142.784 28.5176C142.784 27.5273 142.567 26.7627 142.134 26.2236C141.706 25.6846 141.091 25.415 140.288 25.415ZM154.776 33H152.737V27.9287C152.737 26.2471 152.143 25.4062 150.953 25.4062C150.332 25.4062 149.819 25.6406 149.415 26.1094C149.011 26.5723 148.809 27.1582 148.809 27.8672V33H146.761V24H148.809V25.4941H148.844C149.518 24.3574 150.49 23.7891 151.762 23.7891C152.74 23.7891 153.487 24.1084 154.003 24.7471C154.519 25.3799 154.776 26.2969 154.776 27.498V33Z" fill="black"/>
<path d="M108.18 122.789C108.18 123.909 108.057 124.872 107.812 125.68C107.573 126.487 107.24 127.151 106.812 127.672C106.391 128.193 105.893 128.578 105.32 128.828C104.753 129.073 104.141 129.195 103.484 129.195C103.271 129.195 103.055 129.182 102.836 129.156C102.622 129.13 102.417 129.096 102.219 129.055C102.026 129.013 101.849 128.969 101.688 128.922C101.531 128.87 101.401 128.82 101.297 128.773V127.141C101.406 127.208 101.542 127.279 101.703 127.352C101.865 127.419 102.039 127.482 102.227 127.539C102.419 127.591 102.617 127.635 102.82 127.672C103.029 127.703 103.229 127.719 103.422 127.719C103.865 127.719 104.266 127.633 104.625 127.461C104.99 127.289 105.299 127.034 105.555 126.695C105.81 126.357 106.005 125.938 106.141 125.438C106.281 124.932 106.352 124.349 106.352 123.688H106.32C106.227 123.854 106.102 124.013 105.945 124.164C105.794 124.31 105.62 124.44 105.422 124.555C105.224 124.664 105.003 124.753 104.758 124.82C104.518 124.888 104.26 124.922 103.984 124.922C103.516 124.922 103.078 124.841 102.672 124.68C102.271 124.513 101.922 124.279 101.625 123.977C101.328 123.674 101.094 123.307 100.922 122.875C100.755 122.443 100.672 121.961 100.672 121.43C100.672 120.846 100.768 120.32 100.961 119.852C101.154 119.378 101.419 118.977 101.758 118.648C102.096 118.315 102.495 118.06 102.953 117.883C103.411 117.701 103.909 117.609 104.445 117.609C104.951 117.609 105.427 117.706 105.875 117.898C106.328 118.086 106.724 118.388 107.062 118.805C107.406 119.216 107.677 119.75 107.875 120.406C108.078 121.062 108.18 121.857 108.18 122.789ZM106.289 121.594C106.289 121.219 106.24 120.878 106.141 120.57C106.047 120.263 105.914 120 105.742 119.781C105.57 119.562 105.365 119.393 105.125 119.273C104.891 119.154 104.633 119.094 104.352 119.094C104.102 119.094 103.862 119.146 103.633 119.25C103.409 119.349 103.211 119.492 103.039 119.68C102.872 119.867 102.74 120.094 102.641 120.359C102.542 120.625 102.492 120.919 102.492 121.242C102.492 121.596 102.539 121.909 102.633 122.18C102.732 122.451 102.867 122.68 103.039 122.867C103.211 123.049 103.417 123.19 103.656 123.289C103.901 123.383 104.169 123.43 104.461 123.43C104.721 123.43 104.961 123.383 105.18 123.289C105.404 123.19 105.596 123.06 105.758 122.898C105.924 122.732 106.055 122.536 106.148 122.312C106.242 122.089 106.289 121.849 106.289 121.594ZM113.566 117.547V129H111.754V119.766C111.426 120 111.071 120.201 110.691 120.367C110.316 120.529 109.887 120.672 109.402 120.797V119.25C109.704 119.151 109.996 119.047 110.277 118.938C110.558 118.828 110.834 118.706 111.105 118.57C111.381 118.435 111.657 118.284 111.933 118.117C112.215 117.951 112.504 117.76 112.801 117.547H113.566ZM116.953 129.172C116.64 129.172 116.375 129.07 116.156 128.867C115.937 128.659 115.828 128.411 115.828 128.125C115.828 127.833 115.937 127.583 116.156 127.375C116.375 127.167 116.64 127.062 116.953 127.062C117.27 127.062 117.539 127.167 117.757 127.375C117.981 127.583 118.093 127.833 118.093 128.125C118.093 128.411 117.981 128.659 117.757 128.867C117.539 129.07 117.27 129.172 116.953 129.172ZM119.667 128.586V126.883C120.396 127.461 121.219 127.75 122.136 127.75C122.881 127.75 123.475 127.581 123.917 127.242C124.365 126.904 124.589 126.445 124.589 125.867C124.589 124.596 123.618 123.961 121.675 123.961H120.808V122.508H121.636C123.36 122.508 124.222 121.909 124.222 120.711C124.222 119.607 123.55 119.055 122.206 119.055C121.456 119.055 120.751 119.323 120.089 119.859V118.25C120.85 117.823 121.748 117.609 122.785 117.609C123.779 117.609 124.576 117.859 125.175 118.359C125.774 118.859 126.074 119.5 126.074 120.281C126.074 121.755 125.324 122.703 123.824 123.125V123.156C124.631 123.234 125.269 123.518 125.738 124.008C126.206 124.492 126.441 125.099 126.441 125.828C126.441 126.833 126.063 127.646 125.308 128.266C124.553 128.88 123.558 129.188 122.324 129.188C121.214 129.188 120.329 128.987 119.667 128.586ZM130.671 123.422C129.879 123.422 129.249 123.169 128.78 122.664C128.312 122.154 128.077 121.474 128.077 120.625C128.077 119.698 128.325 118.969 128.819 118.438C129.319 117.901 129.991 117.633 130.835 117.633C131.653 117.633 132.286 117.88 132.733 118.375C133.187 118.87 133.413 119.565 133.413 120.461C133.413 121.357 133.161 122.076 132.655 122.617C132.15 123.154 131.489 123.422 130.671 123.422ZM130.78 118.727C130.353 118.727 130.015 118.891 129.765 119.219C129.52 119.547 129.398 119.997 129.398 120.57C129.398 121.133 129.517 121.57 129.757 121.883C130.002 122.195 130.335 122.352 130.757 122.352C131.179 122.352 131.51 122.19 131.749 121.867C131.989 121.539 132.108 121.086 132.108 120.508C132.108 119.945 131.989 119.508 131.749 119.195C131.515 118.883 131.192 118.727 130.78 118.727ZM138.257 117.797L131.069 129.078H129.952L137.132 117.797H138.257ZM137.249 129.172C136.457 129.172 135.827 128.919 135.358 128.414C134.89 127.904 134.655 127.224 134.655 126.375C134.655 125.448 134.903 124.719 135.398 124.188C135.898 123.651 136.569 123.383 137.413 123.383C138.231 123.383 138.864 123.63 139.312 124.125C139.765 124.62 139.991 125.315 139.991 126.211C139.991 127.107 139.739 127.826 139.233 128.367C138.728 128.904 138.067 129.172 137.249 129.172ZM137.358 124.477C136.931 124.477 136.593 124.641 136.343 124.969C136.098 125.297 135.976 125.747 135.976 126.32C135.976 126.883 136.095 127.32 136.335 127.633C136.58 127.945 136.913 128.102 137.335 128.102C137.757 128.102 138.088 127.94 138.327 127.617C138.567 127.289 138.687 126.836 138.687 126.258C138.687 125.695 138.567 125.258 138.327 124.945C138.093 124.633 137.77 124.477 137.358 124.477Z" fill="black"/>
<path d="M120.5 59C135.452 59 149.924 64.2761 161.368 73.899C172.812 83.522 180.493 96.8745 183.058 111.605C185.624 126.335 182.909 141.498 175.392 154.423C167.876 167.348 156.039 177.206 141.968 182.261C127.896 187.316 112.492 187.243 98.4689 182.056C84.4457 176.868 72.7028 166.899 65.3085 153.903C57.9143 140.907 55.3429 125.719 58.0474 111.014C60.7519 96.3089 68.5587 83.0296 80.0929 73.5152L96.2557 93.1091C89.3352 98.8177 84.6511 106.785 83.0284 115.609C81.4058 124.432 82.9486 133.544 87.3851 141.342C91.8217 149.139 98.8674 155.121 107.281 158.233C115.695 161.346 124.938 161.39 133.381 158.357C141.823 155.324 148.925 149.409 153.435 141.654C157.945 133.899 159.574 124.801 158.035 115.963C156.496 107.125 151.887 99.1132 145.021 93.3394C138.155 87.5657 129.471 84.4 120.5 84.4V59Z" fill="#1D93C6"/>
<rect x="270" width="240" height="208" rx="10" fill="white"/>
<path d="M378.294 33H375.851L373.838 29.625C373.656 29.3145 373.478 29.0508 373.302 28.834C373.132 28.6113 372.956 28.4297 372.774 28.2891C372.599 28.1484 372.405 28.0459 372.194 27.9814C371.983 27.917 371.746 27.8848 371.482 27.8848H370.639V33H368.556V20.3965H372.704C373.296 20.3965 373.841 20.4668 374.339 20.6074C374.837 20.748 375.271 20.9619 375.64 21.249C376.009 21.5303 376.296 21.8848 376.501 22.3125C376.712 22.7344 376.817 23.2295 376.817 23.7979C376.817 24.2432 376.75 24.6533 376.615 25.0283C376.486 25.3975 376.299 25.7285 376.053 26.0215C375.812 26.3086 375.52 26.5547 375.174 26.7598C374.834 26.9648 374.45 27.123 374.022 27.2344V27.2695C374.251 27.3984 374.45 27.542 374.62 27.7002C374.79 27.8525 374.951 28.0107 375.104 28.1748C375.256 28.3389 375.405 28.5264 375.552 28.7373C375.704 28.9424 375.871 29.1826 376.053 29.458L378.294 33ZM370.639 22.0928V26.1885H372.379C372.701 26.1885 372.997 26.1387 373.267 26.0391C373.542 25.9395 373.779 25.7959 373.979 25.6084C374.178 25.4209 374.333 25.1924 374.444 24.9229C374.556 24.6533 374.611 24.3516 374.611 24.0176C374.611 23.4141 374.421 22.9424 374.04 22.6025C373.659 22.2627 373.111 22.0928 372.396 22.0928H370.639ZM386.49 29.0537H380.355C380.378 29.8857 380.633 30.5273 381.119 30.9785C381.612 31.4297 382.285 31.6553 383.141 31.6553C384.102 31.6553 384.984 31.3682 385.786 30.7939V32.4375C384.966 32.9531 383.882 33.2109 382.534 33.2109C381.21 33.2109 380.17 32.8037 379.414 31.9893C378.664 31.1689 378.289 30.0176 378.289 28.5352C378.289 27.1348 378.702 25.9951 379.529 25.1162C380.361 24.2314 381.392 23.7891 382.622 23.7891C383.853 23.7891 384.805 24.1846 385.479 24.9756C386.153 25.7666 386.49 26.8652 386.49 28.2715V29.0537ZM384.521 27.6123C384.515 26.8799 384.342 26.3115 384.002 25.9072C383.662 25.4971 383.194 25.292 382.596 25.292C382.01 25.292 381.512 25.5059 381.102 25.9336C380.698 26.3613 380.448 26.9209 380.355 27.6123H384.521ZM394.676 32.5869C393.956 33.0029 393.103 33.2109 392.119 33.2109C390.783 33.2109 389.705 32.7949 388.884 31.9629C388.064 31.125 387.654 30.041 387.654 28.7109C387.654 27.2285 388.093 26.0391 388.972 25.1426C389.857 24.2402 391.038 23.7891 392.514 23.7891C393.334 23.7891 394.058 23.9326 394.685 24.2197V26.1182C394.058 25.6494 393.39 25.415 392.681 25.415C391.82 25.415 391.114 25.708 390.563 26.2939C390.012 26.874 389.737 27.6357 389.737 28.5791C389.737 29.5107 389.995 30.2461 390.51 30.7852C391.032 31.3242 391.729 31.5938 392.602 31.5938C393.334 31.5938 394.026 31.333 394.676 30.8115V32.5869ZM403.417 33H401.439V31.5938H401.404C400.783 32.6719 399.872 33.2109 398.671 33.2109C397.786 33.2109 397.092 32.9707 396.588 32.4902C396.09 32.0098 395.841 31.374 395.841 30.583C395.841 28.8838 396.819 27.8936 398.776 27.6123L401.448 27.2344C401.448 25.9512 400.839 25.3096 399.62 25.3096C398.548 25.3096 397.581 25.6787 396.719 26.417V24.6328C397.669 24.0703 398.764 23.7891 400.007 23.7891C402.28 23.7891 403.417 24.9082 403.417 27.1465V33ZM401.448 28.5791L399.558 28.8428C398.972 28.9189 398.53 29.0625 398.231 29.2734C397.938 29.4785 397.792 29.8418 397.792 30.3633C397.792 30.7441 397.927 31.0576 398.196 31.3037C398.471 31.5439 398.838 31.6641 399.295 31.6641C399.916 31.6641 400.428 31.4473 400.833 31.0137C401.243 30.5742 401.448 30.0234 401.448 29.3613V28.5791ZM407.763 33H405.715V19.6758H407.763V33ZM412.276 33H410.228V19.6758H412.276V33Z" fill="black"/>
<path d="M377.234 117.797V125.031H378.898V126.539H377.234V129H375.477V126.539H370.406V125.016C370.865 124.5 371.333 123.943 371.812 123.344C372.297 122.74 372.76 122.125 373.203 121.5C373.651 120.87 374.065 120.24 374.445 119.609C374.826 118.979 375.146 118.375 375.406 117.797H377.234ZM375.477 125.031V120.328C374.909 121.349 374.346 122.24 373.789 123C373.237 123.76 372.719 124.438 372.234 125.031H375.477ZM387.074 118.703C386.605 119.562 386.163 120.414 385.746 121.258C385.329 122.096 384.952 122.94 384.613 123.789C384.275 124.638 383.98 125.495 383.73 126.359C383.48 127.219 383.288 128.099 383.152 129H381.254C381.379 128.198 381.556 127.398 381.785 126.602C382.019 125.799 382.293 125 382.605 124.203C382.918 123.401 383.267 122.596 383.652 121.789C384.043 120.982 384.457 120.167 384.894 119.344H379.59V117.797H387.074V118.703ZM389.375 129.172C389.062 129.172 388.796 129.07 388.578 128.867C388.359 128.659 388.25 128.411 388.25 128.125C388.25 127.833 388.359 127.583 388.578 127.375C388.796 127.167 389.062 127.062 389.375 127.062C389.692 127.062 389.961 127.167 390.179 127.375C390.403 127.583 390.515 127.833 390.515 128.125C390.515 128.411 390.403 128.659 390.179 128.867C389.961 129.07 389.692 129.172 389.375 129.172ZM398.925 129H391.894V128.133C391.894 127.779 391.943 127.448 392.042 127.141C392.141 126.828 392.274 126.536 392.441 126.266C392.607 125.99 392.803 125.732 393.027 125.492C393.251 125.247 393.49 125.013 393.745 124.789C394.001 124.56 394.261 124.341 394.527 124.133C394.792 123.919 395.053 123.706 395.308 123.492C395.548 123.289 395.766 123.091 395.964 122.898C396.162 122.701 396.331 122.497 396.472 122.289C396.613 122.081 396.722 121.862 396.8 121.633C396.878 121.398 396.917 121.146 396.917 120.875C396.917 120.578 396.87 120.32 396.777 120.102C396.688 119.878 396.561 119.693 396.394 119.547C396.232 119.396 396.04 119.284 395.816 119.211C395.592 119.133 395.347 119.094 395.081 119.094C394.623 119.094 394.157 119.201 393.683 119.414C393.209 119.628 392.753 119.948 392.316 120.375V118.633C392.545 118.461 392.777 118.312 393.011 118.188C393.245 118.057 393.488 117.951 393.738 117.867C393.988 117.779 394.251 117.714 394.527 117.672C394.803 117.63 395.097 117.609 395.41 117.609C395.915 117.609 396.373 117.677 396.785 117.812C397.196 117.943 397.548 118.138 397.839 118.398C398.131 118.654 398.355 118.974 398.511 119.359C398.673 119.745 398.753 120.188 398.753 120.688C398.753 121.141 398.696 121.549 398.581 121.914C398.472 122.273 398.313 122.609 398.105 122.922C397.902 123.234 397.654 123.531 397.363 123.812C397.071 124.094 396.745 124.383 396.386 124.68C396.084 124.924 395.782 125.164 395.48 125.398C395.183 125.628 394.915 125.854 394.675 126.078C394.436 126.297 394.24 126.518 394.089 126.742C393.943 126.961 393.87 127.182 393.87 127.406V127.445H398.925V129ZM403.093 123.422C402.301 123.422 401.671 123.169 401.202 122.664C400.733 122.154 400.499 121.474 400.499 120.625C400.499 119.698 400.747 118.969 401.241 118.438C401.741 117.901 402.413 117.633 403.257 117.633C404.075 117.633 404.707 117.88 405.155 118.375C405.608 118.87 405.835 119.565 405.835 120.461C405.835 121.357 405.582 122.076 405.077 122.617C404.572 123.154 403.911 123.422 403.093 123.422ZM403.202 118.727C402.775 118.727 402.437 118.891 402.187 119.219C401.942 119.547 401.819 119.997 401.819 120.57C401.819 121.133 401.939 121.57 402.179 121.883C402.424 122.195 402.757 122.352 403.179 122.352C403.601 122.352 403.931 122.19 404.171 121.867C404.411 121.539 404.53 121.086 404.53 120.508C404.53 119.945 404.411 119.508 404.171 119.195C403.937 118.883 403.614 118.727 403.202 118.727ZM410.679 117.797L403.491 129.078H402.374L409.554 117.797H410.679ZM409.671 129.172C408.879 129.172 408.249 128.919 407.78 128.414C407.312 127.904 407.077 127.224 407.077 126.375C407.077 125.448 407.325 124.719 407.819 124.188C408.319 123.651 408.991 123.383 409.835 123.383C410.653 123.383 411.286 123.63 411.733 124.125C412.187 124.62 412.413 125.315 412.413 126.211C412.413 127.107 412.161 127.826 411.655 128.367C411.15 128.904 410.489 129.172 409.671 129.172ZM409.78 124.477C409.353 124.477 409.015 124.641 408.765 124.969C408.52 125.297 408.398 125.747 408.398 126.32C408.398 126.883 408.517 127.32 408.757 127.633C409.002 127.945 409.335 128.102 409.757 128.102C410.179 128.102 410.51 127.94 410.749 127.617C410.989 127.289 411.108 126.836 411.108 126.258C411.108 125.695 410.989 125.258 410.749 124.945C410.515 124.633 410.192 124.477 409.78 124.477Z" fill="black"/>
<path d="M390.5 59C406.486 59 421.884 65.0296 433.619 75.8849C445.355 86.7401 452.564 101.622 453.808 117.56C455.051 133.498 450.238 149.318 440.328 161.862C430.419 174.406 416.143 182.752 400.35 185.231L396.41 160.139C405.886 158.651 414.451 153.644 420.397 146.117C426.343 138.591 429.231 129.099 428.485 119.536C427.738 109.973 423.413 101.044 416.372 94.5309C409.33 88.0177 400.092 84.4 390.5 84.4V59Z" fill="#F29425"/>
<rect x="540" width="240" height="208" rx="10" fill="white"/>
<path d="M651.783 33H649.744V28.0957C649.744 27.1523 649.609 26.4697 649.34 26.0479C649.076 25.626 648.628 25.415 647.995 25.415C647.462 25.415 647.008 25.6816 646.633 26.2148C646.264 26.748 646.079 27.3867 646.079 28.1309V33H644.031V27.9287C644.031 26.2529 643.439 25.415 642.256 25.415C641.705 25.415 641.251 25.667 640.894 26.1709C640.542 26.6748 640.366 27.3281 640.366 28.1309V33H638.327V24H640.366V25.4238H640.401C641.052 24.334 641.998 23.7891 643.24 23.7891C643.861 23.7891 644.403 23.9619 644.866 24.3076C645.335 24.6475 645.654 25.0957 645.824 25.6523C646.492 24.4102 647.488 23.7891 648.812 23.7891C650.793 23.7891 651.783 25.0107 651.783 27.4541V33ZM664.655 33H662.361L661.227 29.792H656.27L655.18 33H652.895L657.615 20.3965H659.97L664.655 33ZM660.673 28.0869L658.924 23.0596C658.871 22.8955 658.816 22.6318 658.757 22.2686H658.722C658.669 22.6025 658.611 22.8662 658.546 23.0596L656.815 28.0869H660.673ZM668.28 28.4297V33H666.197V20.3965H670.02C671.467 20.3965 672.589 20.7334 673.386 21.4072C674.183 22.0811 674.582 23.0303 674.582 24.2549C674.582 25.4795 674.166 26.4814 673.333 27.2607C672.501 28.04 671.376 28.4297 669.958 28.4297H668.28ZM668.28 22.1191V26.7246H669.633C670.53 26.7246 671.212 26.5166 671.681 26.1006C672.15 25.6846 672.384 25.0986 672.384 24.3428C672.384 22.8604 671.523 22.1191 669.8 22.1191H668.28Z" fill="black"/>
<path d="M648.32 125.398C648.32 125.961 648.227 126.474 648.039 126.938C647.857 127.401 647.602 127.802 647.273 128.141C646.945 128.474 646.555 128.734 646.102 128.922C645.654 129.104 645.167 129.195 644.641 129.195C644.078 129.195 643.56 129.086 643.086 128.867C642.617 128.648 642.211 128.323 641.867 127.891C641.529 127.458 641.266 126.922 641.078 126.281C640.891 125.635 640.797 124.888 640.797 124.039C640.797 123.003 640.919 122.083 641.164 121.281C641.414 120.479 641.755 119.807 642.188 119.266C642.62 118.724 643.128 118.312 643.711 118.031C644.294 117.75 644.924 117.609 645.602 117.609C646.023 117.609 646.406 117.638 646.75 117.695C647.099 117.753 647.378 117.831 647.586 117.93V119.562C647.32 119.427 647.036 119.312 646.734 119.219C646.432 119.125 646.086 119.078 645.695 119.078C645.258 119.078 644.854 119.167 644.484 119.344C644.115 119.521 643.794 119.781 643.523 120.125C643.258 120.464 643.047 120.885 642.891 121.391C642.74 121.891 642.661 122.469 642.656 123.125H642.703C642.943 122.755 643.266 122.464 643.672 122.25C644.083 122.036 644.565 121.93 645.117 121.93C645.607 121.93 646.047 122.01 646.438 122.172C646.833 122.328 647.169 122.557 647.445 122.859C647.727 123.156 647.943 123.521 648.094 123.953C648.245 124.38 648.32 124.862 648.32 125.398ZM646.492 125.547C646.492 125.224 646.453 124.93 646.375 124.664C646.302 124.398 646.188 124.172 646.031 123.984C645.88 123.792 645.688 123.643 645.453 123.539C645.224 123.435 644.953 123.383 644.641 123.383C644.328 123.383 644.052 123.44 643.812 123.555C643.578 123.664 643.38 123.81 643.219 123.992C643.057 124.174 642.935 124.383 642.852 124.617C642.773 124.852 642.734 125.091 642.734 125.336C642.734 125.602 642.771 125.875 642.844 126.156C642.922 126.432 643.039 126.685 643.195 126.914C643.352 127.143 643.549 127.333 643.789 127.484C644.034 127.63 644.323 127.703 644.656 127.703C644.953 127.703 645.216 127.648 645.445 127.539C645.674 127.43 645.865 127.279 646.016 127.086C646.172 126.893 646.289 126.667 646.367 126.406C646.451 126.141 646.492 125.854 646.492 125.547ZM649.472 125.875C649.472 125.552 649.512 125.24 649.59 124.938C649.673 124.635 649.795 124.357 649.957 124.102C650.118 123.846 650.321 123.617 650.566 123.414C650.811 123.211 651.097 123.047 651.426 122.922C650.941 122.651 650.556 122.305 650.269 121.883C649.983 121.456 649.84 120.984 649.84 120.469C649.84 120.057 649.923 119.677 650.09 119.328C650.262 118.979 650.496 118.677 650.793 118.422C651.095 118.167 651.449 117.969 651.855 117.828C652.262 117.682 652.704 117.609 653.183 117.609C653.668 117.609 654.113 117.682 654.519 117.828C654.931 117.974 655.285 118.174 655.582 118.43C655.884 118.685 656.118 118.987 656.285 119.336C656.452 119.685 656.535 120.062 656.535 120.469C656.535 120.984 656.392 121.456 656.105 121.883C655.819 122.305 655.439 122.651 654.965 122.922C655.288 123.047 655.571 123.211 655.816 123.414C656.066 123.612 656.275 123.839 656.441 124.094C656.608 124.349 656.733 124.628 656.816 124.93C656.9 125.232 656.941 125.547 656.941 125.875C656.941 126.365 656.85 126.812 656.668 127.219C656.485 127.625 656.23 127.974 655.902 128.266C655.574 128.552 655.181 128.776 654.722 128.938C654.264 129.099 653.759 129.18 653.207 129.18C652.66 129.18 652.157 129.099 651.699 128.938C651.246 128.776 650.853 128.552 650.519 128.266C650.191 127.974 649.933 127.625 649.746 127.219C649.564 126.812 649.472 126.365 649.472 125.875ZM651.238 125.719C651.238 126.036 651.285 126.323 651.379 126.578C651.472 126.833 651.605 127.049 651.777 127.227C651.949 127.404 652.155 127.539 652.394 127.633C652.639 127.727 652.91 127.773 653.207 127.773C653.493 127.773 653.756 127.727 653.996 127.633C654.235 127.534 654.441 127.396 654.613 127.219C654.79 127.036 654.928 126.82 655.027 126.57C655.126 126.315 655.176 126.031 655.176 125.719C655.176 125.432 655.129 125.164 655.035 124.914C654.941 124.659 654.808 124.438 654.637 124.25C654.465 124.062 654.256 123.914 654.012 123.805C653.772 123.695 653.504 123.641 653.207 123.641C652.926 123.641 652.663 123.693 652.418 123.797C652.178 123.896 651.97 124.039 651.793 124.227C651.621 124.409 651.485 124.628 651.387 124.883C651.288 125.138 651.238 125.417 651.238 125.719ZM651.621 120.656C651.621 120.891 651.663 121.109 651.746 121.312C651.829 121.51 651.941 121.685 652.082 121.836C652.222 121.982 652.387 122.096 652.574 122.18C652.767 122.263 652.972 122.305 653.191 122.305C653.41 122.305 653.613 122.263 653.801 122.18C653.993 122.091 654.16 121.974 654.301 121.828C654.446 121.677 654.561 121.503 654.644 121.305C654.728 121.102 654.769 120.885 654.769 120.656C654.769 120.422 654.728 120.203 654.644 120C654.566 119.797 654.457 119.622 654.316 119.477C654.176 119.331 654.009 119.216 653.816 119.133C653.623 119.049 653.415 119.008 653.191 119.008C652.957 119.008 652.743 119.052 652.551 119.141C652.358 119.224 652.191 119.341 652.051 119.492C651.915 119.643 651.808 119.82 651.73 120.023C651.657 120.221 651.621 120.432 651.621 120.656ZM659.406 129.172C659.093 129.172 658.828 129.07 658.609 128.867C658.39 128.659 658.281 128.411 658.281 128.125C658.281 127.833 658.39 127.583 658.609 127.375C658.828 127.167 659.093 127.062 659.406 127.062C659.724 127.062 659.992 127.167 660.211 127.375C660.434 127.583 660.546 127.833 660.546 128.125C660.546 128.411 660.434 128.659 660.211 128.867C659.992 129.07 659.724 129.172 659.406 129.172ZM665.48 129.188C664.313 129.188 663.402 128.711 662.745 127.758C662.094 126.805 661.769 125.427 661.769 123.625C661.769 121.646 662.11 120.148 662.792 119.133C663.475 118.117 664.459 117.609 665.745 117.609C668.209 117.609 669.441 119.523 669.441 123.352C669.441 125.247 669.092 126.695 668.394 127.695C667.701 128.69 666.73 129.188 665.48 129.188ZM665.66 119.055C664.3 119.055 663.62 120.552 663.62 123.547C663.62 126.349 664.287 127.75 665.62 127.75C666.933 127.75 667.589 126.326 667.589 123.477C667.589 120.529 666.946 119.055 665.66 119.055ZM673.124 123.422C672.332 123.422 671.702 123.169 671.233 122.664C670.765 122.154 670.53 121.474 670.53 120.625C670.53 119.698 670.778 118.969 671.273 118.438C671.773 117.901 672.444 117.633 673.288 117.633C674.106 117.633 674.739 117.88 675.187 118.375C675.64 118.87 675.866 119.565 675.866 120.461C675.866 121.357 675.614 122.076 675.108 122.617C674.603 123.154 673.942 123.422 673.124 123.422ZM673.233 118.727C672.806 118.727 672.468 118.891 672.218 119.219C671.973 119.547 671.851 119.997 671.851 120.57C671.851 121.133 671.97 121.57 672.21 121.883C672.455 122.195 672.788 122.352 673.21 122.352C673.632 122.352 673.963 122.19 674.202 121.867C674.442 121.539 674.562 121.086 674.562 120.508C674.562 119.945 674.442 119.508 674.202 119.195C673.968 118.883 673.645 118.727 673.233 118.727ZM680.71 117.797L673.523 129.078H672.405L679.585 117.797H680.71ZM679.702 129.172C678.911 129.172 678.28 128.919 677.812 128.414C677.343 127.904 677.108 127.224 677.108 126.375C677.108 125.448 677.356 124.719 677.851 124.188C678.351 123.651 679.023 123.383 679.866 123.383C680.684 123.383 681.317 123.63 681.765 124.125C682.218 124.62 682.444 125.315 682.444 126.211C682.444 127.107 682.192 127.826 681.687 128.367C681.181 128.904 680.52 129.172 679.702 129.172ZM679.812 124.477C679.385 124.477 679.046 124.641 678.796 124.969C678.551 125.297 678.429 125.747 678.429 126.32C678.429 126.883 678.549 127.32 678.788 127.633C679.033 127.945 679.366 128.102 679.788 128.102C680.21 128.102 680.541 127.94 680.78 127.617C681.02 127.289 681.14 126.836 681.14 126.258C681.14 125.695 681.02 125.258 680.78 124.945C680.546 124.633 680.223 124.477 679.812 124.477Z" fill="black"/>
<path d="M660.5 59C670.943 59 681.224 61.5754 690.434 66.498C699.643 71.4206 707.497 78.5386 713.298 87.2213C719.1 95.904 722.671 105.884 723.694 116.276C724.718 126.668 723.163 137.153 719.166 146.8C715.17 156.448 708.856 164.961 700.784 171.586C692.712 178.211 683.13 182.743 672.888 184.78C662.646 186.817 652.06 186.297 642.067 183.266C632.074 180.234 622.983 174.785 615.599 167.401L633.559 149.441C637.99 153.871 643.444 157.141 649.44 158.959C655.436 160.778 661.788 161.09 667.933 159.868C674.078 158.646 679.827 155.927 684.67 151.952C689.514 147.977 693.302 142.869 695.7 137.08C698.098 131.292 699.031 125.001 698.417 118.766C697.802 112.53 695.66 106.542 692.179 101.333C688.698 96.1231 683.986 91.8524 678.46 88.8988C672.934 85.9452 666.766 84.4 660.5 84.4V59Z" fill="#A4C61D"/>
</svg>
