<svg width="24" height="24" viewBox="0 0 24 24" fill="none" xmlns="http://www.w3.org/2000/svg">
<path d="M19.002 11.5632L12.3831 17.8056C11.5722 18.5704 10.4724 19 9.32571 19C8.17898 19 7.07922 18.5704 6.26835 17.8056C5.45749 17.0409 5.00195 16.0037 5.00195 14.9222C5.00195 13.8406 5.45749 12.8034 6.26835 12.0387L12.8872 5.79625C13.4278 5.28642 14.161 5 14.9255 5C15.69 5 16.4231 5.28642 16.9637 5.79625C17.5043 6.30608 17.808 6.99756 17.808 7.71856C17.808 8.43957 17.5043 9.13105 16.9637 9.64088L10.3376 15.8833C10.0673 16.1382 9.70076 16.2814 9.31851 16.2814C8.93627 16.2814 8.56968 16.1382 8.29939 15.8833C8.0291 15.6284 7.87726 15.2827 7.87726 14.9222C7.87726 14.5616 8.0291 14.2159 8.29939 13.961L14.4141 8.20084" stroke="black" stroke-linecap="round" stroke-linejoin="round"/>
</svg>
