<svg width="152" height="136" viewBox="0 0 152 136" fill="none" xmlns="http://www.w3.org/2000/svg">
<path d="M11.4766 33.9543C-7.48311 58.6517 1.10941 82.6979 8.51395 87.5723C18.8841 97.3213 41.1008 98.743 51.4694 97.3213C63.3192 95.6965 72.2066 85.5943 97.3874 116.819C124.642 150.616 135.901 132.636 143.305 116.819C171.449 56.7006 124.051 7.66191 103.312 1.45781C87.0188 -3.41646 35.1762 3.08264 11.4766 33.9543Z" fill="#C6F2ED"/>
<path d="M133 71L111.29 57.9664L132.981 44.9328L76.4906 11L20 44.9328L41.691 57.9664L20 71L41.691 84.0336L20 97.0673L76.4906 131L132.981 97.0673L111.29 84.0336L133 71ZM88.1531 67.1908L114.445 38.3645L125.244 44.8504L88.1531 67.1908ZM51.2126 58.9547L85.6741 21.2128L91.8152 24.8984L57.3349 62.7639L51.2126 58.9547ZM95.2707 26.9575L101.412 30.6431L66.894 68.4262L60.7716 64.8229L95.2707 26.9575ZM104.849 32.7021L110.971 36.3878L76.4906 74.1709L70.3683 70.4853L104.849 32.7021ZM82.3124 19.1537L47.7758 56.9369L41.6535 53.2512L75.2136 16.4564L76.4906 15.6946L82.3124 19.1537ZM63.5323 23.5189L38.2167 51.1922L27.8125 45.0151L63.5323 23.5189ZM45.5973 60.3137L76.4906 78.8449L107.384 60.3137L125.169 71L76.4906 100.238L27.8125 71L45.5973 60.3137ZM125.169 97.0673L76.4906 126.305L27.8125 97.0673L45.5973 86.3809L76.4906 104.912L107.384 86.3809L125.169 97.0673Z" fill="black"/>
</svg>
