<svg width="54" height="54" viewBox="0 0 54 54" fill="none" xmlns="http://www.w3.org/2000/svg">
<path d="M4.87401 16.4486C-1.52599 24.0486 1.37449 31.4482 3.87395 32.9482C7.37449 35.9482 14.8739 36.3857 18.3739 35.9482C22.3739 35.4482 25.3739 32.3395 33.8739 41.9482C43.0739 52.3482 46.8745 46.8156 49.3739 41.9482C58.8739 23.4482 42.8745 8.35776 35.8739 6.4486C30.3739 4.94867 12.874 6.94861 4.87401 16.4486Z" fill="#C6F2ED"/>
<path d="M45.8064 27.9996L38.5814 24.0434L45.8002 20.0871L27.0002 9.78711L8.2002 20.0871L15.4189 24.0434L8.2002 27.9996L15.4189 31.9559L8.2002 35.9121L27.0002 46.2121L45.8002 35.9121L38.5814 31.9559L45.8064 27.9996ZM30.8814 26.8434L39.6314 18.0934L43.2252 20.0621L30.8814 26.8434ZM18.5877 24.3434L30.0564 12.8871L32.1002 14.0059L20.6252 25.4996L18.5877 24.3434ZM33.2502 14.6309L35.2939 15.7496L23.8064 27.2184L21.7689 26.1246L33.2502 14.6309ZM36.4377 16.3746L38.4752 17.4934L27.0002 28.9621L24.9627 27.8434L36.4377 16.3746ZM28.9377 12.2621L17.4439 23.7309L15.4064 22.6121L26.5752 11.4434L27.0002 11.2121L28.9377 12.2621ZM22.6877 13.5871L14.2627 21.9871L10.8002 20.1121L22.6877 13.5871ZM16.7189 24.7559L27.0002 30.3809L37.2814 24.7559L43.2002 27.9996L27.0002 36.8746L10.8002 27.9996L16.7189 24.7559ZM43.2002 35.9121L27.0002 44.7871L10.8002 35.9121L16.7189 32.6684L27.0002 38.2934L37.2814 32.6684L43.2002 35.9121Z" fill="black"/>
</svg>
