<svg width="367" height="340" viewBox="0 0 367 340" fill="none" xmlns="http://www.w3.org/2000/svg">
<path d="M314 131C314 202.797 255.797 261 184 261C112.203 261 54 202.797 54 131C54 59.203 112.203 1.00004 184 1.00004C255.797 1.00004 314 59.203 314 131ZM105.876 131C105.876 174.147 140.853 209.124 184 209.124C227.147 209.124 262.124 174.147 262.124 131C262.124 87.8532 227.147 52.8758 184 52.8758C140.853 52.8758 105.876 87.8532 105.876 131Z" fill="#EF8100"/>
<path d="M240.358 248.432C218.008 259.159 193.061 263.284 168.447 260.324C143.833 257.364 120.576 247.441 101.406 231.721C82.2362 216.002 67.9505 195.138 60.2269 171.581C52.5034 148.024 51.6628 122.752 57.8039 98.7336C63.945 74.7153 76.8127 52.9484 94.8956 35.9896C112.978 19.0308 135.525 7.58457 159.888 2.99541C184.25 -1.59376 209.416 0.864786 232.43 10.0822C255.444 19.2996 275.349 34.8932 289.808 55.031L247.556 85.3673C238.871 73.271 226.914 63.9044 213.091 58.3677C199.267 52.831 184.15 51.3542 169.516 54.1108C154.882 56.8674 141.339 63.7429 130.477 73.9296C119.615 84.1163 111.886 97.1912 108.197 111.618C104.508 126.046 105.013 141.226 109.653 155.376C114.292 169.526 122.873 182.058 134.388 191.501C145.903 200.943 159.873 206.904 174.658 208.682C189.442 210.46 204.428 207.982 217.853 201.539L240.358 248.432Z" fill="#EF0000"/>
<path d="M239.911 248.646C222.325 257.003 203.091 261.312 183.621 261.255C164.151 261.199 144.942 256.778 127.406 248.319C109.87 239.859 94.453 227.576 82.2898 212.373C70.1266 197.17 61.5263 179.434 57.1214 160.469C52.7166 141.504 52.6193 121.793 56.8367 102.785C61.0541 83.7776 69.4788 65.9572 81.4913 50.6349C93.5038 35.3125 108.798 22.878 126.25 14.2459C143.702 5.61381 162.867 1.00378 182.335 0.754901L182.998 52.6304C171.284 52.7802 159.752 55.5541 149.251 60.7481C138.751 65.9421 129.548 73.4241 122.32 82.6437C115.092 91.8632 110.022 102.586 107.485 114.023C104.947 125.46 105.006 137.32 107.656 148.732C110.306 160.143 115.481 170.815 122.8 179.963C130.119 189.111 139.395 196.502 149.947 201.592C160.498 206.682 172.057 209.342 183.772 209.376C195.487 209.41 207.061 206.817 217.642 201.789L239.911 248.646Z" fill="#00AEEF"/>
<path d="M0 296H10V306H0V296Z" fill="#EF0000"/>
<path d="M25.0924 306.5H23.944V302.029H18.8717V306.5H17.7233V296.697H18.8717V300.997H23.944V296.697H25.0924V306.5Z" fill="black"/>
<path d="M27.9326 297.723C27.732 297.723 27.5611 297.654 27.4199 297.518C27.2786 297.381 27.2079 297.208 27.2079 296.998C27.2079 296.788 27.2786 296.615 27.4199 296.479C27.5611 296.337 27.732 296.267 27.9326 296.267C28.1376 296.267 28.3108 296.337 28.4521 296.479C28.5979 296.615 28.6708 296.788 28.6708 296.998C28.6708 297.199 28.5979 297.369 28.4521 297.511C28.3108 297.652 28.1376 297.723 27.9326 297.723ZM28.4794 306.5H27.3583V299.5H28.4794V306.5Z" fill="black"/>
<path d="M36.5696 305.939C36.5696 308.51 35.3391 309.795 32.8782 309.795C32.0123 309.795 31.2558 309.631 30.6086 309.303V308.182C31.397 308.619 32.149 308.838 32.8645 308.838C34.5872 308.838 35.4485 307.922 35.4485 306.09V305.324H35.4211C34.8879 306.217 34.0858 306.664 33.0149 306.664C32.1444 306.664 31.4426 306.354 30.9094 305.734C30.3808 305.11 30.1164 304.274 30.1164 303.226C30.1164 302.036 30.4013 301.091 30.9709 300.389C31.5452 299.687 32.329 299.336 33.3225 299.336C34.2659 299.336 34.9654 299.714 35.4211 300.471H35.4485V299.5H36.5696V305.939ZM35.4485 303.335V302.303C35.4485 301.747 35.2594 301.271 34.8811 300.874C34.5074 300.478 34.0403 300.279 33.4797 300.279C32.787 300.279 32.2447 300.532 31.8528 301.038C31.4608 301.539 31.2649 302.244 31.2649 303.15C31.2649 303.93 31.4517 304.554 31.8254 305.023C32.2037 305.488 32.7027 305.721 33.3225 305.721C33.9514 305.721 34.4618 305.497 34.8538 305.051C35.2502 304.604 35.4485 304.032 35.4485 303.335Z" fill="black"/>
<path d="M44.4957 306.5H43.3746V302.467C43.3746 301.008 42.8322 300.279 41.7476 300.279C41.2007 300.279 40.7404 300.491 40.3667 300.915C39.993 301.334 39.8062 301.874 39.8062 302.535V306.5H38.6851V296.137H39.8062V300.662H39.8335C40.3713 299.778 41.1369 299.336 42.1304 299.336C43.7072 299.336 44.4957 300.286 44.4957 302.187V306.5Z" fill="black"/>
<path d="M53.799 300.635C53.603 300.484 53.3205 300.409 52.9513 300.409C52.4728 300.409 52.0718 300.635 51.7482 301.086C51.4292 301.537 51.2697 302.152 51.2697 302.932V306.5H50.1486V299.5H51.2697V300.942H51.297C51.4565 300.45 51.7003 300.067 52.0285 299.794C52.3566 299.516 52.7235 299.377 53.1291 299.377C53.4207 299.377 53.644 299.409 53.799 299.473V300.635Z" fill="black"/>
<path d="M55.436 297.723C55.2355 297.723 55.0646 297.654 54.9233 297.518C54.782 297.381 54.7114 297.208 54.7114 296.998C54.7114 296.788 54.782 296.615 54.9233 296.479C55.0646 296.337 55.2355 296.267 55.436 296.267C55.6411 296.267 55.8142 296.337 55.9555 296.479C56.1014 296.615 56.1743 296.788 56.1743 296.998C56.1743 297.199 56.1014 297.369 55.9555 297.511C55.8142 297.652 55.6411 297.723 55.436 297.723ZM55.9829 306.5H54.8618V299.5H55.9829V306.5Z" fill="black"/>
<path d="M57.6746 306.247V305.044C58.2852 305.495 58.9574 305.721 59.6912 305.721C60.6755 305.721 61.1677 305.393 61.1677 304.736C61.1677 304.55 61.1244 304.392 61.0379 304.265C60.9558 304.133 60.8419 304.016 60.6961 303.916C60.5548 303.816 60.3862 303.727 60.1902 303.649C59.9988 303.567 59.7914 303.483 59.5681 303.397C59.2582 303.273 58.9848 303.15 58.7478 303.027C58.5154 302.9 58.3194 302.758 58.1599 302.604C58.005 302.444 57.8865 302.264 57.8045 302.064C57.727 301.863 57.6882 301.628 57.6882 301.359C57.6882 301.031 57.7634 300.742 57.9138 300.491C58.0642 300.236 58.2647 300.024 58.5154 299.855C58.766 299.682 59.0509 299.552 59.3699 299.466C59.6935 299.379 60.0261 299.336 60.3679 299.336C60.9741 299.336 61.5164 299.441 61.9949 299.65V300.785C61.4799 300.448 60.8875 300.279 60.2175 300.279C60.0079 300.279 59.8188 300.304 59.6502 300.355C59.4815 300.4 59.3357 300.466 59.2127 300.553C59.0942 300.639 59.0007 300.744 58.9324 300.867C58.8686 300.986 58.8367 301.118 58.8367 301.264C58.8367 301.446 58.8686 301.599 58.9324 301.722C59.0007 301.845 59.0987 301.954 59.2263 302.05C59.3539 302.146 59.5089 302.232 59.6912 302.31C59.8735 302.387 60.0808 302.471 60.3132 302.563C60.6231 302.681 60.9011 302.804 61.1472 302.932C61.3933 303.055 61.603 303.196 61.7761 303.355C61.9493 303.51 62.0815 303.69 62.1726 303.896C62.2683 304.101 62.3162 304.344 62.3162 304.627C62.3162 304.973 62.2387 305.274 62.0838 305.529C61.9334 305.785 61.7306 305.996 61.4754 306.165C61.2201 306.334 60.9262 306.459 60.5935 306.541C60.2608 306.623 59.9122 306.664 59.5476 306.664C58.8276 306.664 58.2032 306.525 57.6746 306.247Z" fill="black"/>
<path d="M69.7022 306.5H68.1299L65.0401 303.137H65.0128V306.5H63.8917V296.137H65.0128V302.706H65.0401L67.9796 299.5H69.4493L66.2022 302.877L69.7022 306.5Z" fill="black"/>
<path d="M85.2812 294.996V304.039H87.3613V305.924H85.2812V309H83.084V305.924H76.7461V304.02C77.319 303.375 77.9049 302.678 78.5039 301.93C79.1094 301.175 79.6888 300.406 80.2422 299.625C80.8021 298.837 81.3197 298.05 81.7949 297.262C82.2702 296.474 82.6706 295.719 82.9961 294.996H85.2812ZM83.084 304.039V298.16C82.3743 299.436 81.6712 300.55 80.9746 301.5C80.2845 302.451 79.6367 303.297 79.0312 304.039H83.084Z" fill="black"/>
<path d="M128 296H138V306H128V296Z" fill="#EF8100"/>
<path d="M155.282 306.5H154.14V299.924C154.14 299.404 154.172 298.769 154.236 298.017H154.208C154.099 298.459 154.001 298.775 153.915 298.967L150.565 306.5H150.004L146.662 299.022C146.566 298.803 146.468 298.468 146.368 298.017H146.34C146.377 298.409 146.395 299.049 146.395 299.938V306.5H145.288V296.697H146.805L149.813 303.533C150.045 304.057 150.196 304.449 150.264 304.709H150.305C150.501 304.171 150.658 303.77 150.777 303.506L153.846 296.697H155.282V306.5Z" fill="black"/>
<path d="M163.187 303.28H158.245C158.263 304.06 158.473 304.661 158.874 305.085C159.275 305.509 159.826 305.721 160.528 305.721C161.317 305.721 162.041 305.461 162.702 304.941V305.994C162.087 306.441 161.273 306.664 160.262 306.664C159.273 306.664 158.496 306.347 157.93 305.714C157.365 305.076 157.083 304.18 157.083 303.027C157.083 301.938 157.39 301.052 158.006 300.368C158.625 299.68 159.393 299.336 160.309 299.336C161.225 299.336 161.934 299.632 162.435 300.225C162.937 300.817 163.187 301.64 163.187 302.692V303.28ZM162.039 302.33C162.034 301.683 161.877 301.179 161.567 300.819C161.262 300.459 160.836 300.279 160.289 300.279C159.76 300.279 159.311 300.468 158.942 300.847C158.573 301.225 158.345 301.719 158.259 302.33H162.039Z" fill="black"/>
<path d="M170.71 306.5H169.589V305.311H169.562C169.042 306.213 168.24 306.664 167.155 306.664C166.276 306.664 165.572 306.352 165.043 305.728C164.519 305.099 164.257 304.244 164.257 303.164C164.257 302.007 164.549 301.079 165.132 300.382C165.715 299.685 166.492 299.336 167.463 299.336C168.425 299.336 169.124 299.714 169.562 300.471H169.589V296.137H170.71V306.5ZM169.589 303.335V302.303C169.589 301.738 169.402 301.259 169.028 300.867C168.655 300.475 168.181 300.279 167.607 300.279C166.923 300.279 166.385 300.53 165.993 301.031C165.601 301.533 165.405 302.225 165.405 303.109C165.405 303.916 165.592 304.554 165.966 305.023C166.344 305.488 166.85 305.721 167.483 305.721C168.108 305.721 168.614 305.495 169.001 305.044C169.393 304.593 169.589 304.023 169.589 303.335Z" fill="black"/>
<path d="M173.4 297.723C173.199 297.723 173.028 297.654 172.887 297.518C172.746 297.381 172.675 297.208 172.675 296.998C172.675 296.788 172.746 296.615 172.887 296.479C173.028 296.337 173.199 296.267 173.4 296.267C173.605 296.267 173.778 296.337 173.919 296.479C174.065 296.615 174.138 296.788 174.138 296.998C174.138 297.199 174.065 297.369 173.919 297.511C173.778 297.652 173.605 297.723 173.4 297.723ZM173.947 306.5H172.826V299.5H173.947V306.5Z" fill="black"/>
<path d="M181.722 306.5H180.601V305.393H180.574C180.109 306.24 179.389 306.664 178.414 306.664C176.746 306.664 175.912 305.671 175.912 303.684V299.5H177.026V303.506C177.026 304.982 177.591 305.721 178.721 305.721C179.268 305.721 179.717 305.52 180.068 305.119C180.424 304.714 180.601 304.185 180.601 303.533V299.5H181.722V306.5Z" fill="black"/>
<path d="M193.777 306.5H192.656V302.48C192.656 301.706 192.535 301.145 192.294 300.799C192.057 300.453 191.656 300.279 191.091 300.279C190.612 300.279 190.204 300.498 189.867 300.936C189.535 301.373 189.368 301.897 189.368 302.508V306.5H188.247V302.344C188.247 300.967 187.716 300.279 186.654 300.279C186.162 300.279 185.757 300.487 185.438 300.901C185.118 301.312 184.959 301.847 184.959 302.508V306.5H183.838V299.5H184.959V300.607H184.986C185.483 299.76 186.208 299.336 187.16 299.336C187.639 299.336 188.056 299.47 188.411 299.739C188.767 300.004 189.01 300.352 189.143 300.785C189.662 299.819 190.437 299.336 191.467 299.336C193.007 299.336 193.777 300.286 193.777 302.187V306.5Z" fill="black"/>
<path d="M203.081 300.635C202.885 300.484 202.602 300.409 202.233 300.409C201.755 300.409 201.353 300.635 201.03 301.086C200.711 301.537 200.551 302.152 200.551 302.932V306.5H199.43V299.5H200.551V300.942H200.579C200.738 300.45 200.982 300.067 201.31 299.794C201.638 299.516 202.005 299.377 202.411 299.377C202.702 299.377 202.926 299.409 203.081 299.473V300.635Z" fill="black"/>
<path d="M204.718 297.723C204.517 297.723 204.346 297.654 204.205 297.518C204.064 297.381 203.993 297.208 203.993 296.998C203.993 296.788 204.064 296.615 204.205 296.479C204.346 296.337 204.517 296.267 204.718 296.267C204.923 296.267 205.096 296.337 205.237 296.479C205.383 296.615 205.456 296.788 205.456 296.998C205.456 297.199 205.383 297.369 205.237 297.511C205.096 297.652 204.923 297.723 204.718 297.723ZM205.265 306.5H204.143V299.5H205.265V306.5Z" fill="black"/>
<path d="M206.956 306.247V305.044C207.567 305.495 208.239 305.721 208.973 305.721C209.957 305.721 210.449 305.393 210.449 304.736C210.449 304.55 210.406 304.392 210.32 304.265C210.238 304.133 210.124 304.016 209.978 303.916C209.836 303.816 209.668 303.727 209.472 303.649C209.28 303.567 209.073 303.483 208.85 303.397C208.54 303.273 208.266 303.15 208.03 303.027C207.797 302.9 207.601 302.758 207.442 302.604C207.287 302.444 207.168 302.264 207.086 302.064C207.009 301.863 206.97 301.628 206.97 301.359C206.97 301.031 207.045 300.742 207.196 300.491C207.346 300.236 207.546 300.024 207.797 299.855C208.048 299.682 208.333 299.552 208.652 299.466C208.975 299.379 209.308 299.336 209.65 299.336C210.256 299.336 210.798 299.441 211.277 299.65V300.785C210.762 300.448 210.169 300.279 209.499 300.279C209.29 300.279 209.1 300.304 208.932 300.355C208.763 300.4 208.617 300.466 208.494 300.553C208.376 300.639 208.282 300.744 208.214 300.867C208.15 300.986 208.118 301.118 208.118 301.264C208.118 301.446 208.15 301.599 208.214 301.722C208.282 301.845 208.38 301.954 208.508 302.05C208.636 302.146 208.791 302.232 208.973 302.31C209.155 302.387 209.363 302.471 209.595 302.563C209.905 302.681 210.183 302.804 210.429 302.932C210.675 303.055 210.885 303.196 211.058 303.355C211.231 303.51 211.363 303.69 211.454 303.896C211.55 304.101 211.598 304.344 211.598 304.627C211.598 304.973 211.52 305.274 211.365 305.529C211.215 305.785 211.012 305.996 210.757 306.165C210.502 306.334 210.208 306.459 209.875 306.541C209.543 306.623 209.194 306.664 208.829 306.664C208.109 306.664 207.485 306.525 206.956 306.247Z" fill="black"/>
<path d="M218.984 306.5H217.412L214.322 303.137H214.294V306.5H213.173V296.137H214.294V302.706H214.322L217.261 299.5H218.731L215.484 302.877L218.984 306.5Z" fill="black"/>
<path d="M226.332 305.094C226.332 304.69 226.381 304.3 226.479 303.922C226.583 303.544 226.736 303.196 226.938 302.877C227.139 302.558 227.393 302.272 227.699 302.018C228.005 301.764 228.363 301.559 228.773 301.402C228.168 301.064 227.686 300.631 227.328 300.104C226.97 299.57 226.791 298.98 226.791 298.336C226.791 297.822 226.895 297.346 227.104 296.91C227.318 296.474 227.611 296.096 227.982 295.777C228.36 295.458 228.803 295.211 229.311 295.035C229.818 294.853 230.372 294.762 230.971 294.762C231.576 294.762 232.133 294.853 232.641 295.035C233.155 295.217 233.598 295.468 233.969 295.787C234.346 296.106 234.639 296.484 234.848 296.92C235.056 297.356 235.16 297.828 235.16 298.336C235.16 298.98 234.981 299.57 234.623 300.104C234.265 300.631 233.79 301.064 233.197 301.402C233.601 301.559 233.956 301.764 234.262 302.018C234.574 302.265 234.835 302.548 235.043 302.867C235.251 303.186 235.408 303.535 235.512 303.912C235.616 304.29 235.668 304.684 235.668 305.094C235.668 305.706 235.554 306.266 235.326 306.773C235.098 307.281 234.779 307.717 234.369 308.082C233.959 308.44 233.467 308.72 232.895 308.922C232.322 309.124 231.69 309.225 231 309.225C230.316 309.225 229.688 309.124 229.115 308.922C228.549 308.72 228.057 308.44 227.641 308.082C227.23 307.717 226.908 307.281 226.674 306.773C226.446 306.266 226.332 305.706 226.332 305.094ZM228.539 304.898C228.539 305.296 228.598 305.654 228.715 305.973C228.832 306.292 228.998 306.562 229.213 306.783C229.428 307.005 229.685 307.174 229.984 307.291C230.29 307.408 230.629 307.467 231 307.467C231.358 307.467 231.687 307.408 231.986 307.291C232.286 307.167 232.543 306.995 232.758 306.773C232.979 306.546 233.152 306.275 233.275 305.963C233.399 305.644 233.461 305.289 233.461 304.898C233.461 304.54 233.402 304.205 233.285 303.893C233.168 303.574 233.002 303.297 232.787 303.063C232.572 302.828 232.312 302.643 232.006 302.506C231.706 302.369 231.371 302.301 231 302.301C230.648 302.301 230.32 302.366 230.014 302.496C229.714 302.62 229.454 302.799 229.232 303.033C229.018 303.261 228.848 303.535 228.725 303.854C228.601 304.173 228.539 304.521 228.539 304.898ZM229.018 298.57C229.018 298.863 229.07 299.137 229.174 299.391C229.278 299.638 229.418 299.856 229.594 300.045C229.77 300.227 229.975 300.37 230.209 300.475C230.45 300.579 230.707 300.631 230.98 300.631C231.254 300.631 231.508 300.579 231.742 300.475C231.983 300.364 232.191 300.217 232.367 300.035C232.549 299.846 232.693 299.628 232.797 299.381C232.901 299.127 232.953 298.857 232.953 298.57C232.953 298.277 232.901 298.004 232.797 297.75C232.699 297.496 232.562 297.278 232.387 297.096C232.211 296.913 232.003 296.77 231.762 296.666C231.521 296.562 231.26 296.51 230.98 296.51C230.688 296.51 230.421 296.565 230.18 296.676C229.939 296.78 229.73 296.926 229.555 297.115C229.385 297.304 229.252 297.525 229.154 297.779C229.063 298.027 229.018 298.29 229.018 298.57Z" fill="black"/>
<path d="M277 326H287V336H277V326Z" fill="#00AEEF"/>
<path d="M299.452 336.5H294.366V326.697H295.515V335.461H299.452V336.5Z" fill="black"/>
<path d="M303.577 336.664C302.543 336.664 301.716 336.338 301.096 335.687C300.481 335.03 300.173 334.162 300.173 333.082C300.173 331.906 300.494 330.988 301.137 330.327C301.78 329.666 302.648 329.336 303.741 329.336C304.785 329.336 305.599 329.657 306.182 330.3C306.77 330.942 307.064 331.833 307.064 332.973C307.064 334.089 306.747 334.985 306.114 335.659C305.485 336.329 304.639 336.664 303.577 336.664ZM303.659 330.279C302.939 330.279 302.37 330.525 301.95 331.018C301.531 331.505 301.322 332.18 301.322 333.041C301.322 333.87 301.533 334.524 301.957 335.003C302.381 335.481 302.948 335.721 303.659 335.721C304.384 335.721 304.94 335.486 305.327 335.017C305.719 334.547 305.915 333.88 305.915 333.014C305.915 332.139 305.719 331.464 305.327 330.99C304.94 330.516 304.384 330.279 303.659 330.279Z" fill="black"/>
<path d="M317.519 329.5L315.42 336.5H314.258L312.816 331.489C312.761 331.298 312.725 331.081 312.707 330.84H312.679C312.666 331.004 312.618 331.216 312.536 331.476L310.97 336.5H309.849L307.73 329.5H308.906L310.355 334.764C310.401 334.923 310.432 335.133 310.451 335.393H310.505C310.519 335.192 310.56 334.978 310.628 334.75L312.242 329.5H313.267L314.716 334.777C314.762 334.946 314.796 335.156 314.819 335.406H314.874C314.883 335.229 314.921 335.019 314.99 334.777L316.412 329.5H317.519Z" fill="black"/>
<path d="M326.002 330.635C325.806 330.484 325.524 330.409 325.154 330.409C324.676 330.409 324.275 330.635 323.951 331.086C323.632 331.537 323.473 332.152 323.473 332.932V336.5H322.352V329.5H323.473V330.942H323.5C323.66 330.45 323.903 330.067 324.232 329.794C324.56 329.516 324.927 329.377 325.332 329.377C325.624 329.377 325.847 329.409 326.002 329.473V330.635Z" fill="black"/>
<path d="M327.639 327.723C327.439 327.723 327.268 327.654 327.126 327.518C326.985 327.381 326.914 327.208 326.914 326.998C326.914 326.788 326.985 326.615 327.126 326.479C327.268 326.337 327.439 326.267 327.639 326.267C327.844 326.267 328.017 326.337 328.159 326.479C328.304 326.615 328.377 326.788 328.377 326.998C328.377 327.199 328.304 327.369 328.159 327.511C328.017 327.652 327.844 327.723 327.639 327.723ZM328.186 336.5H327.065V329.5H328.186V336.5Z" fill="black"/>
<path d="M329.878 336.247V335.044C330.488 335.495 331.161 335.721 331.894 335.721C332.879 335.721 333.371 335.393 333.371 334.736C333.371 334.55 333.328 334.392 333.241 334.265C333.159 334.133 333.045 334.016 332.899 333.916C332.758 333.816 332.589 333.727 332.393 333.649C332.202 333.567 331.995 333.483 331.771 333.397C331.461 333.273 331.188 333.15 330.951 333.027C330.719 332.9 330.523 332.758 330.363 332.604C330.208 332.444 330.09 332.264 330.008 332.064C329.93 331.863 329.891 331.628 329.891 331.359C329.891 331.031 329.967 330.742 330.117 330.491C330.267 330.236 330.468 330.024 330.719 329.855C330.969 329.682 331.254 329.552 331.573 329.466C331.897 329.379 332.229 329.336 332.571 329.336C333.177 329.336 333.719 329.441 334.198 329.65V330.785C333.683 330.448 333.091 330.279 332.421 330.279C332.211 330.279 332.022 330.304 331.853 330.355C331.685 330.4 331.539 330.466 331.416 330.553C331.297 330.639 331.204 330.744 331.135 330.867C331.072 330.986 331.04 331.118 331.04 331.264C331.04 331.446 331.072 331.599 331.135 331.722C331.204 331.845 331.302 331.954 331.429 332.05C331.557 332.146 331.712 332.232 331.894 332.31C332.077 332.387 332.284 332.471 332.516 332.563C332.826 332.681 333.104 332.804 333.35 332.932C333.596 333.055 333.806 333.196 333.979 333.355C334.152 333.51 334.285 333.69 334.376 333.896C334.471 334.101 334.519 334.344 334.519 334.627C334.519 334.973 334.442 335.274 334.287 335.529C334.136 335.785 333.934 335.996 333.678 336.165C333.423 336.334 333.129 336.459 332.797 336.541C332.464 336.623 332.115 336.664 331.751 336.664C331.031 336.664 330.406 336.525 329.878 336.247Z" fill="black"/>
<path d="M341.905 336.5H340.333L337.243 333.137H337.216V336.5H336.095V326.137H337.216V332.706H337.243L340.183 329.5H341.652L338.405 332.877L341.905 336.5Z" fill="black"/>
<path d="M354.036 324.684V339H351.77V327.457C351.36 327.75 350.917 328.001 350.442 328.209C349.973 328.411 349.436 328.59 348.831 328.746V326.813C349.208 326.689 349.573 326.559 349.924 326.422C350.276 326.285 350.621 326.132 350.96 325.963C351.305 325.794 351.65 325.605 351.995 325.397C352.346 325.188 352.708 324.951 353.079 324.684H354.036Z" fill="black"/>
<path d="M361.257 339.234C359.799 339.234 358.66 338.639 357.839 337.447C357.025 336.256 356.619 334.534 356.619 332.281C356.619 329.807 357.045 327.936 357.898 326.666C358.751 325.397 359.981 324.762 361.589 324.762C364.669 324.762 366.208 327.154 366.208 331.939C366.208 334.309 365.772 336.119 364.9 337.369C364.034 338.613 362.82 339.234 361.257 339.234ZM361.482 326.568C359.783 326.568 358.933 328.44 358.933 332.184C358.933 335.686 359.766 337.438 361.433 337.438C363.074 337.438 363.894 335.657 363.894 332.096C363.894 328.411 363.09 326.568 361.482 326.568Z" fill="black"/>
</svg>
