<svg width="80" height="80" viewBox="0 0 80 80" fill="none" xmlns="http://www.w3.org/2000/svg">
<path d="M40 41.0577C41.4453 41.0577 42.8582 40.6291 44.06 39.8262C45.2617 39.0232 46.1984 37.8819 46.7515 36.5465C47.3046 35.2112 47.4493 33.7419 47.1673 32.3243C46.8853 30.9068 46.1894 29.6047 45.1673 28.5826C44.1453 27.5606 42.8432 26.8647 41.4257 26.5827C40.0081 26.3007 38.5388 26.4454 37.2034 26.9985C35.8681 27.5516 34.7268 28.4883 33.9238 29.69C33.1209 30.8918 32.6923 32.3047 32.6923 33.75C32.6944 35.6875 33.4651 37.545 34.8351 38.9149C36.205 40.2849 38.0625 41.0556 40 41.0577ZM40 28.9423C40.9509 28.9423 41.8804 29.2242 42.671 29.7525C43.4617 30.2808 44.0779 31.0317 44.4418 31.9102C44.8057 32.7887 44.9009 33.7553 44.7154 34.6879C44.5298 35.6206 44.072 36.4772 43.3996 37.1496C42.7272 37.822 41.8706 38.2799 40.9379 38.4654C40.0053 38.6509 39.0387 38.5557 38.1602 38.1918C37.2817 37.8279 36.5308 37.2117 36.0025 36.421C35.4742 35.6304 35.1923 34.7009 35.1923 33.75C35.1938 32.4754 35.7008 31.2534 36.6021 30.3521C37.5034 29.4508 38.7254 28.9438 40 28.9423Z" fill="black"/>
<path d="M29.6253 26.7767C29.4633 27.0173 29.3901 27.3066 29.418 27.5952C29.446 27.8838 29.5734 28.1538 29.7784 28.3588L30.1996 28.7805C29.9449 29.2812 29.729 29.8007 29.5538 30.3345H28.963C28.673 30.3344 28.392 30.4352 28.1682 30.6196C27.9443 30.804 27.7916 31.0605 27.7362 31.3452C27.4213 32.9329 27.4213 34.5671 27.7362 36.1548C27.7916 36.4395 27.9443 36.696 28.1682 36.8804C28.392 37.0648 28.673 37.1656 28.963 37.1655H29.5544C29.7293 37.6993 29.945 38.2188 30.1996 38.7195L29.7784 39.1412C29.5734 39.3462 29.446 39.6162 29.418 39.9048C29.3901 40.1934 29.4633 40.4827 29.6253 40.7233C30.5284 42.0664 31.6836 43.2216 33.0267 44.1248C33.2673 44.2867 33.5566 44.3599 33.8452 44.332C34.1338 44.304 34.4038 44.1766 34.6088 43.9716L35.0305 43.5504C35.5312 43.8049 36.0507 44.0206 36.5845 44.1956V44.787C36.5844 45.077 36.6852 45.358 36.8696 45.5818C37.054 45.8057 37.3105 45.9584 37.5952 46.0138C39.1829 46.3287 40.8171 46.3287 42.4048 46.0138C42.6895 45.9584 42.946 45.8057 43.1304 45.5818C43.3148 45.358 43.4156 45.077 43.4155 44.787V44.1956C43.9493 44.0207 44.4688 43.805 44.9695 43.5504L45.3912 43.9716C45.5962 44.1766 45.8662 44.304 46.1548 44.332C46.4434 44.3599 46.7327 44.2867 46.9733 44.1248C48.3164 43.2216 49.4716 42.0664 50.3748 40.7233C50.5367 40.4827 50.6099 40.1934 50.582 39.9048C50.554 39.6162 50.4266 39.3462 50.2216 39.1412L49.8004 38.7195C50.055 38.2188 50.2707 37.6993 50.4456 37.1655H51.037C51.327 37.1656 51.608 37.0648 51.8318 36.8804C52.0557 36.696 52.2084 36.4395 52.2638 36.1548C52.5787 34.5671 52.5787 32.9329 52.2638 31.3452C52.2084 31.0605 52.0557 30.804 51.8318 30.6196C51.608 30.4352 51.327 30.3344 51.037 30.3345H50.4462C50.2709 29.8008 50.055 29.2813 49.8004 28.7805L50.2216 28.3588C50.4266 28.1538 50.554 27.8838 50.582 27.5952C50.6099 27.3066 50.5367 27.0173 50.3748 26.7767C49.4716 25.4336 48.3164 24.2784 46.9733 23.3752C46.7326 23.2136 46.4433 23.1405 46.1548 23.1685C45.8663 23.1964 45.5964 23.3236 45.3912 23.5284L44.9695 23.9496C44.4688 23.6951 43.9493 23.4794 43.4155 23.3044V22.713C43.4156 22.423 43.3148 22.142 43.1304 21.9182C42.946 21.6943 42.6895 21.5416 42.4048 21.4862C40.8169 21.1725 39.1831 21.1725 37.5952 21.4862C37.3105 21.5416 37.054 21.6943 36.8696 21.9182C36.6852 22.142 36.5844 22.423 36.5845 22.713V23.3044C36.0507 23.4793 35.5312 23.695 35.0305 23.9496L34.6088 23.5284C34.4036 23.3236 34.1337 23.1964 33.8452 23.1685C33.5567 23.1405 33.2674 23.2136 33.0267 23.3752C31.6836 24.2784 30.5284 25.4336 29.6253 26.7767ZM31.9074 31.181C32.0537 30.7222 32.2389 30.2766 32.4609 29.8492C32.6669 29.4626 32.7603 29.0261 32.7308 28.5891C32.7012 28.1521 32.5498 27.7321 32.2937 27.3767C32.6953 26.8916 33.1416 26.4453 33.6267 26.0437C33.9822 26.2997 34.4023 26.451 34.8394 26.4806C35.2765 26.5101 35.7131 26.4168 36.0999 26.211C36.527 25.989 36.9723 25.8039 37.431 25.658C37.8486 25.53 38.222 25.2879 38.5093 24.959C38.7966 24.63 38.9863 24.2274 39.057 23.7964C39.6841 23.7342 40.3159 23.7342 40.943 23.7964C41.0137 24.2273 41.2033 24.6299 41.4905 24.9588C41.7776 25.2877 42.151 25.5299 42.5684 25.658C43.0275 25.8039 43.4732 25.9889 43.9008 26.211C44.2873 26.4172 44.7239 26.5108 45.161 26.4813C45.598 26.4517 46.018 26.3001 46.3733 26.0437C46.8584 26.4453 47.3047 26.8916 47.7063 27.3767C47.4501 27.7322 47.2987 28.1523 47.2691 28.5894C47.2396 29.0265 47.3331 29.4632 47.539 29.8499C47.7606 30.2767 47.9456 30.7217 48.092 31.1799C48.2198 31.5976 48.4618 31.9714 48.7907 32.2589C49.1197 32.5464 49.5224 32.7363 49.9536 32.8071C49.9847 33.1238 50 33.4388 50 33.75C50 34.0613 49.9847 34.3763 49.9536 34.693C49.5227 34.7636 49.1201 34.9531 48.7912 35.2403C48.4622 35.5275 48.2201 35.9009 48.092 36.3184C47.9461 36.7775 47.7611 37.2232 47.5391 37.6508C47.3331 38.0374 47.2397 38.4739 47.2692 38.9109C47.2988 39.3479 47.4502 39.7679 47.7063 40.1233C47.3048 40.6084 46.8584 41.0547 46.3733 41.4563C46.0177 41.2004 45.5977 41.0491 45.1606 41.0196C44.7235 40.99 44.2869 41.0834 43.9002 41.289C43.473 41.511 43.0277 41.6961 42.569 41.842C42.1514 41.97 41.778 42.2121 41.4907 42.541C41.2034 42.87 41.0137 43.2726 40.943 43.7036C40.3159 43.7658 39.6841 43.7658 39.057 43.7036C38.9863 43.2727 38.7967 42.8701 38.5096 42.5412C38.2224 42.2123 37.8491 41.9701 37.4316 41.842C36.9725 41.6961 36.5268 41.5111 36.0992 41.289C35.7127 41.0829 35.2761 40.9894 34.8391 41.0189C34.402 41.0485 33.982 41.2 33.6267 41.4563C33.1416 41.0547 32.6953 40.6084 32.2937 40.1233C32.5499 39.7678 32.7013 39.3477 32.7309 38.9106C32.7604 38.4735 32.6669 38.0368 32.461 37.6502C32.2391 37.2232 32.0541 36.7781 31.908 36.3196C31.7801 35.9019 31.538 35.5283 31.2091 35.2409C30.8802 34.9535 30.4775 34.7637 30.0464 34.693C30.0153 34.3763 30 34.0613 30 33.75C30 33.4388 30.0153 33.1238 30.0464 32.807C30.4773 32.7363 30.8798 32.5466 31.2086 32.2593C31.5374 31.972 31.7795 31.5985 31.9074 31.181Z" fill="black"/>
<path d="M40 11.25C40.9889 11.25 41.9556 10.9568 42.7779 10.4074C43.6001 9.85794 44.241 9.07705 44.6194 8.16342C44.9978 7.24979 45.0969 6.24446 44.9039 5.27455C44.711 4.30465 44.2348 3.41373 43.5355 2.71447C42.8363 2.01521 41.9454 1.539 40.9755 1.34608C40.0055 1.15315 39.0002 1.25217 38.0866 1.6306C37.173 2.00904 36.3921 2.64991 35.8427 3.47215C35.2932 4.2944 35 5.2611 35 6.25C35.0015 7.57562 35.5288 8.84651 36.4661 9.78386C37.4035 10.7212 38.6744 11.2485 40 11.25ZM40 3.75C40.4945 3.75 40.9778 3.89662 41.3889 4.17133C41.8 4.44603 42.1205 4.83648 42.3097 5.29329C42.4989 5.75011 42.5484 6.25278 42.452 6.73773C42.3555 7.22268 42.1174 7.66814 41.7678 8.01777C41.4181 8.3674 40.9727 8.6055 40.4877 8.70197C40.0028 8.79843 39.5001 8.74892 39.0433 8.5597C38.5865 8.37048 38.196 8.05005 37.9213 7.63893C37.6466 7.2278 37.5 6.74446 37.5 6.25C37.5007 5.58716 37.7643 4.95166 38.233 4.48297C38.7017 4.01427 39.3372 3.75066 40 3.75Z" fill="black"/>
<path d="M12.5 38.4894C13.4889 38.4894 14.4556 38.1961 15.2779 37.6467C16.1001 37.0973 16.741 36.3164 17.1194 35.4028C17.4978 34.4892 17.5969 33.4838 17.4039 32.5139C17.211 31.544 16.7348 30.6531 16.0355 29.9538C15.3363 29.2546 14.4454 28.7784 13.4755 28.5854C12.5055 28.3925 11.5002 28.4915 10.5866 28.87C9.67295 29.2484 8.89206 29.8893 8.34265 30.7115C7.79324 31.5338 7.5 32.5005 7.5 33.4894C7.50152 34.815 8.02879 36.0859 8.96614 37.0232C9.90349 37.9606 11.1744 38.4879 12.5 38.4894ZM12.5 30.9894C12.9945 30.9894 13.4778 31.136 13.8889 31.4107C14.3 31.6854 14.6205 32.0759 14.8097 32.5327C14.9989 32.9895 15.0484 33.4921 14.952 33.9771C14.8555 34.4621 14.6174 34.9075 14.2678 35.2571C13.9181 35.6068 13.4727 35.8449 12.9877 35.9413C12.5028 36.0378 12.0001 35.9883 11.5433 35.7991C11.0865 35.6099 10.696 35.2894 10.4213 34.8783C10.1466 34.4672 10 33.9838 10 33.4894C10.0007 32.8265 10.2643 32.191 10.733 31.7223C11.2017 31.2536 11.8372 30.99 12.5 30.9894Z" fill="black"/>
<path d="M62.5 33.4894C62.5 34.4783 62.7932 35.445 63.3427 36.2672C63.8921 37.0895 64.673 37.7303 65.5866 38.1088C66.5002 38.4872 67.5055 38.5862 68.4755 38.3933C69.4454 38.2004 70.3363 37.7242 71.0355 37.0249C71.7348 36.3256 72.211 35.4347 72.4039 34.4648C72.5969 33.4949 72.4978 32.4896 72.1194 31.576C71.741 30.6623 71.1001 29.8814 70.2779 29.332C69.4556 28.7826 68.4889 28.4894 67.5 28.4894C66.1744 28.4909 64.9035 29.0182 63.9661 29.9555C63.0288 30.8929 62.5015 32.1638 62.5 33.4894ZM70 33.4894C70 33.9838 69.8534 34.4672 69.5787 34.8783C69.304 35.2894 68.9135 35.6099 68.4567 35.7991C67.9999 35.9883 67.4972 36.0378 67.0123 35.9413C66.5273 35.8449 66.0819 35.6068 65.7322 35.2571C65.3826 34.9075 65.1445 34.4621 65.048 33.9771C64.9516 33.4921 65.0011 32.9895 65.1903 32.5327C65.3795 32.0758 65.7 31.6854 66.1111 31.4107C66.5222 31.136 67.0055 30.9894 67.5 30.9894C68.1628 30.99 68.7983 31.2536 69.267 31.7223C69.7357 32.191 69.9993 32.8265 70 33.4894Z" fill="black"/>
<path d="M65.2618 26.59L67.6679 25.9101C66.3751 21.3113 63.9528 17.1088 60.6215 13.685C57.2901 10.2612 53.1555 7.72485 48.5937 6.30676L47.8479 8.69324C52.0126 9.98776 55.7874 12.3033 58.8288 15.429C61.8702 18.5547 64.0817 22.3915 65.2618 26.59Z" fill="black"/>
<path d="M32.84 8.48817L32.16 6.08215C27.4447 7.43424 23.1508 9.96355 19.6822 13.4322C16.2135 16.9008 13.6842 21.1947 12.3322 25.91L14.7382 26.5899C15.9725 22.2851 18.2816 18.3649 21.4483 15.1983C24.615 12.0316 28.5351 9.72251 32.84 8.48817Z" fill="black"/>
<path d="M60.285 50.1971L62.2163 51.7853C64.7365 48.7313 66.5931 45.186 67.6679 41.3751L65.2619 40.6952C64.2808 44.1737 62.5858 47.4098 60.285 50.1971Z" fill="black"/>
<path d="M14.953 40.6952L12.547 41.3751C13.6537 45.3006 15.5897 48.943 18.2245 52.0563L20.1361 50.4449C17.7306 47.6034 15.9631 44.2786 14.953 40.6952Z" fill="black"/>
<path d="M57.9069 62.7716C58.4101 62.0188 58.6994 61.1434 58.7439 60.239C58.7885 59.3346 58.5866 58.4351 58.1598 57.6364C57.733 56.8378 57.0974 56.1701 56.3207 55.7045C55.544 55.239 54.6555 54.9931 53.75 54.9931C52.8445 54.9931 51.956 55.239 51.1793 55.7045C50.4026 56.1701 49.767 56.8378 49.3402 57.6364C48.9134 58.4351 48.7115 59.3346 48.7561 60.239C48.8006 61.1434 49.0899 62.0188 49.5931 62.7716C49.1853 62.8947 48.7939 63.067 48.4277 63.2848C48.1417 62.504 47.6655 61.807 47.0422 61.2567C46.4188 60.7065 45.6681 60.3204 44.8579 60.1334C45.7525 59.0363 46.2439 57.6656 46.25 56.25C46.25 54.5924 45.5915 53.0027 44.4194 51.8306C43.2473 50.6585 41.6576 50 40 50C38.3424 50 36.7527 50.6585 35.5806 51.8306C34.4085 53.0027 33.75 54.5924 33.75 56.25C33.7561 57.6656 34.2475 59.0363 35.1421 60.1334C34.3319 60.3204 33.5812 60.7065 32.9578 61.2567C32.3345 61.807 31.8583 62.504 31.5723 63.2848C31.2061 63.067 30.8147 62.8947 30.4069 62.7716C30.9101 62.0188 31.1994 61.1434 31.2439 60.239C31.2885 59.3346 31.0866 58.4351 30.6598 57.6364C30.233 56.8378 29.5974 56.1701 28.8207 55.7045C28.044 55.239 27.1555 54.9931 26.25 54.9931C25.3445 54.9931 24.456 55.239 23.6793 55.7045C22.9026 56.1701 22.267 56.8378 21.8402 57.6364C21.4134 58.4351 21.2115 59.3346 21.2561 60.239C21.3006 61.1434 21.5899 62.0188 22.0931 62.7716C21.1617 63.0231 20.335 63.5657 19.7336 64.3201C19.1323 65.0745 18.7876 66.0013 18.75 66.9653V76.25C18.75 76.5815 18.8817 76.8995 19.1161 77.1339C19.3505 77.3683 19.6685 77.5 20 77.5H31.25C31.25 77.8315 31.3817 78.1495 31.6161 78.3839C31.8505 78.6183 32.1685 78.75 32.5 78.75H47.5C47.8315 78.75 48.1495 78.6183 48.3839 78.3839C48.6183 78.1495 48.75 77.8315 48.75 77.5H60C60.3315 77.5 60.6495 77.3683 60.8839 77.1339C61.1183 76.8995 61.25 76.5815 61.25 76.25V66.9653C61.2124 66.0013 60.8678 65.0745 60.2664 64.3201C59.665 63.5657 58.8383 63.0231 57.9069 62.7716ZM26.25 57.5C26.7445 57.5 27.2278 57.6466 27.6389 57.9213C28.05 58.196 28.3705 58.5865 28.5597 59.0433C28.7489 59.5001 28.7984 60.0028 28.702 60.4877C28.6055 60.9727 28.3674 61.4181 28.0178 61.7678C27.6681 62.1174 27.2227 62.3555 26.7377 62.452C26.2528 62.5484 25.7501 62.4989 25.2933 62.3097C24.8365 62.1205 24.446 61.8 24.1713 61.3889C23.8966 60.9778 23.75 60.4945 23.75 60C23.7507 59.3372 24.0143 58.7017 24.483 58.233C24.9517 57.7643 25.5872 57.5007 26.25 57.5ZM31.25 75H21.25V66.9653C21.3296 66.3771 21.6351 65.8429 22.1017 65.4761C22.5684 65.1092 23.1596 64.9385 23.75 65H28.75C29.3404 64.9385 29.9316 65.1092 30.3983 65.4761C30.8649 65.8429 31.1704 66.3771 31.25 66.9653V75ZM40 52.5C40.5154 52.5011 41.0251 52.609 41.4967 52.817C41.9683 53.0249 42.3917 53.3284 42.7402 53.7083C40.9447 53.2299 39.0553 53.2299 37.2598 53.7083C37.6083 53.3284 38.0317 53.0249 38.5033 52.817C38.9749 52.609 39.4846 52.5011 40 52.5ZM43.7003 56.7417C43.5855 57.642 43.1464 58.4695 42.4652 59.0693C41.784 59.6691 40.9076 60 40 60C39.0924 60 38.216 59.6691 37.5348 59.0693C36.8536 58.4695 36.4145 57.642 36.2997 56.7417C37.4465 56.1603 38.7142 55.8573 40 55.8573C41.2858 55.8573 42.5535 56.1603 43.7003 56.7417ZM41.0962 69.6362L40 70.7325L38.9037 69.6362L40 65.8002L41.0962 69.6362ZM46.25 76.25H33.75V65C33.7507 64.3372 34.0143 63.7017 34.483 63.233C34.9517 62.7643 35.5872 62.5007 36.25 62.5H38.3429L36.2982 69.6564C36.2368 69.8707 36.2339 70.0976 36.2899 70.3134C36.3458 70.5293 36.4585 70.7262 36.6162 70.8838L39.1162 73.3838C39.2323 73.4999 39.37 73.592 39.5217 73.6548C39.6733 73.7177 39.8359 73.75 40 73.75C40.1641 73.75 40.3267 73.7177 40.4783 73.6548C40.63 73.592 40.7677 73.4999 40.8838 73.3838L43.3838 70.8838C43.5415 70.7262 43.6542 70.5293 43.7101 70.3134C43.7661 70.0976 43.7632 69.8707 43.7018 69.6564L41.6571 62.5H43.75C44.4128 62.5007 45.0483 62.7643 45.517 63.233C45.9857 63.7017 46.2493 64.3372 46.25 65V76.25ZM53.75 57.5C54.2445 57.5 54.7278 57.6466 55.1389 57.9213C55.55 58.196 55.8705 58.5865 56.0597 59.0433C56.2489 59.5001 56.2984 60.0028 56.202 60.4877C56.1055 60.9727 55.8674 61.4181 55.5178 61.7678C55.1681 62.1174 54.7227 62.3555 54.2377 62.452C53.7528 62.5484 53.2501 62.4989 52.7933 62.3097C52.3365 62.1205 51.946 61.8 51.6713 61.3889C51.3966 60.9778 51.25 60.4945 51.25 60C51.2507 59.3372 51.5143 58.7017 51.983 58.233C52.4517 57.7643 53.0872 57.5007 53.75 57.5ZM58.75 75H48.75V66.9653C48.8296 66.3771 49.1351 65.8429 49.6017 65.4761C50.0684 65.1092 50.6596 64.9385 51.25 65H56.25C56.8404 64.9385 57.4316 65.1092 57.8983 65.4761C58.3649 65.8429 58.6704 66.3771 58.75 66.9653V75Z" fill="black"/>
</svg>
