<svg width="24" height="24" viewBox="0 0 24 24" fill="none" xmlns="http://www.w3.org/2000/svg">
<mask id="mask0_56_2551" style="mask-type:luminance" maskUnits="userSpaceOnUse" x="0" y="0" width="24" height="24">
<path d="M23.8812 0H0V23.8812H23.8812V0Z" fill="white"/>
</mask>
<g mask="url(#mask0_56_2551)">
<path d="M21.3752 2.47534H8.73674C7.56217 2.47534 6.60645 3.43059 6.60645 4.60469V6.91605C6.60645 7.11304 6.76589 7.27249 6.96288 7.27249C7.15987 7.27249 7.31932 7.11304 7.31932 6.91605V4.60469C7.31932 3.82362 7.9552 3.18821 8.73674 3.18821H21.3752C22.1575 3.18821 22.7939 3.82362 22.7939 4.60469V13.3039C22.7939 14.0849 22.1575 14.7203 21.3752 14.7203H16.6396C16.6337 14.7203 16.628 14.7218 16.6221 14.722C16.6161 14.7218 16.6106 14.7203 16.6045 14.7203H13.5059C13.3091 14.7203 13.1494 14.88 13.1494 15.0768V18.7587H9.74712C9.55013 18.7587 9.39068 18.9184 9.39068 19.1152C9.39068 19.3119 9.55013 19.4716 9.74712 19.4716H13.5061H16.6047H20.3668C20.5635 19.4716 20.7232 19.3119 20.7232 19.1152C20.7232 18.9184 20.5635 18.7587 20.3668 18.7587H16.9611V15.4332H21.3752C22.5505 15.4332 23.5067 14.478 23.5067 13.3039V4.60469C23.5067 3.43059 22.5505 2.47534 21.3752 2.47534ZM13.8625 18.7587V15.4332H16.2483V18.7587H13.8625Z" fill="black" stroke="black" stroke-width="0.5"/>
<path d="M7.6709 17.8444C8.99827 17.8444 10.3202 17.2988 11.268 16.2302C13.0262 14.2473 12.8442 11.204 10.8619 9.44607C8.87922 7.6886 5.83621 7.87086 4.07827 9.85216C2.4004 11.7448 2.49427 14.6008 4.22939 16.3859L3.64508 17.0453L3.51011 16.9257C3.36302 16.7955 3.13894 16.8088 3.00848 16.9547L0.368721 19.9025C0.305513 19.973 0.272959 20.0657 0.278424 20.16C0.283652 20.2544 0.326186 20.3433 0.396761 20.406L1.22678 21.1476C1.29474 21.2084 1.37957 21.2384 1.46417 21.2384C1.56207 21.2384 1.65949 21.1982 1.72983 21.1196L4.37221 18.1671C4.43541 18.0965 4.46797 18.0036 4.4625 17.9088C4.45704 17.8142 4.41379 17.7256 4.34298 17.6626L4.17926 17.5177L4.76215 16.8599C5.62353 17.5177 6.64817 17.8444 7.6709 17.8444ZM1.43613 20.3789L1.13767 20.1123L3.27795 17.7227C3.29672 17.7821 3.32999 17.838 3.38013 17.8822C3.44191 17.9368 3.51771 17.963 3.59423 17.9677L1.43613 20.3789ZM4.61173 10.3253C5.41918 9.41517 6.54456 8.95086 7.67541 8.95086C8.64135 8.95086 9.6111 9.28995 10.3891 9.97929C12.0772 11.4763 12.2323 14.0683 10.7348 15.7571C9.23779 17.445 6.64555 17.6001 4.95724 16.1026C3.26963 14.6058 3.1147 12.0141 4.61173 10.3253Z" fill="black" stroke="black" stroke-width="0.5"/>
<path d="M15.0831 5.80113C15.318 5.80113 15.5084 5.6107 15.5084 5.37579C15.5084 5.14087 15.318 4.95044 15.0831 4.95044C14.8481 4.95044 14.6577 5.14087 14.6577 5.37579C14.6577 5.6107 14.8481 5.80113 15.0831 5.80113Z" fill="black" stroke="black" stroke-width="0.5"/>
</g>
</svg>
