<svg width="64" height="34" viewBox="0 0 64 34" fill="none" xmlns="http://www.w3.org/2000/svg">
<path d="M56 33H8V9" stroke="#1B679E" stroke-width="2" stroke-miterlimit="10"/>
<path d="M8 1H56V25" stroke="#1B679E" stroke-width="2" stroke-miterlimit="10"/>
<path d="M49 18L56 25L63 18" stroke="#1B679E" stroke-width="2" stroke-miterlimit="10" stroke-linejoin="bevel"/>
<path d="M15 16L8 9L1 16" stroke="#1B679E" stroke-width="2" stroke-miterlimit="10" stroke-linejoin="bevel"/>
<g clip-path="url(#clip0_160_4064)">
<path fill-rule="evenodd" clip-rule="evenodd" d="M43.2839 11.7514H46.1855C46.4116 11.7514 46.6147 11.8435 46.7607 11.9887C46.9082 12.1351 46.9998 12.3394 46.9998 12.56V20.44C46.9998 20.662 46.9062 20.8656 46.7603 21.0106C46.6143 21.1555 46.4092 21.2484 46.1855 21.2484H43.2839V23.6106C43.2839 23.9921 43.126 24.3399 42.8723 24.5913C42.6191 24.8429 42.2688 25 41.8845 25H18.3992C18.0149 25 17.6643 24.8434 17.4106 24.5918C17.1577 24.3407 17 23.9933 17 23.6106V9.38919C17 9.00644 17.1572 8.65884 17.4104 8.40747C17.6636 8.15611 18.0137 8 18.3992 8H41.8845C42.27 8 42.6199 8.15659 42.8728 8.40796C43.1262 8.65981 43.2839 9.0079 43.2839 9.38944V11.7514ZM45.6182 13.1234H43.2839V19.8764H45.6182V13.1234ZM41.9021 20.5624V12.4371V9.38919C41.9021 9.3858 41.8997 9.38168 41.896 9.3778C41.8923 9.37417 41.8882 9.37198 41.8848 9.37198H18.3992C18.395 9.37198 18.3906 9.37417 18.3872 9.37756C18.3838 9.38095 18.3818 9.38532 18.3818 9.38919V23.6106C18.3818 23.614 18.384 23.6181 18.3877 23.6217C18.3916 23.6256 18.3958 23.6278 18.3992 23.6278H41.8845C41.8875 23.6278 41.8914 23.6253 41.8955 23.6215C41.8994 23.6173 41.9019 23.6135 41.9019 23.6106L41.9021 20.5624ZM20.6492 10.7689H25.3213V22.2231H20.6492C20.2598 22.2231 19.9238 21.899 19.9238 21.5029V11.4891C19.9238 11.0928 20.2502 10.7689 20.6492 10.7689ZM27.2925 10.7689H32.8281V22.2231H27.2925V10.7689Z" fill="#1B679E"/>
</g>
<defs>
<clipPath id="clip0_160_4064">
<rect width="30" height="17" fill="white" transform="translate(17 8)"/>
</clipPath>
</defs>
</svg>
