<svg width="80" height="80" viewBox="0 0 80 80" fill="none" xmlns="http://www.w3.org/2000/svg">
<g clip-path="url(#clip0_737_7809)">
<path d="M53.505 22.5863L57.6685 29.7979C57.6777 29.8138 57.6898 29.8291 57.6977 29.8453L61.8711 37.0738C62.092 37.4564 61.9631 37.9457 61.5805 38.1666C61.5671 38.1743 61.5536 38.1815 61.54 38.1884C61.2336 38.3747 60.9789 38.6341 60.8018 38.9411C60.6241 39.2489 60.5224 39.6104 60.5224 40C60.5224 40.3896 60.6241 40.7511 60.8018 41.0589C60.9866 41.3792 61.2558 41.6477 61.5802 41.8354C61.9626 42.0567 62.0942 42.5445 61.8729 42.9269C61.8638 42.9426 61.8543 42.9578 61.8443 42.9726L57.6704 50.202C57.6579 50.2237 57.6461 50.2454 57.632 50.2655L53.4687 57.4765C53.2478 57.8591 52.7607 57.9933 52.3781 57.7724C52.3644 57.7645 52.351 57.7563 52.338 57.7477C52.193 57.6681 52.0359 57.6046 51.8692 57.56C51.6966 57.5138 51.5124 57.4892 51.3195 57.4892C50.735 57.4892 50.2057 57.7261 49.8228 58.1091C49.4398 58.4921 49.2029 59.0213 49.2029 59.6059C49.2029 60.0477 48.8447 60.4059 48.4029 60.4059H40.0001H31.5973C31.1555 60.4059 30.7973 60.0477 30.7973 59.6059C30.7973 59.0213 30.5604 58.4921 30.1774 58.1091C29.7944 57.7261 29.2651 57.4892 28.6806 57.4892C28.4877 57.4892 28.3035 57.5138 28.1309 57.56C27.9488 57.6088 27.778 57.68 27.6221 57.7702C27.2397 57.9915 26.7509 57.8626 26.5296 57.4802C26.517 57.4584 26.5055 57.4362 26.4951 57.4137L22.3316 50.2021C22.3224 50.1862 22.3104 50.1709 22.3024 50.1546L18.129 42.9262C17.9081 42.5436 18.037 42.0543 18.4197 41.8334C18.433 41.8257 18.4465 41.8184 18.4601 41.8116C18.7666 41.6253 19.0212 41.3658 19.1984 41.0589C19.3761 40.751 19.4778 40.3896 19.4778 40C19.4778 39.6104 19.3761 39.2489 19.1984 38.9411C19.0135 38.6208 18.7444 38.3523 18.4199 38.1645C18.0375 37.9433 17.906 37.4555 18.1272 37.0731C18.1363 37.0574 18.1459 37.0422 18.1558 37.0274L22.3297 29.798C22.3422 29.7763 22.354 29.7545 22.3682 29.7345L26.5314 22.5235C26.7524 22.1408 27.2394 22.0066 27.6221 22.2275C27.6358 22.2355 27.6491 22.2437 27.6622 22.2523C27.8071 22.3319 27.9642 22.3953 28.1309 22.4399C28.3035 22.4861 28.4877 22.5108 28.6806 22.5108C29.2651 22.5108 29.7944 22.2739 30.1774 21.8909C30.5604 21.5079 30.7973 20.9786 30.7973 20.3941C30.7973 19.9523 31.1555 19.5941 31.5973 19.5941H40.0001H48.4029C48.8447 19.5941 49.2029 19.9523 49.2029 20.3941C49.2029 20.9786 49.4398 21.5079 49.8228 21.8909C50.2057 22.2739 50.735 22.5108 51.3195 22.5108C51.5124 22.5108 51.6967 22.4861 51.8692 22.4399C52.0514 22.3912 52.2221 22.32 52.3781 22.2297C52.7605 22.0085 53.2492 22.1373 53.4705 22.5197C53.4831 22.5416 53.4946 22.5638 53.505 22.5863ZM56.2886 30.594L52.4447 23.936C52.3909 23.9531 52.3365 23.9691 52.2817 23.9837C51.9722 24.0666 51.6494 24.1108 51.3195 24.1108C50.2933 24.1108 49.3641 23.6947 48.6915 23.0222C48.1989 22.5295 47.844 21.8993 47.6892 21.1941H40.0001H32.3109C32.1562 21.8993 31.8012 22.5295 31.3087 23.0222C30.636 23.6947 29.7068 24.1108 28.6806 24.1108C28.3507 24.1108 28.028 24.0666 27.7184 23.9837C27.6637 23.9691 27.6093 23.9531 27.5555 23.936L23.7478 30.5311C23.7376 30.5534 23.7263 30.5754 23.7137 30.5971L19.8659 37.2578C20.1462 37.5146 20.3876 37.8145 20.5796 38.1473C20.8965 38.6963 21.0778 39.3292 21.0778 40C21.0778 40.6707 20.8965 41.3037 20.5796 41.8527C20.3876 42.1855 20.1462 42.4854 19.8659 42.7422L23.6847 49.3565C23.6948 49.3716 23.7045 49.387 23.7137 49.4029L27.5555 56.064C27.6093 56.0468 27.6637 56.0309 27.7184 56.0163C28.028 55.9334 28.3507 55.8892 28.6806 55.8892C29.7068 55.8892 30.636 56.3053 31.3087 56.9778C31.8012 57.4705 32.1562 58.1007 32.3109 58.8059H40.0001H47.6892C47.844 58.1007 48.1989 57.4705 48.6915 56.9778C49.3641 56.3053 50.2933 55.8892 51.3195 55.8892C51.6494 55.8892 51.9722 55.9334 52.2817 56.0163C52.3365 56.0309 52.3909 56.0468 52.4447 56.064L56.2523 49.4689C56.2626 49.4466 56.2739 49.4246 56.2864 49.4029L60.1342 42.7422C59.8539 42.4854 59.6126 42.1855 59.4205 41.8527C59.1037 41.3037 58.9224 40.6707 58.9224 40C58.9224 39.3292 59.1037 38.6962 59.4205 38.1473C59.6126 37.8145 59.8539 37.5146 60.1342 37.2578L56.3154 30.6435C56.3053 30.6284 56.2978 30.6099 56.2886 30.594Z" fill="black"/>
<path d="M17.3612 36.2833C18.3874 36.2833 19.3166 36.6993 19.9892 37.3719C20.6618 38.0445 21.0778 38.9737 21.0778 39.9999C21.0778 41.0262 20.6618 41.9553 19.9892 42.6279C19.3166 43.3005 18.3874 43.7166 17.3612 43.7166C16.3349 43.7166 15.4058 43.3005 14.7332 42.6279C14.0606 41.9553 13.6445 41.0262 13.6445 39.9999C13.6445 38.9737 14.0606 38.0445 14.7332 37.3719C15.4058 36.6993 16.3349 36.2833 17.3612 36.2833ZM18.858 38.5031C18.475 38.1202 17.9457 37.8833 17.3612 37.8833C16.7766 37.8833 16.2474 38.1202 15.8644 38.5031C15.4814 38.8861 15.2445 39.4153 15.2445 39.9999C15.2445 40.5845 15.4814 41.1137 15.8644 41.4967C16.2474 41.8797 16.7766 42.1166 17.3612 42.1166C17.9457 42.1166 18.475 41.8797 18.858 41.4967C19.2409 41.1137 19.4778 40.5845 19.4778 39.9999C19.4778 39.4153 19.2409 38.8861 18.858 38.5031Z" fill="black"/>
<path d="M28.6815 55.8892C29.7077 55.8892 30.6369 56.3052 31.3095 56.9778C31.9821 57.6504 32.3981 58.5796 32.3981 59.6058C32.3981 60.6321 31.9821 61.5612 31.3095 62.2338C30.6369 62.9064 29.7077 63.3225 28.6815 63.3225C27.6552 63.3225 26.7261 62.9064 26.0535 62.2338C25.3809 61.5612 24.9648 60.6321 24.9648 59.6058C24.9648 58.5796 25.3809 57.6504 26.0535 56.9778C26.7261 56.3052 27.6552 55.8892 28.6815 55.8892ZM30.1783 58.109C29.7953 57.726 29.266 57.4892 28.6815 57.4892C28.0969 57.4892 27.5677 57.726 27.1847 58.109C26.8017 58.492 26.5648 59.0213 26.5648 59.6058C26.5648 60.1904 26.8017 60.7196 27.1847 61.1026C27.5677 61.4856 28.0969 61.7225 28.6815 61.7225C29.266 61.7225 29.7953 61.4856 30.1783 61.1026C30.5613 60.7196 30.7981 60.1904 30.7981 59.6058C30.7981 59.0213 30.5613 58.492 30.1783 58.109Z" fill="black"/>
<path d="M28.6815 16.6775C29.7077 16.6775 30.6369 17.0936 31.3095 17.7661C31.9821 18.4387 32.3981 19.3679 32.3981 20.3941C32.3981 21.4203 31.9821 22.3495 31.3095 23.0222C30.6369 23.6947 29.7077 24.1108 28.6815 24.1108C27.6552 24.1108 26.7261 23.6947 26.0535 23.0222C25.3809 22.3495 24.9648 21.4203 24.9648 20.3941C24.9648 19.3679 25.3809 18.4388 26.0535 17.7661C26.7261 17.0936 27.6552 16.6775 28.6815 16.6775ZM30.1783 18.8974C29.7953 18.5144 29.266 18.2775 28.6815 18.2775C28.0969 18.2775 27.5677 18.5144 27.1847 18.8974C26.8017 19.2804 26.5648 19.8096 26.5648 20.3941C26.5648 20.9787 26.8017 21.5079 27.1847 21.8909C27.5677 22.2739 28.0969 22.5108 28.6815 22.5108C29.266 22.5108 29.7953 22.2739 30.1783 21.8909C30.5613 21.5079 30.7981 20.9787 30.7981 20.3941C30.7981 19.8096 30.5613 19.2804 30.1783 18.8974Z" fill="black"/>
<path d="M51.3202 16.6775C52.3464 16.6775 53.2756 17.0936 53.9482 17.7661C54.6208 18.4387 55.0368 19.3679 55.0368 20.3941C55.0368 21.4203 54.6208 22.3495 53.9482 23.0222C53.2756 23.6947 52.3464 24.1108 51.3202 24.1108C50.294 24.1108 49.3648 23.6947 48.6921 23.0222C48.0196 22.3495 47.6035 21.4203 47.6035 20.3941C47.6035 19.3679 48.0196 18.4388 48.6921 17.7661C49.3648 17.0936 50.294 16.6775 51.3202 16.6775ZM52.8169 18.8974C52.4339 18.5144 51.9047 18.2775 51.3202 18.2775C50.7356 18.2775 50.2064 18.5144 49.8234 18.8974C49.4404 19.2804 49.2035 19.8096 49.2035 20.3941C49.2035 20.9787 49.4404 21.5079 49.8234 21.8909C50.2064 22.2739 50.7356 22.5108 51.3202 22.5108C51.9047 22.5108 52.4339 22.2739 52.8169 21.8909C53.1999 21.5079 53.4368 20.9787 53.4368 20.3941C53.4368 19.8096 53.1999 19.2804 52.8169 18.8974Z" fill="black"/>
<path d="M62.6385 36.2833C63.6648 36.2833 64.5939 36.6993 65.2666 37.3719C65.9391 38.0445 66.3552 38.9737 66.3552 39.9999C66.3552 41.0262 65.9391 41.9553 65.2666 42.6279C64.5939 43.3005 63.6648 43.7166 62.6385 43.7166C61.6123 43.7166 60.6831 43.3005 60.0105 42.6279C59.3379 41.9553 58.9219 41.0262 58.9219 39.9999C58.9219 38.9737 59.3379 38.0445 60.0105 37.3719C60.6831 36.6993 61.6123 36.2833 62.6385 36.2833ZM64.1353 38.5031C63.7523 38.1202 63.2231 37.8833 62.6385 37.8833C62.054 37.8833 61.5247 38.1202 61.1418 38.5031C60.7588 38.8861 60.5219 39.4153 60.5219 39.9999C60.5219 40.5845 60.7588 41.1137 61.1418 41.4967C61.5247 41.8797 62.054 42.1166 62.6385 42.1166C63.2231 42.1166 63.7523 41.8797 64.1353 41.4967C64.5183 41.1137 64.7552 40.5845 64.7552 39.9999C64.7552 39.4153 64.5183 38.8861 64.1353 38.5031Z" fill="black"/>
<path d="M51.3202 55.8892C52.3464 55.8892 53.2756 56.3052 53.9482 56.9778C54.6208 57.6504 55.0368 58.5796 55.0368 59.6058C55.0368 60.6321 54.6208 61.5612 53.9482 62.2338C53.2756 62.9064 52.3464 63.3225 51.3202 63.3225C50.294 63.3225 49.3648 62.9064 48.6921 62.2338C48.0196 61.5612 47.6035 60.6321 47.6035 59.6058C47.6035 58.5796 48.0196 57.6504 48.6921 56.9778C49.3648 56.3052 50.294 55.8892 51.3202 55.8892ZM52.8169 58.109C52.4339 57.726 51.9047 57.4892 51.3202 57.4892C50.7356 57.4892 50.2064 57.726 49.8234 58.109C49.4404 58.492 49.2035 59.0213 49.2035 59.6058C49.2035 60.1904 49.4404 60.7196 49.8234 61.1026C50.2064 61.4856 50.7356 61.7225 51.3202 61.7225C51.9047 61.7225 52.4339 61.4856 52.8169 61.1026C53.1999 60.7196 53.4368 60.1904 53.4368 59.6058C53.4368 59.0213 53.1999 58.492 52.8169 58.109Z" fill="black"/>
<path d="M33.1945 36.5089H46.8056C47.2474 36.5089 47.6056 36.8671 47.6056 37.3089V49.3922C47.6056 49.834 47.2474 50.1922 46.8056 50.1922H33.1945C32.7527 50.1922 32.3945 49.834 32.3945 49.3922V37.3089C32.3945 36.8671 32.7527 36.5089 33.1945 36.5089ZM46.0056 38.1089H33.9945V48.5922H46.0056V38.1089Z" fill="black"/>
<path d="M40.0005 29.8078C41.4644 29.8078 42.7628 30.6915 43.6809 32.1218C44.5296 33.4438 45.0581 35.2583 45.0678 37.2536L45.0708 37.2734C45.0709 37.2834 45.071 37.2934 45.0707 37.3033C45.0738 37.7451 44.7187 38.1058 44.277 38.1089L35.7297 38.1089C35.2879 38.1089 34.9297 37.7508 34.9297 37.3089L34.93 37.2888C34.9302 37.2661 34.9313 37.2437 34.9333 37.2215C34.9485 35.2481 35.4724 33.4523 36.3117 32.1379C37.231 30.6981 38.533 29.8078 40.0005 29.8078ZM42.3372 32.9843C41.7117 32.0099 40.8839 31.4078 40.0005 31.4078C39.1123 31.4078 38.2813 32.0139 37.6554 32.9941C37.0695 33.9117 36.6713 35.1347 36.5591 36.5089H43.4417C43.3287 35.1306 42.9274 33.9036 42.3372 32.9843Z" fill="black"/>
<path d="M40.7992 42.6911C40.7992 42.2493 40.441 41.8911 39.9992 41.8911C39.5574 41.8911 39.1992 42.2493 39.1992 42.6911V44.9307C39.1992 45.3725 39.5574 45.7307 39.9992 45.7307C40.441 45.7307 40.7992 45.3725 40.7992 44.9307V42.6911Z" fill="black"/>
<path fill-rule="evenodd" clip-rule="evenodd" d="M40 0C62.0914 0 80 17.9086 80 40C80 62.0914 62.0914 80 40 80C17.9086 80 0 62.0914 0 40C0 17.9086 17.9086 0 40 0ZM40 3.19996C60.3241 3.19996 76.8 19.6759 76.8 40C76.8 60.3241 60.3241 76.8 40 76.8C19.6759 76.8 3.2 60.3241 3.2 40C3.2 19.6759 19.6759 3.19996 40 3.19996Z" fill="black"/>
</g>
<defs>
<clipPath id="clip0_737_7809">
<rect width="80" height="80" fill="white"/>
</clipPath>
</defs>
</svg>
