<svg width="101" height="102" viewBox="0 0 101 102" fill="none" xmlns="http://www.w3.org/2000/svg">
<path d="M96.747 40.0468C96.561 39.2648 95.777 38.7817 94.992 38.9678C94.21 39.1548 93.727 39.9398 93.914 40.7218C94.68 43.9338 95.069 47.3258 95.069 50.8048C95.069 75.6548 74.399 95.8718 48.991 95.8718C23.583 95.8718 2.913 75.6548 2.913 50.8048C2.913 25.9528 23.583 5.73475 48.991 5.73475C59.11 5.73475 68.776 8.93675 76.943 14.9948C77.587 15.4738 78.501 15.3388 78.98 14.6928C79.459 14.0468 79.324 13.1348 78.678 12.6558C70.006 6.22175 59.74 2.82275 48.991 2.82275C21.977 2.82275 0 24.3468 0 50.8048C0 77.2607 21.977 98.7848 48.991 98.7848C76.005 98.7848 97.982 77.2607 97.982 50.8048C97.982 47.0998 97.566 43.4808 96.747 40.0468Z" fill="#138A00"/>
<path d="M47.9807 72.4878C47.5947 72.4878 47.2247 72.3348 46.9507 72.0618L19.6377 44.7528C19.0687 44.1838 19.0687 43.2618 19.6377 42.6928C20.2057 42.1238 21.1277 42.1238 21.6967 42.6928L47.9197 68.9118L97.4577 13.4258C97.9937 12.8258 98.9137 12.7738 99.5137 13.3098C100.114 13.8458 100.166 14.7658 99.6307 15.3658L49.0667 72.0018C48.7997 72.3008 48.4217 72.4768 48.0217 72.4878C48.0077 72.4878 47.9947 72.4878 47.9807 72.4878Z" fill="#138A00"/>
</svg>
