<svg width="75" height="37" viewBox="0 0 75 37" fill="none" xmlns="http://www.w3.org/2000/svg">
<g clip-path="url(#clip0_160_4065)">
<path fill-rule="evenodd" clip-rule="evenodd" d="M53.0905 11.3276H61.7318C62.4469 11.3276 63.0317 11.9304 63.0317 12.6254V30.6705C63.0317 31.365 62.4276 31.9683 61.7318 31.9683H53.0905V11.3276ZM68.327 13.098H73.5376C73.9436 13.098 74.3084 13.264 74.5705 13.5256C74.8353 13.7894 74.9998 14.1577 74.9998 14.5551V28.7547C74.9998 29.1548 74.8318 29.5217 74.5697 29.7829C74.3075 30.0441 73.9392 30.2114 73.5376 30.2114H68.327V34.4681C68.327 35.1556 68.0433 35.7824 67.5878 36.2354C67.1332 36.6888 66.504 36.9718 65.8139 36.9718H23.6395C22.9495 36.9718 22.3199 36.6897 21.8644 36.2363C21.4102 35.7837 21.127 35.1578 21.127 34.4681V8.84134C21.127 8.15163 21.4093 7.52526 21.8639 7.07229C22.3186 6.61933 22.9473 6.33803 23.6395 6.33803H65.8139C66.5062 6.33803 67.1345 6.6202 67.5887 7.07317C68.0438 7.527 68.327 8.15425 68.327 8.84178V13.098ZM72.5187 15.5703H68.327V27.7391H72.5187V15.5703ZM65.8455 28.9753V14.3337V8.84134C65.8455 8.83523 65.8411 8.8278 65.8346 8.82081C65.828 8.81426 65.8205 8.81033 65.8144 8.81033H23.6395C23.6321 8.81033 23.6242 8.81426 23.6181 8.82037C23.6119 8.82649 23.6084 8.83435 23.6084 8.84134V34.4681C23.6084 34.4742 23.6124 34.4816 23.6189 34.4882C23.626 34.4952 23.6334 34.4991 23.6395 34.4991H65.8139C65.8192 34.4991 65.8262 34.4947 65.8337 34.4877C65.8407 34.4803 65.8451 34.4733 65.8451 34.4681L65.8455 28.9753ZM27.68 11.3276H36.0701V31.9678H27.68C26.9808 31.9678 26.3775 31.3838 26.3775 30.6701V12.6254C26.3775 11.9112 26.9637 11.3276 27.68 11.3276ZM39.6099 11.3276H49.5507V31.9678H39.6099V11.3276Z" fill="#7CBA8A"/>
</g>
<path d="M10.623 0C4.76572 0 0 4.76572 0 10.623C0 16.4802 4.76572 21.2459 10.623 21.2459C16.4802 21.2459 21.2459 16.4802 21.2459 10.623C21.2459 4.76572 16.4802 0 10.623 0ZM10.623 20.3607C5.25349 20.3607 0.885246 15.9924 0.885246 10.623C0.885246 5.25349 5.25349 0.885246 10.623 0.885246C15.9924 0.885246 20.3607 5.25349 20.3607 10.623C20.3607 15.9924 15.9924 20.3607 10.623 20.3607Z" fill="#7CBA8A"/>
<path d="M11.0661 9.86031V2.65574H10.1808V9.86031C9.91746 10.0135 9.7382 10.2959 9.7382 10.623C9.7382 10.7017 9.75192 10.7765 9.77095 10.8496L5.88428 14.7362L6.51015 15.3621L10.3968 11.4754C10.4699 11.4945 10.5447 11.5082 10.6234 11.5082C11.1121 11.5082 11.5087 11.1121 11.5087 10.623C11.5087 10.2963 11.3294 10.0139 11.0661 9.86031Z" fill="#7CBA8A"/>
<defs>
<clipPath id="clip0_160_4065">
<rect width="53.8732" height="30.6338" fill="white" transform="translate(21.127 6.33803)"/>
</clipPath>
</defs>
</svg>
