<svg width="80" height="80" viewBox="0 0 80 80" fill="none" xmlns="http://www.w3.org/2000/svg">
<path d="M67.9219 29.7813L63.0781 24.4375L64.5938 17.3906C64.7344 16.7656 64.3594 16.1406 63.75 15.9375L56.8906 13.7188L54.6875 6.85939C54.4844 6.25002 53.8594 5.89064 53.2344 6.01564L46.1875 7.53127L40.8438 2.68752C40.375 2.25002 39.6406 2.25002 39.1719 2.68752L33.8281 7.53127L26.7812 6.01564C26.1562 5.87502 25.5312 6.25002 25.3281 6.85939L23.1094 13.7188L16.2344 15.9375C15.625 16.1406 15.2656 16.7656 15.3906 17.3906L16.9062 24.4375L12.0625 29.7813C11.625 30.25 11.625 30.9844 12.0625 31.4531L16.9062 36.7969L15.3906 43.8438C15.25 44.4688 15.625 45.0938 16.2344 45.2969L23.0937 47.5156L23.375 48.4063L15.2188 71.0156C15.0313 71.5156 15.1875 72.0781 15.6094 72.4063C16.0156 72.7344 16.5937 72.7813 17.0469 72.5L25.375 67.4063L28.5156 76.6406C28.6875 77.1406 29.1562 77.4844 29.6875 77.4844H29.7031C30.2344 77.4844 30.7031 77.1563 30.875 76.6563L37.8594 57.3438L39.1719 58.5313C39.4062 58.75 39.7031 58.8594 40.0156 58.8594C40.3281 58.8594 40.6094 58.75 40.8594 58.5313L42.1719 57.3438L49.1562 76.6563C49.3281 77.1563 49.8125 77.4844 50.3281 77.4844H50.3438C50.875 77.4844 51.3438 77.1406 51.5156 76.6406L54.6562 67.4063L62.9844 72.5C63.4375 72.7813 64.0156 72.7344 64.4219 72.4063C64.8281 72.0781 64.9844 71.5156 64.8125 71.0156L56.6406 48.4219L56.9219 47.5313L63.7812 45.3125C64.3906 45.1094 64.75 44.4844 64.625 43.8594L63.1094 36.8125L67.9531 31.4688C68.3594 30.9844 68.3594 30.2656 67.9219 29.7813ZM29.7187 72.4688L27.2187 65.125C27.0937 64.7656 26.8125 64.4844 26.4531 64.3438C26.0937 64.2031 25.7031 64.25 25.375 64.4531L18.75 68.5L24.6094 52.2969L25.2812 54.375C25.4844 54.9844 26.1094 55.3438 26.7344 55.2188L33.7812 53.7031L35.8125 55.5469L29.7187 72.4688ZM61.2188 68.5156L54.5938 64.4688C54.2656 64.2656 53.875 64.2344 53.5156 64.3594C53.1562 64.4844 52.875 64.7656 52.75 65.1406L50.25 72.4844L44.125 55.5625L46.1562 53.7188L53.2031 55.2344C53.8281 55.375 54.4531 55 54.6562 54.3906L55.3281 52.3125L61.2188 68.5156ZM60.8125 35.6094C60.5469 35.9063 60.4375 36.3125 60.5156 36.7031L61.9219 43.2813L55.5312 45.3438C55.1562 45.4688 54.8438 45.7656 54.7188 46.1563L54.1094 48.0313L52.6562 52.5469L46.0781 51.1406C45.6875 51.0625 45.2812 51.1719 44.9844 51.4375L40 55.9375L35.0156 51.4219C34.7812 51.2188 34.4844 51.0938 34.1719 51.0938C34.0781 51.0938 34 51.1094 33.9062 51.125L27.3281 52.5313L25.875 48.0156L25.2656 46.1406C25.1406 45.7656 24.8437 45.4531 24.4531 45.3281L18.0781 43.2813L19.4844 36.7031C19.5625 36.3125 19.4531 35.9063 19.1875 35.6094L14.6875 30.625L19.2031 25.6406C19.4687 25.3438 19.5781 24.9375 19.5 24.5469L18.0937 17.9688L24.4844 15.9063C24.8594 15.7813 25.1719 15.4844 25.2969 15.0938L27.3437 8.70314L33.9219 10.1094C34.3125 10.1875 34.7188 10.0781 35.0156 9.81252L40 5.31252L44.9844 9.82814C45.2812 10.0938 45.6875 10.2031 46.0781 10.125L52.6562 8.71877L54.7188 15.1094C54.8438 15.4844 55.1406 15.7969 55.5312 15.9219L61.9219 17.9844L60.5156 24.5625C60.4375 24.9531 60.5469 25.3594 60.8125 25.6563L65.3125 30.625L60.8125 35.6094Z" fill="black"/>
<path d="M40 12.5C29.6562 12.5 21.25 20.9062 21.25 31.25C21.25 41.5938 29.6562 50 40 50C50.3438 50 58.75 41.5938 58.75 31.25C58.75 20.9062 50.3438 12.5 40 12.5ZM40 47.5C31.0469 47.5 23.75 40.2031 23.75 31.25C23.75 22.2969 31.0469 15 40 15C48.9531 15 56.25 22.2969 56.25 31.25C56.25 40.2031 48.9531 47.5 40 47.5Z" fill="black"/>
<path d="M46.9844 21.9688L36.25 32.5938L33.0156 29.3906C32.0469 28.4375 30.4687 28.4375 29.4844 29.3906L27.5 31.3438C27.0312 31.8125 26.7656 32.4375 26.7656 33.1094C26.7656 33.7812 27.0312 34.4062 27.5 34.875L34.4844 41.7812C34.9687 42.2656 35.6094 42.5 36.25 42.5C36.8906 42.5 37.5312 42.2656 38.0156 41.7812L52.5 27.4688C52.9688 27 53.2344 26.375 53.2344 25.7031C53.2344 25.0312 52.9688 24.4062 52.5 23.9375L50.5156 21.9844C49.5469 21.0156 47.9531 21.0156 46.9844 21.9688ZM39.125 37.1719L36.25 40L29.2812 33.1094L31.2656 31.1719L35.375 35.2344C35.8594 35.7188 36.6406 35.7188 37.125 35.2344L48.75 23.75L47.875 22.8594L50.7344 25.6875L39.125 37.1719Z" fill="black"/>
</svg>
