<svg width="153" height="137" viewBox="0 0 153 137" fill="none" xmlns="http://www.w3.org/2000/svg">
<path d="M131.066 125.432C156.759 109.88 154.892 86.1873 148.886 79.5948C141.285 67.8128 119.602 59.5509 108.904 57.5141C96.6771 55.1864 85.0425 61.1902 68.6822 25.9926C50.9745 -12.1038 34.7977 0.0220556 23.0511 11.4801C-21.5957 55.0301 11.9001 112.789 30.7881 124.756C45.6274 134.158 98.9492 144.873 131.066 125.432Z" fill="#F2C6C6"/>
<path d="M129.188 78.7365H125.281C124.907 67.8937 121.047 57.4606 114.274 48.985C107.501 40.5095 98.1766 34.443 87.6836 31.6857C87.6836 13.3263 61.2188 13.3459 61.3164 31.6857C50.8234 34.443 41.4988 40.5095 34.7261 48.985C27.9534 57.4606 24.0934 67.8937 23.7188 78.7365H19.8125C19.2945 78.7365 18.7977 78.9423 18.4314 79.3085C18.0652 79.6748 17.8594 80.1716 17.8594 80.6896V90.7873C17.8594 91.3053 18.0652 91.8021 18.4314 92.1683C18.7977 92.5346 19.2945 92.7404 19.8125 92.7404H31.0234C33.7188 107.838 45.8086 120.436 61.8633 124.83V126.51C61.8685 127.739 62.3605 128.917 63.2317 129.784C64.1029 130.652 65.2823 131.139 66.5117 131.139H82.4883C83.7178 131.139 84.8972 130.652 85.7683 129.784C86.6395 128.917 87.1316 127.739 87.1367 126.51V124.83C103.191 120.436 115.281 107.838 117.977 92.7404H129.188C129.705 92.7404 130.202 92.5346 130.569 92.1683C130.935 91.8021 131.141 91.3053 131.141 90.7873V80.6896C131.141 80.1716 130.935 79.6748 130.569 79.3085C130.202 78.9423 129.705 78.7365 129.188 78.7365ZM117.977 63.1115H104.578C104.062 63.1057 103.56 62.9477 103.134 62.6573C102.707 62.3669 102.377 61.9571 102.182 61.4792C101.988 61.0014 101.94 60.4769 102.043 59.9715C102.146 59.4662 102.396 59.0025 102.762 58.6388C102.998 58.3964 103.28 58.204 103.592 58.0731C103.904 57.9422 104.24 57.8756 104.578 57.8771H115.516C116.44 59.591 117.262 61.3584 117.977 63.1701V63.1115ZM65.2422 30.9435C65.6328 18.6779 83.4063 18.6974 83.7969 30.9435V53.6388H65.2422V30.9435ZM33.4844 57.9357H44.4219C44.9376 57.9415 45.4401 58.0995 45.8663 58.3899C46.2925 58.6803 46.6235 59.0901 46.8175 59.568C47.0116 60.0458 47.0601 60.5703 46.9571 61.0757C46.854 61.581 46.604 62.0447 46.2383 62.4084C46.0022 62.6508 45.7197 62.8432 45.4076 62.9741C45.0955 63.1049 44.7603 63.1716 44.4219 63.1701H31.0234C31.74 61.3784 32.5617 59.6305 33.4844 57.9357ZM29.5781 67.0763H44.4219C45.278 67.0699 46.1243 66.894 46.9121 66.5588C47.6999 66.2235 48.4135 65.7356 49.0117 65.1232C49.9095 64.206 50.5187 63.0457 50.7638 61.7858C51.0089 60.526 50.8792 59.2219 50.3907 58.035C49.9022 56.8481 49.0765 55.8305 48.0155 55.1082C46.9546 54.3858 45.7052 53.9904 44.4219 53.9709H35.9063C42.0044 45.1275 50.9759 38.6679 61.2969 35.6896V55.592C61.2969 56.11 61.5027 56.6067 61.8689 56.973C62.2352 57.3393 62.732 57.5451 63.25 57.5451H85.7109C86.229 57.5451 86.7257 57.3393 87.092 56.973C87.4583 56.6067 87.6641 56.11 87.6641 55.592V35.7482C97.985 38.7265 106.957 45.1861 113.055 54.0295H104.578C103.722 54.0359 102.876 54.2118 102.088 54.547C101.3 54.8822 100.587 55.3701 99.9883 55.9826C99.1097 56.9023 98.5173 58.0575 98.2832 59.3077C98.0491 60.5579 98.1833 61.8492 98.6696 63.0245C99.1558 64.1999 99.9732 65.2085 101.022 65.9279C102.071 66.6472 103.307 67.0462 104.578 67.0763H119.422C120.555 70.8868 121.211 74.8231 121.375 78.7951H27.625C27.7889 74.8231 28.445 70.8868 29.5781 67.0763ZM83.2305 126.51C83.2254 126.703 83.1449 126.887 83.0063 127.022C82.8677 127.157 82.6818 127.233 82.4883 127.233H66.5117C66.3182 127.233 66.1323 127.157 65.9937 127.022C65.8551 126.887 65.7746 126.703 65.7695 126.51V122.604C65.7695 122.407 65.8477 122.218 65.9869 122.079C66.1261 121.94 66.3149 121.861 66.5117 121.861H82.4883C82.6851 121.861 82.8739 121.94 83.0131 122.079C83.1523 122.218 83.2305 122.407 83.2305 122.604V126.51ZM86.7656 120.885C86.405 120.048 85.8084 119.335 85.0488 118.832C84.2891 118.329 83.3993 118.058 82.4883 118.053H66.5117C65.6007 118.058 64.7109 118.329 63.9513 118.832C63.1916 119.335 62.595 120.048 62.2344 120.885C48.2109 116.803 37.6055 105.865 34.9883 92.7404H114.012C111.395 105.865 100.789 116.803 86.7656 120.885ZM127.234 88.8341H21.7656V82.6427H127.234V88.8341Z" fill="black"/>
<path d="M74.5 24.2052C72.5575 24.2052 70.6946 24.9769 69.321 26.3504C67.9474 27.724 67.1758 29.5869 67.1758 31.5295C67.1758 33.472 67.9474 35.3349 69.321 36.7085C70.6946 38.082 72.5575 38.8537 74.5 38.8537C76.4425 38.8537 78.3055 38.082 79.679 36.7085C81.0526 35.3349 81.8242 33.472 81.8242 31.5295C81.8242 29.5869 81.0526 27.724 79.679 26.3504C78.3055 24.9769 76.4425 24.2052 74.5 24.2052ZM74.5 34.9474C73.5935 34.9474 72.7241 34.5873 72.0831 33.9463C71.4421 33.3053 71.082 32.436 71.082 31.5295C71.082 30.623 71.4421 29.7536 72.0831 29.1126C72.7241 28.4716 73.5935 28.1115 74.5 28.1115C75.4065 28.1115 76.2759 28.4716 76.9169 29.1126C77.5579 29.7536 77.918 30.623 77.918 31.5295C77.918 32.436 77.5579 33.3053 76.9169 33.9463C76.2759 34.5873 75.4065 34.9474 74.5 34.9474Z" fill="black"/>
</svg>
