<svg width="54" height="54" viewBox="0 0 54 54" fill="none" xmlns="http://www.w3.org/2000/svg">
<path d="M44.2352 43.5113C52.6376 38.2085 52.1162 30.2778 50.189 28.0908C47.7623 24.171 40.7482 21.4811 37.2802 20.8373C33.3168 20.1014 29.5157 22.1547 24.3277 10.4217C18.7125 -2.27743 13.4138 1.84311 9.55678 5.72399C-5.10337 20.4746 5.5699 39.7044 11.6626 43.6455C16.4493 46.7418 33.7322 50.1398 44.2352 43.5113Z" fill="#F2C6C6"/>
<path d="M45.375 28.4234H44.0625C43.9366 24.7802 42.6397 21.2747 40.364 18.4269C38.0884 15.5791 34.9553 13.5408 31.4297 12.6143C31.4297 6.44559 22.5375 6.45215 22.5703 12.6143C19.0447 13.5408 15.9116 15.5791 13.636 18.4269C11.3603 21.2747 10.0634 24.7802 9.9375 28.4234H8.625C8.45095 28.4234 8.28403 28.4925 8.16096 28.6156C8.03789 28.7387 7.96875 28.9056 7.96875 29.0796V32.4725C7.96875 32.6465 8.03789 32.8134 8.16096 32.9365C8.28403 33.0596 8.45095 33.1287 8.625 33.1287H12.3919C13.2975 38.2015 17.3597 42.4343 22.7541 43.9109V44.4753C22.7558 44.8884 22.9211 45.284 23.2138 45.5754C23.5066 45.8669 23.9028 46.0306 24.3159 46.0306H29.6841C30.0972 46.0306 30.4934 45.8669 30.7862 45.5754C31.0789 45.284 31.2442 44.8884 31.2459 44.4753V43.9109C36.6403 42.4343 40.7025 38.2015 41.6081 33.1287H45.375C45.549 33.1287 45.716 33.0596 45.839 32.9365C45.9621 32.8134 46.0312 32.6465 46.0312 32.4725V29.0796C46.0312 28.9056 45.9621 28.7387 45.839 28.6156C45.716 28.4925 45.549 28.4234 45.375 28.4234ZM41.6081 23.1734H37.1063C36.933 23.1715 36.7641 23.1184 36.6209 23.0208C36.4777 22.9232 36.3665 22.7855 36.3013 22.625C36.2361 22.4644 36.2198 22.2882 36.2544 22.1184C36.289 21.9486 36.3731 21.7928 36.4959 21.6706C36.5753 21.5891 36.6702 21.5245 36.775 21.4805C36.8799 21.4365 36.9925 21.4141 37.1063 21.4146H40.7812C41.092 21.9905 41.3681 22.5844 41.6081 23.1931V23.1734ZM23.8894 12.365C24.0206 8.24371 29.9925 8.25027 30.1237 12.365V19.9906H23.8894V12.365ZM13.2188 21.4343H16.8938C17.067 21.4363 17.2359 21.4894 17.3791 21.5869C17.5223 21.6845 17.6335 21.8222 17.6987 21.9828C17.7639 22.1433 17.7802 22.3196 17.7456 22.4894C17.711 22.6592 17.6269 22.8149 17.5041 22.9371C17.4247 23.0186 17.3298 23.0833 17.225 23.1272C17.1201 23.1712 17.0075 23.1936 16.8938 23.1931H12.3919C12.6326 22.5911 12.9087 22.0038 13.2188 21.4343ZM11.9062 24.5056H16.8938C17.1814 24.5034 17.4658 24.4443 17.7305 24.3317C17.9952 24.219 18.2349 24.0551 18.4359 23.8493C18.7376 23.5412 18.9423 23.1513 19.0246 22.728C19.107 22.3047 19.0634 21.8665 18.8993 21.4677C18.7352 21.0689 18.4577 20.727 18.1012 20.4843C17.7448 20.2416 17.3249 20.1087 16.8938 20.1021H14.0325C16.0815 17.1308 19.0959 14.9604 22.5638 13.9596V20.6468C22.5638 20.8209 22.6329 20.9878 22.756 21.1109C22.879 21.2339 23.046 21.3031 23.22 21.3031H30.7669C30.9409 21.3031 31.1078 21.2339 31.2309 21.1109C31.354 20.9878 31.4231 20.8209 31.4231 20.6468V13.9793C34.891 14.9801 37.9054 17.1505 39.9544 20.1218H37.1063C36.8186 20.124 36.5342 20.1831 36.2695 20.2957C36.0048 20.4084 35.7651 20.5723 35.5641 20.7781C35.2689 21.0871 35.0698 21.4753 34.9911 21.8953C34.9125 22.3154 34.9576 22.7493 35.121 23.1442C35.2844 23.5391 35.559 23.878 35.9114 24.1197C36.2639 24.3614 36.679 24.4955 37.1063 24.5056H42.0938C42.4745 25.7859 42.6949 27.1085 42.75 28.4431H11.25C11.3051 27.1085 11.5255 25.7859 11.9062 24.5056ZM29.9334 44.4753C29.9317 44.5403 29.9047 44.602 29.8581 44.6474C29.8115 44.6927 29.7491 44.7181 29.6841 44.7181H24.3159C24.2509 44.7181 24.1885 44.6927 24.1419 44.6474C24.0953 44.602 24.0683 44.5403 24.0666 44.4753V43.1628C24.0666 43.0966 24.0928 43.0332 24.1396 42.9864C24.1864 42.9397 24.2498 42.9134 24.3159 42.9134H29.6841C29.7502 42.9134 29.8136 42.9397 29.8604 42.9864C29.9072 43.0332 29.9334 43.0966 29.9334 43.1628V44.4753ZM31.1213 42.5853C31.0001 42.3042 30.7996 42.0644 30.5444 41.8954C30.2891 41.7264 29.9902 41.6355 29.6841 41.6337H24.3159C24.0098 41.6355 23.7109 41.7264 23.4556 41.8954C23.2004 42.0644 22.9999 42.3042 22.8787 42.5853C18.1669 41.2137 14.6034 37.5387 13.7241 33.1287H40.2759C39.3966 37.5387 35.8331 41.2137 31.1213 42.5853ZM44.7188 31.8162H9.28125V29.7359H44.7188V31.8162Z" fill="black"/>
<path d="M27 10.1016C26.3473 10.1016 25.7214 10.3608 25.2599 10.8224C24.7983 11.2839 24.5391 11.9098 24.5391 12.5625C24.5391 13.2152 24.7983 13.8411 25.2599 14.3026C25.7214 14.7642 26.3473 15.0234 27 15.0234C27.6527 15.0234 28.2786 14.7642 28.7401 14.3026C29.2017 13.8411 29.4609 13.2152 29.4609 12.5625C29.4609 11.9098 29.2017 11.2839 28.7401 10.8224C28.2786 10.3608 27.6527 10.1016 27 10.1016ZM27 13.7109C26.6954 13.7109 26.4033 13.5899 26.1879 13.3746C25.9726 13.1592 25.8516 12.8671 25.8516 12.5625C25.8516 12.2579 25.9726 11.9658 26.1879 11.7504C26.4033 11.5351 26.6954 11.4141 27 11.4141C27.3046 11.4141 27.5967 11.5351 27.8121 11.7504C28.0274 11.9658 28.1484 12.2579 28.1484 12.5625C28.1484 12.8671 28.0274 13.1592 27.8121 13.3746C27.5967 13.5899 27.3046 13.7109 27 13.7109Z" fill="black"/>
</svg>
